%TF.GenerationSoftware,KiCad,Pcbnew,7.0.7*%
%TF.CreationDate,2023-10-25T17:12:00+02:00*%
%TF.ProjectId,kicad_chat-souris,6b696361-645f-4636-9861-742d736f7572,rev?*%
%TF.SameCoordinates,Original*%
%TF.FileFunction,Legend,Bot*%
%TF.FilePolarity,Positive*%
%FSLAX46Y46*%
G04 Gerber Fmt 4.6, Leading zero omitted, Abs format (unit mm)*
G04 Created by KiCad (PCBNEW 7.0.7) date 2023-10-25 17:12:00*
%MOMM*%
%LPD*%
G01*
G04 APERTURE LIST*
%ADD10C,0.400000*%
G04 APERTURE END LIST*
D10*
X156665238Y-101294438D02*
X156665238Y-99294438D01*
X156665238Y-99294438D02*
X155903333Y-99294438D01*
X155903333Y-99294438D02*
X155712857Y-99389676D01*
X155712857Y-99389676D02*
X155617619Y-99484914D01*
X155617619Y-99484914D02*
X155522381Y-99675390D01*
X155522381Y-99675390D02*
X155522381Y-99961104D01*
X155522381Y-99961104D02*
X155617619Y-100151580D01*
X155617619Y-100151580D02*
X155712857Y-100246819D01*
X155712857Y-100246819D02*
X155903333Y-100342057D01*
X155903333Y-100342057D02*
X156665238Y-100342057D01*
X154665238Y-101294438D02*
X154665238Y-99294438D01*
X152570000Y-101103961D02*
X152665238Y-101199200D01*
X152665238Y-101199200D02*
X152950952Y-101294438D01*
X152950952Y-101294438D02*
X153141428Y-101294438D01*
X153141428Y-101294438D02*
X153427143Y-101199200D01*
X153427143Y-101199200D02*
X153617619Y-101008723D01*
X153617619Y-101008723D02*
X153712857Y-100818247D01*
X153712857Y-100818247D02*
X153808095Y-100437295D01*
X153808095Y-100437295D02*
X153808095Y-100151580D01*
X153808095Y-100151580D02*
X153712857Y-99770628D01*
X153712857Y-99770628D02*
X153617619Y-99580152D01*
X153617619Y-99580152D02*
X153427143Y-99389676D01*
X153427143Y-99389676D02*
X153141428Y-99294438D01*
X153141428Y-99294438D02*
X152950952Y-99294438D01*
X152950952Y-99294438D02*
X152665238Y-99389676D01*
X152665238Y-99389676D02*
X152570000Y-99484914D01*
X151712857Y-101294438D02*
X151712857Y-99294438D01*
X151712857Y-100246819D02*
X150570000Y-100246819D01*
X150570000Y-101294438D02*
X150570000Y-99294438D01*
X149617619Y-100246819D02*
X148950952Y-100246819D01*
X148665238Y-101294438D02*
X149617619Y-101294438D01*
X149617619Y-101294438D02*
X149617619Y-99294438D01*
X149617619Y-99294438D02*
X148665238Y-99294438D01*
X146665238Y-101294438D02*
X147331905Y-100342057D01*
X147808095Y-101294438D02*
X147808095Y-99294438D01*
X147808095Y-99294438D02*
X147046190Y-99294438D01*
X147046190Y-99294438D02*
X146855714Y-99389676D01*
X146855714Y-99389676D02*
X146760476Y-99484914D01*
X146760476Y-99484914D02*
X146665238Y-99675390D01*
X146665238Y-99675390D02*
X146665238Y-99961104D01*
X146665238Y-99961104D02*
X146760476Y-100151580D01*
X146760476Y-100151580D02*
X146855714Y-100246819D01*
X146855714Y-100246819D02*
X147046190Y-100342057D01*
X147046190Y-100342057D02*
X147808095Y-100342057D01*
X145427143Y-100342057D02*
X145427143Y-101294438D01*
X146093809Y-99294438D02*
X145427143Y-100342057D01*
X145427143Y-100342057D02*
X144760476Y-99294438D01*
X142569999Y-101294438D02*
X142569999Y-99294438D01*
X142569999Y-99294438D02*
X141903332Y-100723009D01*
X141903332Y-100723009D02*
X141236666Y-99294438D01*
X141236666Y-99294438D02*
X141236666Y-101294438D01*
X139427142Y-101294438D02*
X139427142Y-100246819D01*
X139427142Y-100246819D02*
X139522380Y-100056342D01*
X139522380Y-100056342D02*
X139712856Y-99961104D01*
X139712856Y-99961104D02*
X140093809Y-99961104D01*
X140093809Y-99961104D02*
X140284285Y-100056342D01*
X139427142Y-101199200D02*
X139617618Y-101294438D01*
X139617618Y-101294438D02*
X140093809Y-101294438D01*
X140093809Y-101294438D02*
X140284285Y-101199200D01*
X140284285Y-101199200D02*
X140379523Y-101008723D01*
X140379523Y-101008723D02*
X140379523Y-100818247D01*
X140379523Y-100818247D02*
X140284285Y-100627771D01*
X140284285Y-100627771D02*
X140093809Y-100532533D01*
X140093809Y-100532533D02*
X139617618Y-100532533D01*
X139617618Y-100532533D02*
X139427142Y-100437295D01*
X138665237Y-101294438D02*
X137617618Y-99961104D01*
X138665237Y-99961104D02*
X137617618Y-101294438D01*
X136855713Y-101294438D02*
X136855713Y-99961104D01*
X136855713Y-99294438D02*
X136950951Y-99389676D01*
X136950951Y-99389676D02*
X136855713Y-99484914D01*
X136855713Y-99484914D02*
X136760475Y-99389676D01*
X136760475Y-99389676D02*
X136855713Y-99294438D01*
X136855713Y-99294438D02*
X136855713Y-99484914D01*
X135903332Y-101294438D02*
X135903332Y-99961104D01*
X135903332Y-100151580D02*
X135808094Y-100056342D01*
X135808094Y-100056342D02*
X135617618Y-99961104D01*
X135617618Y-99961104D02*
X135331903Y-99961104D01*
X135331903Y-99961104D02*
X135141427Y-100056342D01*
X135141427Y-100056342D02*
X135046189Y-100246819D01*
X135046189Y-100246819D02*
X135046189Y-101294438D01*
X135046189Y-100246819D02*
X134950951Y-100056342D01*
X134950951Y-100056342D02*
X134760475Y-99961104D01*
X134760475Y-99961104D02*
X134474761Y-99961104D01*
X134474761Y-99961104D02*
X134284284Y-100056342D01*
X134284284Y-100056342D02*
X134189046Y-100246819D01*
X134189046Y-100246819D02*
X134189046Y-101294438D01*
X132474760Y-101199200D02*
X132665236Y-101294438D01*
X132665236Y-101294438D02*
X133046189Y-101294438D01*
X133046189Y-101294438D02*
X133236665Y-101199200D01*
X133236665Y-101199200D02*
X133331903Y-101008723D01*
X133331903Y-101008723D02*
X133331903Y-100246819D01*
X133331903Y-100246819D02*
X133236665Y-100056342D01*
X133236665Y-100056342D02*
X133046189Y-99961104D01*
X133046189Y-99961104D02*
X132665236Y-99961104D01*
X132665236Y-99961104D02*
X132474760Y-100056342D01*
X132474760Y-100056342D02*
X132379522Y-100246819D01*
X132379522Y-100246819D02*
X132379522Y-100437295D01*
X132379522Y-100437295D02*
X133331903Y-100627771D01*
X155236667Y-104514438D02*
X155903334Y-103562057D01*
X156379524Y-104514438D02*
X156379524Y-102514438D01*
X156379524Y-102514438D02*
X155617619Y-102514438D01*
X155617619Y-102514438D02*
X155427143Y-102609676D01*
X155427143Y-102609676D02*
X155331905Y-102704914D01*
X155331905Y-102704914D02*
X155236667Y-102895390D01*
X155236667Y-102895390D02*
X155236667Y-103181104D01*
X155236667Y-103181104D02*
X155331905Y-103371580D01*
X155331905Y-103371580D02*
X155427143Y-103466819D01*
X155427143Y-103466819D02*
X155617619Y-103562057D01*
X155617619Y-103562057D02*
X156379524Y-103562057D01*
X153998572Y-102514438D02*
X153617619Y-102514438D01*
X153617619Y-102514438D02*
X153427143Y-102609676D01*
X153427143Y-102609676D02*
X153236667Y-102800152D01*
X153236667Y-102800152D02*
X153141429Y-103181104D01*
X153141429Y-103181104D02*
X153141429Y-103847771D01*
X153141429Y-103847771D02*
X153236667Y-104228723D01*
X153236667Y-104228723D02*
X153427143Y-104419200D01*
X153427143Y-104419200D02*
X153617619Y-104514438D01*
X153617619Y-104514438D02*
X153998572Y-104514438D01*
X153998572Y-104514438D02*
X154189048Y-104419200D01*
X154189048Y-104419200D02*
X154379524Y-104228723D01*
X154379524Y-104228723D02*
X154474762Y-103847771D01*
X154474762Y-103847771D02*
X154474762Y-103181104D01*
X154474762Y-103181104D02*
X154379524Y-102800152D01*
X154379524Y-102800152D02*
X154189048Y-102609676D01*
X154189048Y-102609676D02*
X153998572Y-102514438D01*
X152284286Y-104514438D02*
X152284286Y-102514438D01*
X152284286Y-102514438D02*
X151808096Y-102514438D01*
X151808096Y-102514438D02*
X151522381Y-102609676D01*
X151522381Y-102609676D02*
X151331905Y-102800152D01*
X151331905Y-102800152D02*
X151236667Y-102990628D01*
X151236667Y-102990628D02*
X151141429Y-103371580D01*
X151141429Y-103371580D02*
X151141429Y-103657295D01*
X151141429Y-103657295D02*
X151236667Y-104038247D01*
X151236667Y-104038247D02*
X151331905Y-104228723D01*
X151331905Y-104228723D02*
X151522381Y-104419200D01*
X151522381Y-104419200D02*
X151808096Y-104514438D01*
X151808096Y-104514438D02*
X152284286Y-104514438D01*
X150284286Y-104514438D02*
X150284286Y-102514438D01*
X149331905Y-103466819D02*
X148665238Y-103466819D01*
X148379524Y-104514438D02*
X149331905Y-104514438D01*
X149331905Y-104514438D02*
X149331905Y-102514438D01*
X149331905Y-102514438D02*
X148379524Y-102514438D01*
X146379524Y-104514438D02*
X147046191Y-103562057D01*
X147522381Y-104514438D02*
X147522381Y-102514438D01*
X147522381Y-102514438D02*
X146760476Y-102514438D01*
X146760476Y-102514438D02*
X146570000Y-102609676D01*
X146570000Y-102609676D02*
X146474762Y-102704914D01*
X146474762Y-102704914D02*
X146379524Y-102895390D01*
X146379524Y-102895390D02*
X146379524Y-103181104D01*
X146379524Y-103181104D02*
X146474762Y-103371580D01*
X146474762Y-103371580D02*
X146570000Y-103466819D01*
X146570000Y-103466819D02*
X146760476Y-103562057D01*
X146760476Y-103562057D02*
X147522381Y-103562057D01*
X143331904Y-103466819D02*
X143046190Y-103562057D01*
X143046190Y-103562057D02*
X142950952Y-103657295D01*
X142950952Y-103657295D02*
X142855714Y-103847771D01*
X142855714Y-103847771D02*
X142855714Y-104133485D01*
X142855714Y-104133485D02*
X142950952Y-104323961D01*
X142950952Y-104323961D02*
X143046190Y-104419200D01*
X143046190Y-104419200D02*
X143236666Y-104514438D01*
X143236666Y-104514438D02*
X143998571Y-104514438D01*
X143998571Y-104514438D02*
X143998571Y-102514438D01*
X143998571Y-102514438D02*
X143331904Y-102514438D01*
X143331904Y-102514438D02*
X143141428Y-102609676D01*
X143141428Y-102609676D02*
X143046190Y-102704914D01*
X143046190Y-102704914D02*
X142950952Y-102895390D01*
X142950952Y-102895390D02*
X142950952Y-103085866D01*
X142950952Y-103085866D02*
X143046190Y-103276342D01*
X143046190Y-103276342D02*
X143141428Y-103371580D01*
X143141428Y-103371580D02*
X143331904Y-103466819D01*
X143331904Y-103466819D02*
X143998571Y-103466819D01*
X141141428Y-104514438D02*
X141141428Y-103466819D01*
X141141428Y-103466819D02*
X141236666Y-103276342D01*
X141236666Y-103276342D02*
X141427142Y-103181104D01*
X141427142Y-103181104D02*
X141808095Y-103181104D01*
X141808095Y-103181104D02*
X141998571Y-103276342D01*
X141141428Y-104419200D02*
X141331904Y-104514438D01*
X141331904Y-104514438D02*
X141808095Y-104514438D01*
X141808095Y-104514438D02*
X141998571Y-104419200D01*
X141998571Y-104419200D02*
X142093809Y-104228723D01*
X142093809Y-104228723D02*
X142093809Y-104038247D01*
X142093809Y-104038247D02*
X141998571Y-103847771D01*
X141998571Y-103847771D02*
X141808095Y-103752533D01*
X141808095Y-103752533D02*
X141331904Y-103752533D01*
X141331904Y-103752533D02*
X141141428Y-103657295D01*
X140189047Y-103181104D02*
X140189047Y-105181104D01*
X140189047Y-103276342D02*
X139998571Y-103181104D01*
X139998571Y-103181104D02*
X139617618Y-103181104D01*
X139617618Y-103181104D02*
X139427142Y-103276342D01*
X139427142Y-103276342D02*
X139331904Y-103371580D01*
X139331904Y-103371580D02*
X139236666Y-103562057D01*
X139236666Y-103562057D02*
X139236666Y-104133485D01*
X139236666Y-104133485D02*
X139331904Y-104323961D01*
X139331904Y-104323961D02*
X139427142Y-104419200D01*
X139427142Y-104419200D02*
X139617618Y-104514438D01*
X139617618Y-104514438D02*
X139998571Y-104514438D01*
X139998571Y-104514438D02*
X140189047Y-104419200D01*
X138665237Y-103181104D02*
X137903333Y-103181104D01*
X138379523Y-102514438D02*
X138379523Y-104228723D01*
X138379523Y-104228723D02*
X138284285Y-104419200D01*
X138284285Y-104419200D02*
X138093809Y-104514438D01*
X138093809Y-104514438D02*
X137903333Y-104514438D01*
X137236666Y-104514438D02*
X137236666Y-103181104D01*
X137236666Y-102514438D02*
X137331904Y-102609676D01*
X137331904Y-102609676D02*
X137236666Y-102704914D01*
X137236666Y-102704914D02*
X137141428Y-102609676D01*
X137141428Y-102609676D02*
X137236666Y-102514438D01*
X137236666Y-102514438D02*
X137236666Y-102704914D01*
X136379523Y-104419200D02*
X136189047Y-104514438D01*
X136189047Y-104514438D02*
X135808095Y-104514438D01*
X135808095Y-104514438D02*
X135617618Y-104419200D01*
X135617618Y-104419200D02*
X135522380Y-104228723D01*
X135522380Y-104228723D02*
X135522380Y-104133485D01*
X135522380Y-104133485D02*
X135617618Y-103943009D01*
X135617618Y-103943009D02*
X135808095Y-103847771D01*
X135808095Y-103847771D02*
X136093809Y-103847771D01*
X136093809Y-103847771D02*
X136284285Y-103752533D01*
X136284285Y-103752533D02*
X136379523Y-103562057D01*
X136379523Y-103562057D02*
X136379523Y-103466819D01*
X136379523Y-103466819D02*
X136284285Y-103276342D01*
X136284285Y-103276342D02*
X136093809Y-103181104D01*
X136093809Y-103181104D02*
X135808095Y-103181104D01*
X135808095Y-103181104D02*
X135617618Y-103276342D01*
X134950951Y-103181104D02*
X134189047Y-103181104D01*
X134665237Y-102514438D02*
X134665237Y-104228723D01*
X134665237Y-104228723D02*
X134569999Y-104419200D01*
X134569999Y-104419200D02*
X134379523Y-104514438D01*
X134379523Y-104514438D02*
X134189047Y-104514438D01*
X132760475Y-104419200D02*
X132950951Y-104514438D01*
X132950951Y-104514438D02*
X133331904Y-104514438D01*
X133331904Y-104514438D02*
X133522380Y-104419200D01*
X133522380Y-104419200D02*
X133617618Y-104228723D01*
X133617618Y-104228723D02*
X133617618Y-103466819D01*
X133617618Y-103466819D02*
X133522380Y-103276342D01*
X133522380Y-103276342D02*
X133331904Y-103181104D01*
X133331904Y-103181104D02*
X132950951Y-103181104D01*
X132950951Y-103181104D02*
X132760475Y-103276342D01*
X132760475Y-103276342D02*
X132665237Y-103466819D01*
X132665237Y-103466819D02*
X132665237Y-103657295D01*
X132665237Y-103657295D02*
X133617618Y-103847771D01*
X164284286Y-105734438D02*
X163617620Y-107734438D01*
X163617620Y-107734438D02*
X162950953Y-105734438D01*
X162379524Y-107163009D02*
X161427143Y-107163009D01*
X162570000Y-107734438D02*
X161903334Y-105734438D01*
X161903334Y-105734438D02*
X161236667Y-107734438D01*
X160570000Y-107734438D02*
X160570000Y-105734438D01*
X160570000Y-105734438D02*
X159427143Y-107734438D01*
X159427143Y-107734438D02*
X159427143Y-105734438D01*
X156950952Y-107734438D02*
X156950952Y-105734438D01*
X156950952Y-105734438D02*
X156474762Y-105734438D01*
X156474762Y-105734438D02*
X156189047Y-105829676D01*
X156189047Y-105829676D02*
X155998571Y-106020152D01*
X155998571Y-106020152D02*
X155903333Y-106210628D01*
X155903333Y-106210628D02*
X155808095Y-106591580D01*
X155808095Y-106591580D02*
X155808095Y-106877295D01*
X155808095Y-106877295D02*
X155903333Y-107258247D01*
X155903333Y-107258247D02*
X155998571Y-107448723D01*
X155998571Y-107448723D02*
X156189047Y-107639200D01*
X156189047Y-107639200D02*
X156474762Y-107734438D01*
X156474762Y-107734438D02*
X156950952Y-107734438D01*
X154950952Y-106686819D02*
X154284285Y-106686819D01*
X153998571Y-107734438D02*
X154950952Y-107734438D01*
X154950952Y-107734438D02*
X154950952Y-105734438D01*
X154950952Y-105734438D02*
X153998571Y-105734438D01*
X151617618Y-107734438D02*
X151617618Y-105734438D01*
X151617618Y-105734438D02*
X150950951Y-107163009D01*
X150950951Y-107163009D02*
X150284285Y-105734438D01*
X150284285Y-105734438D02*
X150284285Y-107734438D01*
X148950952Y-105734438D02*
X148569999Y-105734438D01*
X148569999Y-105734438D02*
X148379523Y-105829676D01*
X148379523Y-105829676D02*
X148189047Y-106020152D01*
X148189047Y-106020152D02*
X148093809Y-106401104D01*
X148093809Y-106401104D02*
X148093809Y-107067771D01*
X148093809Y-107067771D02*
X148189047Y-107448723D01*
X148189047Y-107448723D02*
X148379523Y-107639200D01*
X148379523Y-107639200D02*
X148569999Y-107734438D01*
X148569999Y-107734438D02*
X148950952Y-107734438D01*
X148950952Y-107734438D02*
X149141428Y-107639200D01*
X149141428Y-107639200D02*
X149331904Y-107448723D01*
X149331904Y-107448723D02*
X149427142Y-107067771D01*
X149427142Y-107067771D02*
X149427142Y-106401104D01*
X149427142Y-106401104D02*
X149331904Y-106020152D01*
X149331904Y-106020152D02*
X149141428Y-105829676D01*
X149141428Y-105829676D02*
X148950952Y-105734438D01*
X146855714Y-105734438D02*
X146474761Y-105734438D01*
X146474761Y-105734438D02*
X146284285Y-105829676D01*
X146284285Y-105829676D02*
X146093809Y-106020152D01*
X146093809Y-106020152D02*
X145998571Y-106401104D01*
X145998571Y-106401104D02*
X145998571Y-107067771D01*
X145998571Y-107067771D02*
X146093809Y-107448723D01*
X146093809Y-107448723D02*
X146284285Y-107639200D01*
X146284285Y-107639200D02*
X146474761Y-107734438D01*
X146474761Y-107734438D02*
X146855714Y-107734438D01*
X146855714Y-107734438D02*
X147046190Y-107639200D01*
X147046190Y-107639200D02*
X147236666Y-107448723D01*
X147236666Y-107448723D02*
X147331904Y-107067771D01*
X147331904Y-107067771D02*
X147331904Y-106401104D01*
X147331904Y-106401104D02*
X147236666Y-106020152D01*
X147236666Y-106020152D02*
X147046190Y-105829676D01*
X147046190Y-105829676D02*
X146855714Y-105734438D01*
X145236666Y-107639200D02*
X144950952Y-107734438D01*
X144950952Y-107734438D02*
X144474761Y-107734438D01*
X144474761Y-107734438D02*
X144284285Y-107639200D01*
X144284285Y-107639200D02*
X144189047Y-107543961D01*
X144189047Y-107543961D02*
X144093809Y-107353485D01*
X144093809Y-107353485D02*
X144093809Y-107163009D01*
X144093809Y-107163009D02*
X144189047Y-106972533D01*
X144189047Y-106972533D02*
X144284285Y-106877295D01*
X144284285Y-106877295D02*
X144474761Y-106782057D01*
X144474761Y-106782057D02*
X144855714Y-106686819D01*
X144855714Y-106686819D02*
X145046190Y-106591580D01*
X145046190Y-106591580D02*
X145141428Y-106496342D01*
X145141428Y-106496342D02*
X145236666Y-106305866D01*
X145236666Y-106305866D02*
X145236666Y-106115390D01*
X145236666Y-106115390D02*
X145141428Y-105924914D01*
X145141428Y-105924914D02*
X145046190Y-105829676D01*
X145046190Y-105829676D02*
X144855714Y-105734438D01*
X144855714Y-105734438D02*
X144379523Y-105734438D01*
X144379523Y-105734438D02*
X144093809Y-105829676D01*
X143236666Y-107734438D02*
X143236666Y-105734438D01*
X143236666Y-105734438D02*
X142760476Y-105734438D01*
X142760476Y-105734438D02*
X142474761Y-105829676D01*
X142474761Y-105829676D02*
X142284285Y-106020152D01*
X142284285Y-106020152D02*
X142189047Y-106210628D01*
X142189047Y-106210628D02*
X142093809Y-106591580D01*
X142093809Y-106591580D02*
X142093809Y-106877295D01*
X142093809Y-106877295D02*
X142189047Y-107258247D01*
X142189047Y-107258247D02*
X142284285Y-107448723D01*
X142284285Y-107448723D02*
X142474761Y-107639200D01*
X142474761Y-107639200D02*
X142760476Y-107734438D01*
X142760476Y-107734438D02*
X143236666Y-107734438D01*
X140665237Y-105734438D02*
X140665237Y-107163009D01*
X140665237Y-107163009D02*
X140760476Y-107448723D01*
X140760476Y-107448723D02*
X140950952Y-107639200D01*
X140950952Y-107639200D02*
X141236666Y-107734438D01*
X141236666Y-107734438D02*
X141427142Y-107734438D01*
X139712856Y-107734438D02*
X139712856Y-105734438D01*
X138760475Y-107734438D02*
X138760475Y-105734438D01*
X137617618Y-107734438D02*
X138474761Y-106591580D01*
X137617618Y-105734438D02*
X138760475Y-106877295D01*
X135236665Y-107734438D02*
X135236665Y-105734438D01*
X135236665Y-105734438D02*
X134569998Y-107163009D01*
X134569998Y-107163009D02*
X133903332Y-105734438D01*
X133903332Y-105734438D02*
X133903332Y-107734438D01*
X132093808Y-107734438D02*
X132093808Y-106686819D01*
X132093808Y-106686819D02*
X132189046Y-106496342D01*
X132189046Y-106496342D02*
X132379522Y-106401104D01*
X132379522Y-106401104D02*
X132760475Y-106401104D01*
X132760475Y-106401104D02*
X132950951Y-106496342D01*
X132093808Y-107639200D02*
X132284284Y-107734438D01*
X132284284Y-107734438D02*
X132760475Y-107734438D01*
X132760475Y-107734438D02*
X132950951Y-107639200D01*
X132950951Y-107639200D02*
X133046189Y-107448723D01*
X133046189Y-107448723D02*
X133046189Y-107258247D01*
X133046189Y-107258247D02*
X132950951Y-107067771D01*
X132950951Y-107067771D02*
X132760475Y-106972533D01*
X132760475Y-106972533D02*
X132284284Y-106972533D01*
X132284284Y-106972533D02*
X132093808Y-106877295D01*
X131141427Y-107734438D02*
X131141427Y-106401104D01*
X131141427Y-106782057D02*
X131046189Y-106591580D01*
X131046189Y-106591580D02*
X130950951Y-106496342D01*
X130950951Y-106496342D02*
X130760475Y-106401104D01*
X130760475Y-106401104D02*
X130569998Y-106401104D01*
X130189046Y-106401104D02*
X129427142Y-106401104D01*
X129903332Y-105734438D02*
X129903332Y-107448723D01*
X129903332Y-107448723D02*
X129808094Y-107639200D01*
X129808094Y-107639200D02*
X129617618Y-107734438D01*
X129617618Y-107734438D02*
X129427142Y-107734438D01*
X128760475Y-107734438D02*
X128760475Y-106401104D01*
X128760475Y-105734438D02*
X128855713Y-105829676D01*
X128855713Y-105829676D02*
X128760475Y-105924914D01*
X128760475Y-105924914D02*
X128665237Y-105829676D01*
X128665237Y-105829676D02*
X128760475Y-105734438D01*
X128760475Y-105734438D02*
X128760475Y-105924914D01*
X127808094Y-106401104D02*
X127808094Y-107734438D01*
X127808094Y-106591580D02*
X127712856Y-106496342D01*
X127712856Y-106496342D02*
X127522380Y-106401104D01*
X127522380Y-106401104D02*
X127236665Y-106401104D01*
X127236665Y-106401104D02*
X127046189Y-106496342D01*
X127046189Y-106496342D02*
X126950951Y-106686819D01*
X126950951Y-106686819D02*
X126950951Y-107734438D01*
X125141427Y-107734438D02*
X125141427Y-106686819D01*
X125141427Y-106686819D02*
X125236665Y-106496342D01*
X125236665Y-106496342D02*
X125427141Y-106401104D01*
X125427141Y-106401104D02*
X125808094Y-106401104D01*
X125808094Y-106401104D02*
X125998570Y-106496342D01*
X125141427Y-107639200D02*
X125331903Y-107734438D01*
X125331903Y-107734438D02*
X125808094Y-107734438D01*
X125808094Y-107734438D02*
X125998570Y-107639200D01*
X125998570Y-107639200D02*
X126093808Y-107448723D01*
X126093808Y-107448723D02*
X126093808Y-107258247D01*
X126093808Y-107258247D02*
X125998570Y-107067771D01*
X125998570Y-107067771D02*
X125808094Y-106972533D01*
X125808094Y-106972533D02*
X125331903Y-106972533D01*
X125331903Y-106972533D02*
X125141427Y-106877295D01*
X159284286Y-110954438D02*
X159950953Y-110002057D01*
X160427143Y-110954438D02*
X160427143Y-108954438D01*
X160427143Y-108954438D02*
X159665238Y-108954438D01*
X159665238Y-108954438D02*
X159474762Y-109049676D01*
X159474762Y-109049676D02*
X159379524Y-109144914D01*
X159379524Y-109144914D02*
X159284286Y-109335390D01*
X159284286Y-109335390D02*
X159284286Y-109621104D01*
X159284286Y-109621104D02*
X159379524Y-109811580D01*
X159379524Y-109811580D02*
X159474762Y-109906819D01*
X159474762Y-109906819D02*
X159665238Y-110002057D01*
X159665238Y-110002057D02*
X160427143Y-110002057D01*
X158427143Y-109906819D02*
X157760476Y-109906819D01*
X157474762Y-110954438D02*
X158427143Y-110954438D01*
X158427143Y-110954438D02*
X158427143Y-108954438D01*
X158427143Y-108954438D02*
X157474762Y-108954438D01*
X156903333Y-108954438D02*
X155760476Y-108954438D01*
X156331905Y-110954438D02*
X156331905Y-108954438D01*
X155189047Y-110383009D02*
X154236666Y-110383009D01*
X155379523Y-110954438D02*
X154712857Y-108954438D01*
X154712857Y-108954438D02*
X154046190Y-110954438D01*
X153379523Y-108954438D02*
X153379523Y-110573485D01*
X153379523Y-110573485D02*
X153284285Y-110763961D01*
X153284285Y-110763961D02*
X153189047Y-110859200D01*
X153189047Y-110859200D02*
X152998571Y-110954438D01*
X152998571Y-110954438D02*
X152617618Y-110954438D01*
X152617618Y-110954438D02*
X152427142Y-110859200D01*
X152427142Y-110859200D02*
X152331904Y-110763961D01*
X152331904Y-110763961D02*
X152236666Y-110573485D01*
X152236666Y-110573485D02*
X152236666Y-108954438D01*
X151474761Y-108954438D02*
X150141428Y-110954438D01*
X150141428Y-108954438D02*
X151474761Y-110954438D01*
X147855713Y-110954438D02*
X147855713Y-108954438D01*
X147855713Y-108954438D02*
X147093808Y-108954438D01*
X147093808Y-108954438D02*
X146903332Y-109049676D01*
X146903332Y-109049676D02*
X146808094Y-109144914D01*
X146808094Y-109144914D02*
X146712856Y-109335390D01*
X146712856Y-109335390D02*
X146712856Y-109621104D01*
X146712856Y-109621104D02*
X146808094Y-109811580D01*
X146808094Y-109811580D02*
X146903332Y-109906819D01*
X146903332Y-109906819D02*
X147093808Y-110002057D01*
X147093808Y-110002057D02*
X147855713Y-110002057D01*
X144998570Y-110954438D02*
X144998570Y-109906819D01*
X144998570Y-109906819D02*
X145093808Y-109716342D01*
X145093808Y-109716342D02*
X145284284Y-109621104D01*
X145284284Y-109621104D02*
X145665237Y-109621104D01*
X145665237Y-109621104D02*
X145855713Y-109716342D01*
X144998570Y-110859200D02*
X145189046Y-110954438D01*
X145189046Y-110954438D02*
X145665237Y-110954438D01*
X145665237Y-110954438D02*
X145855713Y-110859200D01*
X145855713Y-110859200D02*
X145950951Y-110668723D01*
X145950951Y-110668723D02*
X145950951Y-110478247D01*
X145950951Y-110478247D02*
X145855713Y-110287771D01*
X145855713Y-110287771D02*
X145665237Y-110192533D01*
X145665237Y-110192533D02*
X145189046Y-110192533D01*
X145189046Y-110192533D02*
X144998570Y-110097295D01*
X143189046Y-109621104D02*
X143189046Y-110954438D01*
X144046189Y-109621104D02*
X144046189Y-110668723D01*
X144046189Y-110668723D02*
X143950951Y-110859200D01*
X143950951Y-110859200D02*
X143760475Y-110954438D01*
X143760475Y-110954438D02*
X143474760Y-110954438D01*
X143474760Y-110954438D02*
X143284284Y-110859200D01*
X143284284Y-110859200D02*
X143189046Y-110763961D01*
X141950951Y-110954438D02*
X142141427Y-110859200D01*
X142141427Y-110859200D02*
X142236665Y-110668723D01*
X142236665Y-110668723D02*
X142236665Y-108954438D01*
X141189046Y-110192533D02*
X139665237Y-110192533D01*
X138712856Y-109906819D02*
X138046189Y-109906819D01*
X137760475Y-110954438D02*
X138712856Y-110954438D01*
X138712856Y-110954438D02*
X138712856Y-108954438D01*
X138712856Y-108954438D02*
X137760475Y-108954438D01*
X137189046Y-109621104D02*
X136427142Y-109621104D01*
X136903332Y-108954438D02*
X136903332Y-110668723D01*
X136903332Y-110668723D02*
X136808094Y-110859200D01*
X136808094Y-110859200D02*
X136617618Y-110954438D01*
X136617618Y-110954438D02*
X136427142Y-110954438D01*
X135760475Y-110954438D02*
X135760475Y-109621104D01*
X135760475Y-108954438D02*
X135855713Y-109049676D01*
X135855713Y-109049676D02*
X135760475Y-109144914D01*
X135760475Y-109144914D02*
X135665237Y-109049676D01*
X135665237Y-109049676D02*
X135760475Y-108954438D01*
X135760475Y-108954438D02*
X135760475Y-109144914D01*
X134046189Y-110859200D02*
X134236665Y-110954438D01*
X134236665Y-110954438D02*
X134617618Y-110954438D01*
X134617618Y-110954438D02*
X134808094Y-110859200D01*
X134808094Y-110859200D02*
X134903332Y-110668723D01*
X134903332Y-110668723D02*
X134903332Y-109906819D01*
X134903332Y-109906819D02*
X134808094Y-109716342D01*
X134808094Y-109716342D02*
X134617618Y-109621104D01*
X134617618Y-109621104D02*
X134236665Y-109621104D01*
X134236665Y-109621104D02*
X134046189Y-109716342D01*
X134046189Y-109716342D02*
X133950951Y-109906819D01*
X133950951Y-109906819D02*
X133950951Y-110097295D01*
X133950951Y-110097295D02*
X134903332Y-110287771D01*
X133093808Y-109621104D02*
X133093808Y-110954438D01*
X133093808Y-109811580D02*
X132998570Y-109716342D01*
X132998570Y-109716342D02*
X132808094Y-109621104D01*
X132808094Y-109621104D02*
X132522379Y-109621104D01*
X132522379Y-109621104D02*
X132331903Y-109716342D01*
X132331903Y-109716342D02*
X132236665Y-109906819D01*
X132236665Y-109906819D02*
X132236665Y-110954438D01*
X131284284Y-109621104D02*
X131284284Y-110954438D01*
X131284284Y-109811580D02*
X131189046Y-109716342D01*
X131189046Y-109716342D02*
X130998570Y-109621104D01*
X130998570Y-109621104D02*
X130712855Y-109621104D01*
X130712855Y-109621104D02*
X130522379Y-109716342D01*
X130522379Y-109716342D02*
X130427141Y-109906819D01*
X130427141Y-109906819D02*
X130427141Y-110954438D01*
X128712855Y-110859200D02*
X128903331Y-110954438D01*
X128903331Y-110954438D02*
X129284284Y-110954438D01*
X129284284Y-110954438D02*
X129474760Y-110859200D01*
X129474760Y-110859200D02*
X129569998Y-110668723D01*
X129569998Y-110668723D02*
X129569998Y-109906819D01*
X129569998Y-109906819D02*
X129474760Y-109716342D01*
X129474760Y-109716342D02*
X129284284Y-109621104D01*
X129284284Y-109621104D02*
X128903331Y-109621104D01*
X128903331Y-109621104D02*
X128712855Y-109716342D01*
X128712855Y-109716342D02*
X128617617Y-109906819D01*
X128617617Y-109906819D02*
X128617617Y-110097295D01*
X128617617Y-110097295D02*
X129569998Y-110287771D01*
X178080652Y-60514438D02*
X178080652Y-58514438D01*
X178080652Y-58514438D02*
X177318747Y-58514438D01*
X177318747Y-58514438D02*
X177128271Y-58609676D01*
X177128271Y-58609676D02*
X177033033Y-58704914D01*
X177033033Y-58704914D02*
X176937795Y-58895390D01*
X176937795Y-58895390D02*
X176937795Y-59181104D01*
X176937795Y-59181104D02*
X177033033Y-59371580D01*
X177033033Y-59371580D02*
X177128271Y-59466819D01*
X177128271Y-59466819D02*
X177318747Y-59562057D01*
X177318747Y-59562057D02*
X178080652Y-59562057D01*
X176080652Y-60514438D02*
X176080652Y-59181104D01*
X176080652Y-59562057D02*
X175985414Y-59371580D01*
X175985414Y-59371580D02*
X175890176Y-59276342D01*
X175890176Y-59276342D02*
X175699700Y-59181104D01*
X175699700Y-59181104D02*
X175509223Y-59181104D01*
X174556843Y-60514438D02*
X174747319Y-60419200D01*
X174747319Y-60419200D02*
X174842557Y-60323961D01*
X174842557Y-60323961D02*
X174937795Y-60133485D01*
X174937795Y-60133485D02*
X174937795Y-59562057D01*
X174937795Y-59562057D02*
X174842557Y-59371580D01*
X174842557Y-59371580D02*
X174747319Y-59276342D01*
X174747319Y-59276342D02*
X174556843Y-59181104D01*
X174556843Y-59181104D02*
X174271128Y-59181104D01*
X174271128Y-59181104D02*
X174080652Y-59276342D01*
X174080652Y-59276342D02*
X173985414Y-59371580D01*
X173985414Y-59371580D02*
X173890176Y-59562057D01*
X173890176Y-59562057D02*
X173890176Y-60133485D01*
X173890176Y-60133485D02*
X173985414Y-60323961D01*
X173985414Y-60323961D02*
X174080652Y-60419200D01*
X174080652Y-60419200D02*
X174271128Y-60514438D01*
X174271128Y-60514438D02*
X174556843Y-60514438D01*
X173033033Y-59181104D02*
X173033033Y-60895390D01*
X173033033Y-60895390D02*
X173128271Y-61085866D01*
X173128271Y-61085866D02*
X173318747Y-61181104D01*
X173318747Y-61181104D02*
X173413985Y-61181104D01*
X173033033Y-58514438D02*
X173128271Y-58609676D01*
X173128271Y-58609676D02*
X173033033Y-58704914D01*
X173033033Y-58704914D02*
X172937795Y-58609676D01*
X172937795Y-58609676D02*
X173033033Y-58514438D01*
X173033033Y-58514438D02*
X173033033Y-58704914D01*
X171318747Y-60419200D02*
X171509223Y-60514438D01*
X171509223Y-60514438D02*
X171890176Y-60514438D01*
X171890176Y-60514438D02*
X172080652Y-60419200D01*
X172080652Y-60419200D02*
X172175890Y-60228723D01*
X172175890Y-60228723D02*
X172175890Y-59466819D01*
X172175890Y-59466819D02*
X172080652Y-59276342D01*
X172080652Y-59276342D02*
X171890176Y-59181104D01*
X171890176Y-59181104D02*
X171509223Y-59181104D01*
X171509223Y-59181104D02*
X171318747Y-59276342D01*
X171318747Y-59276342D02*
X171223509Y-59466819D01*
X171223509Y-59466819D02*
X171223509Y-59657295D01*
X171223509Y-59657295D02*
X172175890Y-59847771D01*
X169509223Y-60419200D02*
X169699699Y-60514438D01*
X169699699Y-60514438D02*
X170080652Y-60514438D01*
X170080652Y-60514438D02*
X170271128Y-60419200D01*
X170271128Y-60419200D02*
X170366366Y-60323961D01*
X170366366Y-60323961D02*
X170461604Y-60133485D01*
X170461604Y-60133485D02*
X170461604Y-59562057D01*
X170461604Y-59562057D02*
X170366366Y-59371580D01*
X170366366Y-59371580D02*
X170271128Y-59276342D01*
X170271128Y-59276342D02*
X170080652Y-59181104D01*
X170080652Y-59181104D02*
X169699699Y-59181104D01*
X169699699Y-59181104D02*
X169509223Y-59276342D01*
X168937794Y-59181104D02*
X168175890Y-59181104D01*
X168652080Y-58514438D02*
X168652080Y-60228723D01*
X168652080Y-60228723D02*
X168556842Y-60419200D01*
X168556842Y-60419200D02*
X168366366Y-60514438D01*
X168366366Y-60514438D02*
X168175890Y-60514438D01*
X165985413Y-60323961D02*
X165890175Y-60419200D01*
X165890175Y-60419200D02*
X165985413Y-60514438D01*
X165985413Y-60514438D02*
X166080651Y-60419200D01*
X166080651Y-60419200D02*
X165985413Y-60323961D01*
X165985413Y-60323961D02*
X165985413Y-60514438D01*
X165985413Y-59276342D02*
X165890175Y-59371580D01*
X165890175Y-59371580D02*
X165985413Y-59466819D01*
X165985413Y-59466819D02*
X166080651Y-59371580D01*
X166080651Y-59371580D02*
X165985413Y-59276342D01*
X165985413Y-59276342D02*
X165985413Y-59466819D01*
X162366365Y-60514438D02*
X163033032Y-59562057D01*
X163509222Y-60514438D02*
X163509222Y-58514438D01*
X163509222Y-58514438D02*
X162747317Y-58514438D01*
X162747317Y-58514438D02*
X162556841Y-58609676D01*
X162556841Y-58609676D02*
X162461603Y-58704914D01*
X162461603Y-58704914D02*
X162366365Y-58895390D01*
X162366365Y-58895390D02*
X162366365Y-59181104D01*
X162366365Y-59181104D02*
X162461603Y-59371580D01*
X162461603Y-59371580D02*
X162556841Y-59466819D01*
X162556841Y-59466819D02*
X162747317Y-59562057D01*
X162747317Y-59562057D02*
X163509222Y-59562057D01*
X161223508Y-60514438D02*
X161413984Y-60419200D01*
X161413984Y-60419200D02*
X161509222Y-60323961D01*
X161509222Y-60323961D02*
X161604460Y-60133485D01*
X161604460Y-60133485D02*
X161604460Y-59562057D01*
X161604460Y-59562057D02*
X161509222Y-59371580D01*
X161509222Y-59371580D02*
X161413984Y-59276342D01*
X161413984Y-59276342D02*
X161223508Y-59181104D01*
X161223508Y-59181104D02*
X160937793Y-59181104D01*
X160937793Y-59181104D02*
X160747317Y-59276342D01*
X160747317Y-59276342D02*
X160652079Y-59371580D01*
X160652079Y-59371580D02*
X160556841Y-59562057D01*
X160556841Y-59562057D02*
X160556841Y-60133485D01*
X160556841Y-60133485D02*
X160652079Y-60323961D01*
X160652079Y-60323961D02*
X160747317Y-60419200D01*
X160747317Y-60419200D02*
X160937793Y-60514438D01*
X160937793Y-60514438D02*
X161223508Y-60514438D01*
X159699698Y-60514438D02*
X159699698Y-58514438D01*
X159699698Y-59276342D02*
X159509222Y-59181104D01*
X159509222Y-59181104D02*
X159128269Y-59181104D01*
X159128269Y-59181104D02*
X158937793Y-59276342D01*
X158937793Y-59276342D02*
X158842555Y-59371580D01*
X158842555Y-59371580D02*
X158747317Y-59562057D01*
X158747317Y-59562057D02*
X158747317Y-60133485D01*
X158747317Y-60133485D02*
X158842555Y-60323961D01*
X158842555Y-60323961D02*
X158937793Y-60419200D01*
X158937793Y-60419200D02*
X159128269Y-60514438D01*
X159128269Y-60514438D02*
X159509222Y-60514438D01*
X159509222Y-60514438D02*
X159699698Y-60419200D01*
X157604460Y-60514438D02*
X157794936Y-60419200D01*
X157794936Y-60419200D02*
X157890174Y-60323961D01*
X157890174Y-60323961D02*
X157985412Y-60133485D01*
X157985412Y-60133485D02*
X157985412Y-59562057D01*
X157985412Y-59562057D02*
X157890174Y-59371580D01*
X157890174Y-59371580D02*
X157794936Y-59276342D01*
X157794936Y-59276342D02*
X157604460Y-59181104D01*
X157604460Y-59181104D02*
X157318745Y-59181104D01*
X157318745Y-59181104D02*
X157128269Y-59276342D01*
X157128269Y-59276342D02*
X157033031Y-59371580D01*
X157033031Y-59371580D02*
X156937793Y-59562057D01*
X156937793Y-59562057D02*
X156937793Y-60133485D01*
X156937793Y-60133485D02*
X157033031Y-60323961D01*
X157033031Y-60323961D02*
X157128269Y-60419200D01*
X157128269Y-60419200D02*
X157318745Y-60514438D01*
X157318745Y-60514438D02*
X157604460Y-60514438D01*
X156366364Y-59181104D02*
X155604460Y-59181104D01*
X156080650Y-58514438D02*
X156080650Y-60228723D01*
X156080650Y-60228723D02*
X155985412Y-60419200D01*
X155985412Y-60419200D02*
X155794936Y-60514438D01*
X155794936Y-60514438D02*
X155604460Y-60514438D01*
X152271126Y-60323961D02*
X152366364Y-60419200D01*
X152366364Y-60419200D02*
X152652078Y-60514438D01*
X152652078Y-60514438D02*
X152842554Y-60514438D01*
X152842554Y-60514438D02*
X153128269Y-60419200D01*
X153128269Y-60419200D02*
X153318745Y-60228723D01*
X153318745Y-60228723D02*
X153413983Y-60038247D01*
X153413983Y-60038247D02*
X153509221Y-59657295D01*
X153509221Y-59657295D02*
X153509221Y-59371580D01*
X153509221Y-59371580D02*
X153413983Y-58990628D01*
X153413983Y-58990628D02*
X153318745Y-58800152D01*
X153318745Y-58800152D02*
X153128269Y-58609676D01*
X153128269Y-58609676D02*
X152842554Y-58514438D01*
X152842554Y-58514438D02*
X152652078Y-58514438D01*
X152652078Y-58514438D02*
X152366364Y-58609676D01*
X152366364Y-58609676D02*
X152271126Y-58704914D01*
X151413983Y-60514438D02*
X151413983Y-58514438D01*
X150556840Y-60514438D02*
X150556840Y-59466819D01*
X150556840Y-59466819D02*
X150652078Y-59276342D01*
X150652078Y-59276342D02*
X150842554Y-59181104D01*
X150842554Y-59181104D02*
X151128269Y-59181104D01*
X151128269Y-59181104D02*
X151318745Y-59276342D01*
X151318745Y-59276342D02*
X151413983Y-59371580D01*
X148747316Y-60514438D02*
X148747316Y-59466819D01*
X148747316Y-59466819D02*
X148842554Y-59276342D01*
X148842554Y-59276342D02*
X149033030Y-59181104D01*
X149033030Y-59181104D02*
X149413983Y-59181104D01*
X149413983Y-59181104D02*
X149604459Y-59276342D01*
X148747316Y-60419200D02*
X148937792Y-60514438D01*
X148937792Y-60514438D02*
X149413983Y-60514438D01*
X149413983Y-60514438D02*
X149604459Y-60419200D01*
X149604459Y-60419200D02*
X149699697Y-60228723D01*
X149699697Y-60228723D02*
X149699697Y-60038247D01*
X149699697Y-60038247D02*
X149604459Y-59847771D01*
X149604459Y-59847771D02*
X149413983Y-59752533D01*
X149413983Y-59752533D02*
X148937792Y-59752533D01*
X148937792Y-59752533D02*
X148747316Y-59657295D01*
X148080649Y-59181104D02*
X147318745Y-59181104D01*
X147794935Y-58514438D02*
X147794935Y-60228723D01*
X147794935Y-60228723D02*
X147699697Y-60419200D01*
X147699697Y-60419200D02*
X147509221Y-60514438D01*
X147509221Y-60514438D02*
X147318745Y-60514438D01*
X145223506Y-60419200D02*
X144937792Y-60514438D01*
X144937792Y-60514438D02*
X144461601Y-60514438D01*
X144461601Y-60514438D02*
X144271125Y-60419200D01*
X144271125Y-60419200D02*
X144175887Y-60323961D01*
X144175887Y-60323961D02*
X144080649Y-60133485D01*
X144080649Y-60133485D02*
X144080649Y-59943009D01*
X144080649Y-59943009D02*
X144175887Y-59752533D01*
X144175887Y-59752533D02*
X144271125Y-59657295D01*
X144271125Y-59657295D02*
X144461601Y-59562057D01*
X144461601Y-59562057D02*
X144842554Y-59466819D01*
X144842554Y-59466819D02*
X145033030Y-59371580D01*
X145033030Y-59371580D02*
X145128268Y-59276342D01*
X145128268Y-59276342D02*
X145223506Y-59085866D01*
X145223506Y-59085866D02*
X145223506Y-58895390D01*
X145223506Y-58895390D02*
X145128268Y-58704914D01*
X145128268Y-58704914D02*
X145033030Y-58609676D01*
X145033030Y-58609676D02*
X144842554Y-58514438D01*
X144842554Y-58514438D02*
X144366363Y-58514438D01*
X144366363Y-58514438D02*
X144080649Y-58609676D01*
X142937792Y-60514438D02*
X143128268Y-60419200D01*
X143128268Y-60419200D02*
X143223506Y-60323961D01*
X143223506Y-60323961D02*
X143318744Y-60133485D01*
X143318744Y-60133485D02*
X143318744Y-59562057D01*
X143318744Y-59562057D02*
X143223506Y-59371580D01*
X143223506Y-59371580D02*
X143128268Y-59276342D01*
X143128268Y-59276342D02*
X142937792Y-59181104D01*
X142937792Y-59181104D02*
X142652077Y-59181104D01*
X142652077Y-59181104D02*
X142461601Y-59276342D01*
X142461601Y-59276342D02*
X142366363Y-59371580D01*
X142366363Y-59371580D02*
X142271125Y-59562057D01*
X142271125Y-59562057D02*
X142271125Y-60133485D01*
X142271125Y-60133485D02*
X142366363Y-60323961D01*
X142366363Y-60323961D02*
X142461601Y-60419200D01*
X142461601Y-60419200D02*
X142652077Y-60514438D01*
X142652077Y-60514438D02*
X142937792Y-60514438D01*
X140556839Y-59181104D02*
X140556839Y-60514438D01*
X141413982Y-59181104D02*
X141413982Y-60228723D01*
X141413982Y-60228723D02*
X141318744Y-60419200D01*
X141318744Y-60419200D02*
X141128268Y-60514438D01*
X141128268Y-60514438D02*
X140842553Y-60514438D01*
X140842553Y-60514438D02*
X140652077Y-60419200D01*
X140652077Y-60419200D02*
X140556839Y-60323961D01*
X139604458Y-60514438D02*
X139604458Y-59181104D01*
X139604458Y-59562057D02*
X139509220Y-59371580D01*
X139509220Y-59371580D02*
X139413982Y-59276342D01*
X139413982Y-59276342D02*
X139223506Y-59181104D01*
X139223506Y-59181104D02*
X139033029Y-59181104D01*
X138366363Y-60514438D02*
X138366363Y-59181104D01*
X138366363Y-58514438D02*
X138461601Y-58609676D01*
X138461601Y-58609676D02*
X138366363Y-58704914D01*
X138366363Y-58704914D02*
X138271125Y-58609676D01*
X138271125Y-58609676D02*
X138366363Y-58514438D01*
X138366363Y-58514438D02*
X138366363Y-58704914D01*
X137509220Y-60419200D02*
X137318744Y-60514438D01*
X137318744Y-60514438D02*
X136937792Y-60514438D01*
X136937792Y-60514438D02*
X136747315Y-60419200D01*
X136747315Y-60419200D02*
X136652077Y-60228723D01*
X136652077Y-60228723D02*
X136652077Y-60133485D01*
X136652077Y-60133485D02*
X136747315Y-59943009D01*
X136747315Y-59943009D02*
X136937792Y-59847771D01*
X136937792Y-59847771D02*
X137223506Y-59847771D01*
X137223506Y-59847771D02*
X137413982Y-59752533D01*
X137413982Y-59752533D02*
X137509220Y-59562057D01*
X137509220Y-59562057D02*
X137509220Y-59466819D01*
X137509220Y-59466819D02*
X137413982Y-59276342D01*
X137413982Y-59276342D02*
X137223506Y-59181104D01*
X137223506Y-59181104D02*
X136937792Y-59181104D01*
X136937792Y-59181104D02*
X136747315Y-59276342D01*
X178080652Y-62686819D02*
X177413985Y-62686819D01*
X177128271Y-63734438D02*
X178080652Y-63734438D01*
X178080652Y-63734438D02*
X178080652Y-61734438D01*
X178080652Y-61734438D02*
X177128271Y-61734438D01*
X176271128Y-63734438D02*
X176271128Y-61734438D01*
X176271128Y-61734438D02*
X175128271Y-63734438D01*
X175128271Y-63734438D02*
X175128271Y-61734438D01*
X174271128Y-63639200D02*
X173985414Y-63734438D01*
X173985414Y-63734438D02*
X173509223Y-63734438D01*
X173509223Y-63734438D02*
X173318747Y-63639200D01*
X173318747Y-63639200D02*
X173223509Y-63543961D01*
X173223509Y-63543961D02*
X173128271Y-63353485D01*
X173128271Y-63353485D02*
X173128271Y-63163009D01*
X173128271Y-63163009D02*
X173223509Y-62972533D01*
X173223509Y-62972533D02*
X173318747Y-62877295D01*
X173318747Y-62877295D02*
X173509223Y-62782057D01*
X173509223Y-62782057D02*
X173890176Y-62686819D01*
X173890176Y-62686819D02*
X174080652Y-62591580D01*
X174080652Y-62591580D02*
X174175890Y-62496342D01*
X174175890Y-62496342D02*
X174271128Y-62305866D01*
X174271128Y-62305866D02*
X174271128Y-62115390D01*
X174271128Y-62115390D02*
X174175890Y-61924914D01*
X174175890Y-61924914D02*
X174080652Y-61829676D01*
X174080652Y-61829676D02*
X173890176Y-61734438D01*
X173890176Y-61734438D02*
X173413985Y-61734438D01*
X173413985Y-61734438D02*
X173128271Y-61829676D01*
X172271128Y-62686819D02*
X171604461Y-62686819D01*
X171318747Y-63734438D02*
X172271128Y-63734438D01*
X172271128Y-63734438D02*
X172271128Y-61734438D01*
X172271128Y-61734438D02*
X171318747Y-61734438D01*
X170556842Y-63163009D02*
X169604461Y-63163009D01*
X170747318Y-63734438D02*
X170080652Y-61734438D01*
X170080652Y-61734438D02*
X169413985Y-63734438D01*
X167413984Y-61734438D02*
X166175889Y-61734438D01*
X166175889Y-61734438D02*
X166842556Y-62496342D01*
X166842556Y-62496342D02*
X166556841Y-62496342D01*
X166556841Y-62496342D02*
X166366365Y-62591580D01*
X166366365Y-62591580D02*
X166271127Y-62686819D01*
X166271127Y-62686819D02*
X166175889Y-62877295D01*
X166175889Y-62877295D02*
X166175889Y-63353485D01*
X166175889Y-63353485D02*
X166271127Y-63543961D01*
X166271127Y-63543961D02*
X166366365Y-63639200D01*
X166366365Y-63639200D02*
X166556841Y-63734438D01*
X166556841Y-63734438D02*
X167128270Y-63734438D01*
X167128270Y-63734438D02*
X167318746Y-63639200D01*
X167318746Y-63639200D02*
X167413984Y-63543961D01*
X165413984Y-63163009D02*
X164461603Y-63163009D01*
X165604460Y-63734438D02*
X164937794Y-61734438D01*
X164937794Y-61734438D02*
X164271127Y-63734438D01*
X162080650Y-62686819D02*
X161413983Y-62686819D01*
X161128269Y-63734438D02*
X162080650Y-63734438D01*
X162080650Y-63734438D02*
X162080650Y-61734438D01*
X162080650Y-61734438D02*
X161128269Y-61734438D01*
X160366364Y-63639200D02*
X160080650Y-63734438D01*
X160080650Y-63734438D02*
X159604459Y-63734438D01*
X159604459Y-63734438D02*
X159413983Y-63639200D01*
X159413983Y-63639200D02*
X159318745Y-63543961D01*
X159318745Y-63543961D02*
X159223507Y-63353485D01*
X159223507Y-63353485D02*
X159223507Y-63163009D01*
X159223507Y-63163009D02*
X159318745Y-62972533D01*
X159318745Y-62972533D02*
X159413983Y-62877295D01*
X159413983Y-62877295D02*
X159604459Y-62782057D01*
X159604459Y-62782057D02*
X159985412Y-62686819D01*
X159985412Y-62686819D02*
X160175888Y-62591580D01*
X160175888Y-62591580D02*
X160271126Y-62496342D01*
X160271126Y-62496342D02*
X160366364Y-62305866D01*
X160366364Y-62305866D02*
X160366364Y-62115390D01*
X160366364Y-62115390D02*
X160271126Y-61924914D01*
X160271126Y-61924914D02*
X160175888Y-61829676D01*
X160175888Y-61829676D02*
X159985412Y-61734438D01*
X159985412Y-61734438D02*
X159509221Y-61734438D01*
X159509221Y-61734438D02*
X159223507Y-61829676D01*
X158366364Y-62686819D02*
X157699697Y-62686819D01*
X157413983Y-63734438D02*
X158366364Y-63734438D01*
X158366364Y-63734438D02*
X158366364Y-61734438D01*
X158366364Y-61734438D02*
X157413983Y-61734438D01*
X178175890Y-65144914D02*
X178080652Y-65049676D01*
X178080652Y-65049676D02*
X177890176Y-64954438D01*
X177890176Y-64954438D02*
X177413985Y-64954438D01*
X177413985Y-64954438D02*
X177223509Y-65049676D01*
X177223509Y-65049676D02*
X177128271Y-65144914D01*
X177128271Y-65144914D02*
X177033033Y-65335390D01*
X177033033Y-65335390D02*
X177033033Y-65525866D01*
X177033033Y-65525866D02*
X177128271Y-65811580D01*
X177128271Y-65811580D02*
X178271128Y-66954438D01*
X178271128Y-66954438D02*
X177033033Y-66954438D01*
X175794938Y-64954438D02*
X175604461Y-64954438D01*
X175604461Y-64954438D02*
X175413985Y-65049676D01*
X175413985Y-65049676D02*
X175318747Y-65144914D01*
X175318747Y-65144914D02*
X175223509Y-65335390D01*
X175223509Y-65335390D02*
X175128271Y-65716342D01*
X175128271Y-65716342D02*
X175128271Y-66192533D01*
X175128271Y-66192533D02*
X175223509Y-66573485D01*
X175223509Y-66573485D02*
X175318747Y-66763961D01*
X175318747Y-66763961D02*
X175413985Y-66859200D01*
X175413985Y-66859200D02*
X175604461Y-66954438D01*
X175604461Y-66954438D02*
X175794938Y-66954438D01*
X175794938Y-66954438D02*
X175985414Y-66859200D01*
X175985414Y-66859200D02*
X176080652Y-66763961D01*
X176080652Y-66763961D02*
X176175890Y-66573485D01*
X176175890Y-66573485D02*
X176271128Y-66192533D01*
X176271128Y-66192533D02*
X176271128Y-65716342D01*
X176271128Y-65716342D02*
X176175890Y-65335390D01*
X176175890Y-65335390D02*
X176080652Y-65144914D01*
X176080652Y-65144914D02*
X175985414Y-65049676D01*
X175985414Y-65049676D02*
X175794938Y-64954438D01*
X174366366Y-65144914D02*
X174271128Y-65049676D01*
X174271128Y-65049676D02*
X174080652Y-64954438D01*
X174080652Y-64954438D02*
X173604461Y-64954438D01*
X173604461Y-64954438D02*
X173413985Y-65049676D01*
X173413985Y-65049676D02*
X173318747Y-65144914D01*
X173318747Y-65144914D02*
X173223509Y-65335390D01*
X173223509Y-65335390D02*
X173223509Y-65525866D01*
X173223509Y-65525866D02*
X173318747Y-65811580D01*
X173318747Y-65811580D02*
X174461604Y-66954438D01*
X174461604Y-66954438D02*
X173223509Y-66954438D01*
X172556842Y-64954438D02*
X171318747Y-64954438D01*
X171318747Y-64954438D02*
X171985414Y-65716342D01*
X171985414Y-65716342D02*
X171699699Y-65716342D01*
X171699699Y-65716342D02*
X171509223Y-65811580D01*
X171509223Y-65811580D02*
X171413985Y-65906819D01*
X171413985Y-65906819D02*
X171318747Y-66097295D01*
X171318747Y-66097295D02*
X171318747Y-66573485D01*
X171318747Y-66573485D02*
X171413985Y-66763961D01*
X171413985Y-66763961D02*
X171509223Y-66859200D01*
X171509223Y-66859200D02*
X171699699Y-66954438D01*
X171699699Y-66954438D02*
X172271128Y-66954438D01*
X172271128Y-66954438D02*
X172461604Y-66859200D01*
X172461604Y-66859200D02*
X172556842Y-66763961D01*
X170461604Y-66192533D02*
X168937795Y-66192533D01*
X168080652Y-65144914D02*
X167985414Y-65049676D01*
X167985414Y-65049676D02*
X167794938Y-64954438D01*
X167794938Y-64954438D02*
X167318747Y-64954438D01*
X167318747Y-64954438D02*
X167128271Y-65049676D01*
X167128271Y-65049676D02*
X167033033Y-65144914D01*
X167033033Y-65144914D02*
X166937795Y-65335390D01*
X166937795Y-65335390D02*
X166937795Y-65525866D01*
X166937795Y-65525866D02*
X167033033Y-65811580D01*
X167033033Y-65811580D02*
X168175890Y-66954438D01*
X168175890Y-66954438D02*
X166937795Y-66954438D01*
X165699700Y-64954438D02*
X165509223Y-64954438D01*
X165509223Y-64954438D02*
X165318747Y-65049676D01*
X165318747Y-65049676D02*
X165223509Y-65144914D01*
X165223509Y-65144914D02*
X165128271Y-65335390D01*
X165128271Y-65335390D02*
X165033033Y-65716342D01*
X165033033Y-65716342D02*
X165033033Y-66192533D01*
X165033033Y-66192533D02*
X165128271Y-66573485D01*
X165128271Y-66573485D02*
X165223509Y-66763961D01*
X165223509Y-66763961D02*
X165318747Y-66859200D01*
X165318747Y-66859200D02*
X165509223Y-66954438D01*
X165509223Y-66954438D02*
X165699700Y-66954438D01*
X165699700Y-66954438D02*
X165890176Y-66859200D01*
X165890176Y-66859200D02*
X165985414Y-66763961D01*
X165985414Y-66763961D02*
X166080652Y-66573485D01*
X166080652Y-66573485D02*
X166175890Y-66192533D01*
X166175890Y-66192533D02*
X166175890Y-65716342D01*
X166175890Y-65716342D02*
X166080652Y-65335390D01*
X166080652Y-65335390D02*
X165985414Y-65144914D01*
X165985414Y-65144914D02*
X165890176Y-65049676D01*
X165890176Y-65049676D02*
X165699700Y-64954438D01*
X164271128Y-65144914D02*
X164175890Y-65049676D01*
X164175890Y-65049676D02*
X163985414Y-64954438D01*
X163985414Y-64954438D02*
X163509223Y-64954438D01*
X163509223Y-64954438D02*
X163318747Y-65049676D01*
X163318747Y-65049676D02*
X163223509Y-65144914D01*
X163223509Y-65144914D02*
X163128271Y-65335390D01*
X163128271Y-65335390D02*
X163128271Y-65525866D01*
X163128271Y-65525866D02*
X163223509Y-65811580D01*
X163223509Y-65811580D02*
X164366366Y-66954438D01*
X164366366Y-66954438D02*
X163128271Y-66954438D01*
X161413985Y-65621104D02*
X161413985Y-66954438D01*
X161890176Y-64859200D02*
X162366366Y-66287771D01*
X162366366Y-66287771D02*
X161128271Y-66287771D01*
%TO.C,G\u002A\u002A\u002A*%
G36*
X118571036Y-64117639D02*
G01*
X118571036Y-69104053D01*
X118117726Y-69104053D01*
X117664416Y-69104053D01*
X117664416Y-68277858D01*
X117664416Y-67451663D01*
X117072188Y-67451663D01*
X116479960Y-67451663D01*
X116479960Y-67612515D01*
X116479960Y-67773367D01*
X116860156Y-67773367D01*
X117240351Y-67773367D01*
X117240351Y-67919597D01*
X117240351Y-68065826D01*
X116889401Y-68065826D01*
X116538452Y-68065826D01*
X116538452Y-68219366D01*
X116538452Y-68372907D01*
X116889401Y-68372907D01*
X117240351Y-68372907D01*
X117240351Y-68577628D01*
X117240351Y-68782348D01*
X116860156Y-68782348D01*
X116479960Y-68782348D01*
X116479960Y-68943200D01*
X116479960Y-69104053D01*
X116187502Y-69104053D01*
X115895043Y-69104053D01*
X115895043Y-68277858D01*
X115895043Y-67451663D01*
X115642088Y-67451663D01*
X115389132Y-67451663D01*
X115090073Y-67920726D01*
X114791013Y-68389788D01*
X114787155Y-67920303D01*
X114783296Y-67450817D01*
X114589745Y-67454896D01*
X114396195Y-67458975D01*
X114392417Y-68281514D01*
X114388640Y-69104053D01*
X113975664Y-69103465D01*
X113562689Y-69102877D01*
X113697951Y-69058914D01*
X113833213Y-69014951D01*
X113833213Y-68810912D01*
X113832561Y-68736801D01*
X113829753Y-68664815D01*
X113824748Y-68621408D01*
X113817569Y-68606873D01*
X113808393Y-68609462D01*
X113778949Y-68624601D01*
X113740798Y-68648775D01*
X113657092Y-68700550D01*
X113504761Y-68769565D01*
X113345698Y-68811842D01*
X113183810Y-68826136D01*
X113091244Y-68822579D01*
X113014012Y-68810098D01*
X112955126Y-68787311D01*
X112909466Y-68752849D01*
X112895150Y-68736476D01*
X112871187Y-68684435D01*
X112873642Y-68631094D01*
X112901378Y-68581927D01*
X112953255Y-68542406D01*
X112971710Y-68534967D01*
X113017447Y-68520987D01*
X113078279Y-68505256D01*
X113146121Y-68489973D01*
X113213419Y-68475486D01*
X113354170Y-68441169D01*
X113470080Y-68405775D01*
X113564231Y-68367694D01*
X113639707Y-68325315D01*
X113699591Y-68277028D01*
X113746967Y-68221223D01*
X113784917Y-68156287D01*
X113801072Y-68120964D01*
X113816363Y-68074509D01*
X113823736Y-68023725D01*
X113825716Y-67956222D01*
X113824884Y-67904803D01*
X113819532Y-67851481D01*
X113807030Y-67805859D01*
X113784867Y-67755609D01*
X113779802Y-67745642D01*
X113716043Y-67654401D01*
X113628202Y-67575215D01*
X113519832Y-67511357D01*
X113444705Y-67479297D01*
X113368456Y-67455321D01*
X113287705Y-67440172D01*
X113194310Y-67432352D01*
X113080133Y-67430359D01*
X112995100Y-67431707D01*
X112898722Y-67437538D01*
X112809847Y-67449510D01*
X112716959Y-67469286D01*
X112608544Y-67498532D01*
X112502528Y-67529038D01*
X112502528Y-67724317D01*
X112502585Y-67742790D01*
X112503908Y-67812108D01*
X112506717Y-67868253D01*
X112510658Y-67905868D01*
X112515379Y-67919597D01*
X112533286Y-67912685D01*
X112568485Y-67894288D01*
X112613203Y-67868429D01*
X112686916Y-67827497D01*
X112830040Y-67768600D01*
X112974142Y-67737250D01*
X113122676Y-67732527D01*
X113191276Y-67739621D01*
X113276062Y-67760738D01*
X113339742Y-67793362D01*
X113379920Y-67836125D01*
X113394200Y-67887656D01*
X113393217Y-67907246D01*
X113382546Y-67942924D01*
X113357751Y-67973247D01*
X113315836Y-67999872D01*
X113253807Y-68024459D01*
X113168669Y-68048664D01*
X113057428Y-68074147D01*
X112903824Y-68111125D01*
X112769315Y-68154146D01*
X112660402Y-68202933D01*
X112575289Y-68258966D01*
X112512180Y-68323723D01*
X112469277Y-68398684D01*
X112444786Y-68485328D01*
X112436909Y-68585134D01*
X112436908Y-68586226D01*
X112438412Y-68650930D01*
X112445057Y-68699689D01*
X112459770Y-68745540D01*
X112485475Y-68801520D01*
X112500240Y-68829923D01*
X112540341Y-68891661D01*
X112589359Y-68944219D01*
X112652188Y-68991541D01*
X112733722Y-69037570D01*
X112838855Y-69086250D01*
X112839738Y-69086653D01*
X112841183Y-69091142D01*
X112823985Y-69094804D01*
X112786376Y-69097706D01*
X112726591Y-69099916D01*
X112642863Y-69101501D01*
X112533425Y-69102527D01*
X112396511Y-69103063D01*
X111917611Y-69104053D01*
X111917611Y-68277694D01*
X111917611Y-67451335D01*
X111321727Y-67455155D01*
X110725844Y-67458975D01*
X110721693Y-67616171D01*
X110717543Y-67773367D01*
X111106074Y-67773367D01*
X111494606Y-67773367D01*
X111490420Y-67915941D01*
X111486235Y-68058514D01*
X111131629Y-68062430D01*
X110777024Y-68066346D01*
X110777024Y-68219626D01*
X110777024Y-68372907D01*
X111135285Y-68372907D01*
X111493547Y-68372907D01*
X111493547Y-68577628D01*
X111493547Y-68782348D01*
X111106039Y-68782348D01*
X110718532Y-68782348D01*
X110718532Y-68943200D01*
X110718532Y-69104053D01*
X110522968Y-69104053D01*
X110327403Y-69104053D01*
X110245016Y-68881053D01*
X110237277Y-68860109D01*
X110210613Y-68787944D01*
X110176011Y-68694305D01*
X110135067Y-68583505D01*
X110089373Y-68459860D01*
X110040526Y-68327682D01*
X109990119Y-68191286D01*
X109939745Y-68054986D01*
X109716863Y-67451919D01*
X109473359Y-67451791D01*
X109229856Y-67451663D01*
X109215412Y-67491876D01*
X109204989Y-67520694D01*
X109182087Y-67583396D01*
X109152176Y-67664796D01*
X109116397Y-67761819D01*
X109075896Y-67871389D01*
X109031815Y-67990433D01*
X108985297Y-68115873D01*
X108937488Y-68244635D01*
X108889529Y-68373644D01*
X108842564Y-68499825D01*
X108797738Y-68620101D01*
X108756192Y-68731398D01*
X108719072Y-68830641D01*
X108687520Y-68914754D01*
X108662679Y-68980661D01*
X108645694Y-69025289D01*
X108637707Y-69045561D01*
X108637022Y-69047037D01*
X108634050Y-69050967D01*
X108631354Y-69049239D01*
X108628922Y-69040543D01*
X108626737Y-69023569D01*
X108624787Y-68997006D01*
X108623057Y-68959544D01*
X108621532Y-68909871D01*
X108620198Y-68846678D01*
X108619041Y-68768655D01*
X108618046Y-68674490D01*
X108617199Y-68562873D01*
X108616485Y-68432495D01*
X108615891Y-68282043D01*
X108615402Y-68110209D01*
X108615003Y-67915681D01*
X108614680Y-67697149D01*
X108614419Y-67453303D01*
X108614206Y-67182831D01*
X108614026Y-66884425D01*
X108612833Y-64672108D01*
X108770029Y-64752571D01*
X108818636Y-64777761D01*
X108903849Y-64823677D01*
X108973471Y-64863627D01*
X109024801Y-64895958D01*
X109055136Y-64919015D01*
X109061772Y-64931144D01*
X109049205Y-64932102D01*
X109022274Y-64921899D01*
X109000429Y-64912178D01*
X108985167Y-64910263D01*
X108989504Y-64914635D01*
X109014653Y-64931343D01*
X109058484Y-64958045D01*
X109116874Y-64992249D01*
X109185702Y-65031463D01*
X109234035Y-65059102D01*
X109294217Y-65095001D01*
X109340192Y-65124275D01*
X109368141Y-65144459D01*
X109374243Y-65153089D01*
X109357870Y-65150230D01*
X109323563Y-65134580D01*
X109280977Y-65109411D01*
X109271964Y-65103583D01*
X109213699Y-65068236D01*
X109166971Y-65043906D01*
X109135907Y-65032530D01*
X109124635Y-65036043D01*
X109125163Y-65038034D01*
X109140688Y-65053949D01*
X109171025Y-65074604D01*
X109182484Y-65081749D01*
X109226518Y-65113123D01*
X109269730Y-65148337D01*
X109271877Y-65150198D01*
X109306864Y-65176331D01*
X109362328Y-65213460D01*
X109433577Y-65258767D01*
X109515917Y-65309435D01*
X109604656Y-65362647D01*
X109695101Y-65415585D01*
X109782561Y-65465432D01*
X109862341Y-65509372D01*
X109929750Y-65544586D01*
X109935396Y-65547409D01*
X110033711Y-65594748D01*
X110150374Y-65648160D01*
X110279792Y-65705309D01*
X110416372Y-65763862D01*
X110554524Y-65821484D01*
X110688653Y-65875841D01*
X110813169Y-65924597D01*
X110922479Y-65965418D01*
X111010990Y-65995970D01*
X111026056Y-66000819D01*
X111107813Y-66026284D01*
X111187173Y-66049238D01*
X111267281Y-66070269D01*
X111351283Y-66089968D01*
X111442321Y-66108925D01*
X111543541Y-66127730D01*
X111658088Y-66146972D01*
X111789106Y-66167242D01*
X111939739Y-66189129D01*
X112113132Y-66213223D01*
X112312430Y-66240115D01*
X112321799Y-66241376D01*
X112380841Y-66250142D01*
X112413296Y-66257032D01*
X112421422Y-66262704D01*
X112407479Y-66267816D01*
X112363610Y-66276964D01*
X112414790Y-66286092D01*
X112416530Y-66286400D01*
X112484717Y-66296233D01*
X112573600Y-66305941D01*
X112674897Y-66314866D01*
X112780327Y-66322347D01*
X112881608Y-66327725D01*
X112970461Y-66330342D01*
X113129010Y-66325076D01*
X113322951Y-66302766D01*
X113524234Y-66264815D01*
X113724953Y-66213021D01*
X113917203Y-66149183D01*
X114093078Y-66075096D01*
X114127919Y-66057767D01*
X114195466Y-66017875D01*
X114258985Y-65969395D01*
X114328999Y-65904727D01*
X114353987Y-65879943D01*
X114472554Y-65752347D01*
X114569234Y-65627671D01*
X114645638Y-65501603D01*
X114703380Y-65369831D01*
X114744073Y-65228046D01*
X114769331Y-65071934D01*
X114780766Y-64897187D01*
X114779992Y-64699491D01*
X114775339Y-64593748D01*
X114765397Y-64485952D01*
X114748676Y-64390450D01*
X114723028Y-64298070D01*
X114686305Y-64199636D01*
X114636359Y-64085976D01*
X114621078Y-64051353D01*
X114599941Y-63997022D01*
X114587217Y-63955072D01*
X114585207Y-63932409D01*
X114587253Y-63917230D01*
X114576518Y-63888016D01*
X114566749Y-63869397D01*
X114579922Y-63853834D01*
X114585940Y-63847592D01*
X114583741Y-63831838D01*
X114564734Y-63805254D01*
X114526379Y-63763556D01*
X114485905Y-63719594D01*
X114432049Y-63656968D01*
X114385259Y-63598526D01*
X114346331Y-63550139D01*
X114296669Y-63493702D01*
X114252173Y-63448041D01*
X114223831Y-63420223D01*
X114177324Y-63371037D01*
X114139819Y-63327402D01*
X114093968Y-63269510D01*
X114232565Y-63269510D01*
X114402701Y-63265024D01*
X114579223Y-63247958D01*
X114742199Y-63216801D01*
X114898777Y-63170139D01*
X115056104Y-63106558D01*
X115077877Y-63096645D01*
X115145865Y-63064267D01*
X115196762Y-63036057D01*
X115238489Y-63006616D01*
X115278966Y-62970543D01*
X115326114Y-62922435D01*
X115419019Y-62816460D01*
X115524122Y-62666448D01*
X115600786Y-62512728D01*
X115649478Y-62353642D01*
X115670659Y-62187533D01*
X115664794Y-62012742D01*
X115632347Y-61827612D01*
X115608482Y-61742524D01*
X115564525Y-61617668D01*
X115508722Y-61482086D01*
X115444374Y-61342839D01*
X115374783Y-61206987D01*
X115303251Y-61081592D01*
X115233077Y-60973713D01*
X115157066Y-60870970D01*
X114994344Y-60674925D01*
X114808198Y-60476972D01*
X114601981Y-60279955D01*
X114379046Y-60086719D01*
X114142749Y-59900106D01*
X113896441Y-59722961D01*
X113643479Y-59558128D01*
X113387214Y-59408451D01*
X113344476Y-59384932D01*
X113260023Y-59338316D01*
X113178574Y-59293195D01*
X113107676Y-59253754D01*
X113054878Y-59224179D01*
X113032574Y-59211799D01*
X112982491Y-59185485D01*
X112943737Y-59167175D01*
X112923272Y-59160248D01*
X112911883Y-59158456D01*
X112882723Y-59145849D01*
X112884015Y-59145065D01*
X112907681Y-59143265D01*
X112960131Y-59141584D01*
X113041038Y-59140027D01*
X113150077Y-59138593D01*
X113286921Y-59137286D01*
X113451244Y-59136105D01*
X113642719Y-59135054D01*
X113861020Y-59134134D01*
X114105822Y-59133346D01*
X114376798Y-59132692D01*
X114673621Y-59132173D01*
X114995965Y-59131793D01*
X115343504Y-59131551D01*
X115715913Y-59131450D01*
X118571036Y-59131226D01*
X118571036Y-64117639D01*
G37*
G36*
X115495140Y-67994175D02*
G01*
X115496309Y-68011996D01*
X115497380Y-68055356D01*
X115498324Y-68121132D01*
X115499111Y-68206202D01*
X115499710Y-68307443D01*
X115500091Y-68421731D01*
X115500225Y-68545945D01*
X115500225Y-69104053D01*
X115156586Y-69104053D01*
X115094384Y-69103950D01*
X115003836Y-69103405D01*
X114926380Y-69102453D01*
X114866054Y-69101166D01*
X114826898Y-69099618D01*
X114812948Y-69097880D01*
X114813100Y-69097486D01*
X114822519Y-69081268D01*
X114845205Y-69043704D01*
X114879264Y-68987860D01*
X114922801Y-68916805D01*
X114973922Y-68833603D01*
X115030732Y-68741323D01*
X115091336Y-68643032D01*
X115153840Y-68541796D01*
X115216349Y-68440682D01*
X115276969Y-68342757D01*
X115333805Y-68251088D01*
X115384962Y-68168743D01*
X115428546Y-68098787D01*
X115462663Y-68044289D01*
X115485417Y-68008314D01*
X115494914Y-67993930D01*
X115495140Y-67994175D01*
G37*
G36*
X109670481Y-68770153D02*
G01*
X109729932Y-68770857D01*
X109768764Y-68772179D01*
X109782666Y-68774078D01*
X109786963Y-68788748D01*
X109799291Y-68825552D01*
X109817712Y-68878712D01*
X109840281Y-68942538D01*
X109897897Y-69104053D01*
X109481034Y-69104053D01*
X109064172Y-69104053D01*
X109074530Y-69071151D01*
X109078110Y-69060279D01*
X109091408Y-69021754D01*
X109110444Y-68967843D01*
X109132369Y-68906643D01*
X109179851Y-68775037D01*
X109481258Y-68771085D01*
X109506967Y-68770773D01*
X109594723Y-68770110D01*
X109670481Y-68770153D01*
G37*
G36*
X109482660Y-67923686D02*
G01*
X109496908Y-67955254D01*
X109516779Y-68004985D01*
X109540533Y-68067942D01*
X109566430Y-68139189D01*
X109592731Y-68213788D01*
X109617698Y-68286804D01*
X109639589Y-68353300D01*
X109656667Y-68408339D01*
X109667191Y-68446985D01*
X109669422Y-68464300D01*
X109658955Y-68467662D01*
X109625178Y-68471003D01*
X109574549Y-68473368D01*
X109513650Y-68474735D01*
X109449064Y-68475078D01*
X109387372Y-68474372D01*
X109335157Y-68472595D01*
X109299001Y-68469720D01*
X109285487Y-68465724D01*
X109286637Y-68459999D01*
X109295402Y-68430498D01*
X109311273Y-68381423D01*
X109332432Y-68318031D01*
X109357060Y-68245579D01*
X109383340Y-68169325D01*
X109409455Y-68094526D01*
X109433586Y-68026441D01*
X109453915Y-67970326D01*
X109468625Y-67931438D01*
X109475897Y-67915036D01*
X109482660Y-67923686D01*
G37*
G36*
X112655301Y-66271555D02*
G01*
X112715657Y-66275405D01*
X112758429Y-66280991D01*
X112764768Y-66282311D01*
X112789804Y-66288180D01*
X112792544Y-66291434D01*
X112770672Y-66292844D01*
X112721871Y-66293185D01*
X112679383Y-66292408D01*
X112605029Y-66288501D01*
X112539085Y-66282393D01*
X112451347Y-66271507D01*
X112575642Y-66270200D01*
X112589005Y-66270129D01*
X112655301Y-66271555D01*
G37*
G36*
X114417223Y-65685306D02*
G01*
X114402126Y-65709168D01*
X114372292Y-65745126D01*
X114332731Y-65786991D01*
X114318375Y-65801240D01*
X114271093Y-65845861D01*
X114242373Y-65868376D01*
X114232325Y-65868712D01*
X114241061Y-65846799D01*
X114254161Y-65828032D01*
X114281691Y-65796490D01*
X114316364Y-65761051D01*
X114352761Y-65726772D01*
X114385465Y-65698711D01*
X114409060Y-65681926D01*
X114418129Y-65681474D01*
X114417223Y-65685306D01*
G37*
G36*
X110785279Y-59131238D02*
G01*
X111022785Y-59131286D01*
X111234564Y-59131395D01*
X111422210Y-59131590D01*
X111587318Y-59131895D01*
X111731484Y-59132335D01*
X111856302Y-59132934D01*
X111963367Y-59133717D01*
X112054275Y-59134708D01*
X112130620Y-59135933D01*
X112193998Y-59137416D01*
X112246003Y-59139181D01*
X112288231Y-59141253D01*
X112322276Y-59143657D01*
X112349734Y-59146417D01*
X112372200Y-59149558D01*
X112391269Y-59153105D01*
X112408535Y-59157081D01*
X112425594Y-59161512D01*
X112425696Y-59161540D01*
X112478977Y-59179217D01*
X112553901Y-59209098D01*
X112646424Y-59249419D01*
X112752505Y-59298420D01*
X112868100Y-59354340D01*
X113041460Y-59444052D01*
X113338032Y-59615646D01*
X113630518Y-59807141D01*
X113910913Y-60013476D01*
X113960526Y-60052812D01*
X114058743Y-60133704D01*
X114159638Y-60220230D01*
X114258911Y-60308467D01*
X114352260Y-60394492D01*
X114435388Y-60474379D01*
X114503992Y-60544207D01*
X114553774Y-60600052D01*
X114564784Y-60613485D01*
X114611755Y-60670595D01*
X114657222Y-60725614D01*
X114692692Y-60768259D01*
X114751728Y-60840246D01*
X114819353Y-60926567D01*
X114877371Y-61005009D01*
X114922416Y-61070994D01*
X114951124Y-61119942D01*
X114957981Y-61134390D01*
X114978803Y-61181853D01*
X115005971Y-61246867D01*
X115036737Y-61322794D01*
X115068352Y-61402995D01*
X115095102Y-61473326D01*
X115124609Y-61557557D01*
X115145407Y-61628559D01*
X115159703Y-61694151D01*
X115169701Y-61762146D01*
X115177849Y-61845174D01*
X115179064Y-61914068D01*
X115171341Y-61966105D01*
X115153732Y-62007292D01*
X115125290Y-62043635D01*
X115092083Y-62071778D01*
X115029286Y-62111231D01*
X114950931Y-62150999D01*
X114864363Y-62187744D01*
X114776926Y-62218126D01*
X114695965Y-62238807D01*
X114652617Y-62247815D01*
X114583318Y-62266169D01*
X114539208Y-62285306D01*
X114517572Y-62306623D01*
X114515696Y-62331515D01*
X114516786Y-62349178D01*
X114505601Y-62370365D01*
X114502947Y-62371242D01*
X114476390Y-62374597D01*
X114425519Y-62378447D01*
X114354122Y-62382585D01*
X114265990Y-62386808D01*
X114164910Y-62390911D01*
X114054673Y-62394690D01*
X113905245Y-62398740D01*
X113766809Y-62400806D01*
X113648880Y-62400299D01*
X113546955Y-62397070D01*
X113456530Y-62390970D01*
X113373101Y-62381851D01*
X113292165Y-62369565D01*
X113290733Y-62369320D01*
X113259446Y-62364982D01*
X113252789Y-62368560D01*
X113266881Y-62381955D01*
X113272591Y-62385959D01*
X113308341Y-62401604D01*
X113353335Y-62412802D01*
X113378371Y-62417609D01*
X113400261Y-62426817D01*
X113397688Y-62438690D01*
X113395474Y-62440570D01*
X113373928Y-62446764D01*
X113333484Y-62445538D01*
X113269464Y-62436824D01*
X113209396Y-62425520D01*
X113162989Y-62410662D01*
X113121441Y-62387361D01*
X113072303Y-62350146D01*
X113049570Y-62332906D01*
X113000296Y-62298608D01*
X112937125Y-62256907D01*
X112864324Y-62210397D01*
X112786163Y-62161671D01*
X112706909Y-62113324D01*
X112630831Y-62067951D01*
X112562198Y-62028145D01*
X112505277Y-61996500D01*
X112464337Y-61975611D01*
X112443646Y-61968071D01*
X112423086Y-61961399D01*
X112385818Y-61941905D01*
X112341342Y-61914080D01*
X112298895Y-61887203D01*
X112236976Y-61850512D01*
X112165560Y-61809931D01*
X112093086Y-61770348D01*
X112028262Y-61735684D01*
X111944732Y-61690863D01*
X111865220Y-61648050D01*
X111800628Y-61613108D01*
X111769920Y-61596933D01*
X111708338Y-61566355D01*
X111638408Y-61533317D01*
X111565090Y-61499978D01*
X111493342Y-61468499D01*
X111428124Y-61441038D01*
X111374395Y-61419755D01*
X111337113Y-61406809D01*
X111321238Y-61404360D01*
X111322523Y-61406975D01*
X111341911Y-61420528D01*
X111379543Y-61442130D01*
X111429886Y-61468513D01*
X111440735Y-61474113D01*
X111504429Y-61511037D01*
X111564962Y-61551915D01*
X111610530Y-61588880D01*
X111619035Y-61596953D01*
X111649652Y-61626547D01*
X111660178Y-61638954D01*
X111651662Y-61636518D01*
X111625153Y-61621583D01*
X111554117Y-61580717D01*
X111463533Y-61529773D01*
X111385590Y-61487332D01*
X111323392Y-61455038D01*
X111280043Y-61434535D01*
X111258649Y-61427468D01*
X111249132Y-61431312D01*
X111264990Y-61443799D01*
X111281661Y-61457787D01*
X111274663Y-61470608D01*
X111271295Y-61473907D01*
X111278375Y-61490533D01*
X111313121Y-61515952D01*
X111316422Y-61518027D01*
X111351473Y-61542688D01*
X111401694Y-61580858D01*
X111460871Y-61627721D01*
X111522792Y-61678459D01*
X111555514Y-61704866D01*
X111632636Y-61763035D01*
X111721998Y-61826513D01*
X111814987Y-61889256D01*
X111902988Y-61945220D01*
X111949365Y-61973681D01*
X112041724Y-62030757D01*
X112135162Y-62088937D01*
X112220984Y-62142799D01*
X112290495Y-62186919D01*
X112298468Y-62192026D01*
X112360768Y-62232186D01*
X112400902Y-62259129D01*
X112421160Y-62275074D01*
X112423828Y-62282241D01*
X112411193Y-62282848D01*
X112385544Y-62279114D01*
X112350929Y-62274147D01*
X112290050Y-62270662D01*
X112226531Y-62275690D01*
X112147885Y-62289793D01*
X112110498Y-62296546D01*
X112064836Y-62299703D01*
X112015553Y-62295194D01*
X111950476Y-62282574D01*
X111946271Y-62281646D01*
X111882462Y-62265495D01*
X111822441Y-62247049D01*
X111778693Y-62230121D01*
X111748410Y-62217957D01*
X111693101Y-62199300D01*
X111624840Y-62178628D01*
X111552038Y-62158593D01*
X111510092Y-62147550D01*
X111409378Y-62119719D01*
X111335643Y-62096979D01*
X111287614Y-62078918D01*
X111264021Y-62065124D01*
X111255291Y-62058808D01*
X111221341Y-62040859D01*
X111169866Y-62017325D01*
X111107339Y-61991101D01*
X111040236Y-61965081D01*
X110999472Y-61949132D01*
X110944542Y-61925834D01*
X110889234Y-61900860D01*
X110839004Y-61876835D01*
X110799311Y-61856385D01*
X110775613Y-61842134D01*
X110773368Y-61836709D01*
X110780058Y-61835673D01*
X110791647Y-61822894D01*
X110784357Y-61816360D01*
X110755075Y-61806973D01*
X110711027Y-61799251D01*
X110677842Y-61794136D01*
X110640451Y-61785352D01*
X110622825Y-61776908D01*
X110609896Y-61769498D01*
X110575130Y-61758390D01*
X110527613Y-61747399D01*
X110487227Y-61738250D01*
X110449671Y-61726834D01*
X110432166Y-61717509D01*
X110422214Y-61710275D01*
X110394035Y-61704859D01*
X110390979Y-61704732D01*
X110356624Y-61695542D01*
X110317453Y-61676262D01*
X110287914Y-61660249D01*
X110223664Y-61639464D01*
X110165140Y-61638325D01*
X110119641Y-61657525D01*
X110084482Y-61685994D01*
X110123998Y-61753422D01*
X110150160Y-61793118D01*
X110185133Y-61832534D01*
X110231034Y-61870460D01*
X110293182Y-61911226D01*
X110376901Y-61959160D01*
X110478468Y-62015730D01*
X110587468Y-62077729D01*
X110695033Y-62140068D01*
X110795087Y-62199190D01*
X110881553Y-62251539D01*
X110948356Y-62293561D01*
X111001815Y-62327434D01*
X111073892Y-62370059D01*
X111149341Y-62410677D01*
X111232224Y-62451162D01*
X111326603Y-62493390D01*
X111436542Y-62539234D01*
X111566103Y-62590569D01*
X111719349Y-62649270D01*
X111720406Y-62649670D01*
X111815830Y-62685043D01*
X111886863Y-62709573D01*
X111935951Y-62723977D01*
X111965538Y-62728973D01*
X111978069Y-62725281D01*
X111981426Y-62714321D01*
X111973476Y-62688740D01*
X111968834Y-62682756D01*
X111965259Y-62670377D01*
X111981972Y-62673737D01*
X112016226Y-62691794D01*
X112065271Y-62723507D01*
X112103245Y-62747530D01*
X112157353Y-62776476D01*
X112202174Y-62794899D01*
X112203228Y-62795219D01*
X112261838Y-62816161D01*
X112324748Y-62843528D01*
X112383977Y-62873312D01*
X112431544Y-62901505D01*
X112459469Y-62924101D01*
X112460178Y-62924929D01*
X112497343Y-62946847D01*
X112561949Y-62959061D01*
X112591427Y-62963244D01*
X112641007Y-62976231D01*
X112675138Y-62992805D01*
X112688449Y-63002019D01*
X112749444Y-63030869D01*
X112839431Y-63059568D01*
X112958216Y-63088060D01*
X113105607Y-63116290D01*
X113134130Y-63121337D01*
X113214627Y-63136522D01*
X113287410Y-63151541D01*
X113345427Y-63164890D01*
X113381625Y-63175069D01*
X113394835Y-63179472D01*
X113440757Y-63191547D01*
X113475935Y-63196396D01*
X113487445Y-63198606D01*
X113517926Y-63218444D01*
X113557340Y-63259854D01*
X113606638Y-63324026D01*
X113666768Y-63412149D01*
X113738681Y-63525411D01*
X113773695Y-63582716D01*
X113841105Y-63699909D01*
X113892887Y-63803781D01*
X113930992Y-63900854D01*
X113957369Y-63997650D01*
X113973967Y-64100692D01*
X113982736Y-64216504D01*
X113985625Y-64351606D01*
X113985246Y-64432573D01*
X113980947Y-64538903D01*
X113970587Y-64627222D01*
X113952407Y-64704264D01*
X113924652Y-64776764D01*
X113885562Y-64851456D01*
X113833383Y-64935073D01*
X113788918Y-65000834D01*
X113730120Y-65078524D01*
X113672728Y-65139654D01*
X113610150Y-65190088D01*
X113535798Y-65235690D01*
X113443081Y-65282321D01*
X113417251Y-65294430D01*
X113327960Y-65334623D01*
X113247132Y-65367363D01*
X113168514Y-65394460D01*
X113085855Y-65417725D01*
X112992903Y-65438965D01*
X112883408Y-65459992D01*
X112751117Y-65482615D01*
X112673724Y-65495384D01*
X112573197Y-65511858D01*
X112493802Y-65524363D01*
X112430807Y-65533290D01*
X112379481Y-65539026D01*
X112335095Y-65541960D01*
X112292917Y-65542481D01*
X112248217Y-65540978D01*
X112196264Y-65537838D01*
X112132328Y-65533451D01*
X112051123Y-65528290D01*
X111972543Y-65524568D01*
X111922599Y-65524153D01*
X111901049Y-65527087D01*
X111907651Y-65533414D01*
X111942161Y-65543177D01*
X112004338Y-65556420D01*
X112035127Y-65561829D01*
X112126334Y-65572988D01*
X112232753Y-65580941D01*
X112345564Y-65585421D01*
X112455944Y-65586163D01*
X112555075Y-65582902D01*
X112634134Y-65575373D01*
X112674205Y-65571193D01*
X112698231Y-65573288D01*
X112696465Y-65581236D01*
X112669895Y-65592943D01*
X112619511Y-65606318D01*
X112592849Y-65610984D01*
X112517764Y-65617939D01*
X112420347Y-65621238D01*
X112305100Y-65621074D01*
X112176521Y-65617638D01*
X112039110Y-65611123D01*
X111897367Y-65601721D01*
X111755791Y-65589624D01*
X111618884Y-65575025D01*
X111491143Y-65558116D01*
X111372293Y-65537594D01*
X111137294Y-65481437D01*
X110894007Y-65403878D01*
X110885091Y-65400694D01*
X110803209Y-65371645D01*
X110706475Y-65337585D01*
X110606229Y-65302497D01*
X110513811Y-65270363D01*
X110494452Y-65263637D01*
X110335648Y-65206244D01*
X110193289Y-65150066D01*
X110056466Y-65090609D01*
X109914272Y-65023379D01*
X109880188Y-65007065D01*
X109806701Y-64973724D01*
X109736244Y-64943832D01*
X109680305Y-64922352D01*
X109630850Y-64904100D01*
X109591853Y-64887798D01*
X109572157Y-64877120D01*
X109551870Y-64871080D01*
X109517561Y-64873291D01*
X109475109Y-64872752D01*
X109420988Y-64855703D01*
X109406964Y-64849069D01*
X109363310Y-64828262D01*
X109302542Y-64799181D01*
X109230714Y-64764726D01*
X109153880Y-64727795D01*
X109133497Y-64717993D01*
X109041227Y-64673710D01*
X108944200Y-64627269D01*
X108852783Y-64583624D01*
X108777340Y-64547734D01*
X108612833Y-64469693D01*
X108612833Y-61800459D01*
X108612833Y-59131226D01*
X110462468Y-59131226D01*
X110520449Y-59131226D01*
X110785279Y-59131238D01*
G37*
G36*
X114660625Y-64930243D02*
G01*
X114664390Y-64958965D01*
X114661141Y-65015765D01*
X114635102Y-65156611D01*
X114584505Y-65304157D01*
X114513733Y-65440883D01*
X114503403Y-65457340D01*
X114470925Y-65507163D01*
X114448270Y-65538837D01*
X114436894Y-65550721D01*
X114438248Y-65541173D01*
X114453788Y-65508554D01*
X114465867Y-65481408D01*
X114486299Y-65428703D01*
X114511126Y-65360214D01*
X114538092Y-65282576D01*
X114564939Y-65202425D01*
X114589413Y-65126396D01*
X114609255Y-65061125D01*
X114622210Y-65013247D01*
X114638013Y-64957418D01*
X114651335Y-64929695D01*
X114660625Y-64930243D01*
G37*
G36*
X108802673Y-64607378D02*
G01*
X108833940Y-64623266D01*
X108896276Y-64656430D01*
X108945406Y-64684639D01*
X108976951Y-64705310D01*
X108986533Y-64715859D01*
X108989069Y-64720465D01*
X109011697Y-64737338D01*
X109053840Y-64763224D01*
X109111250Y-64795573D01*
X109179677Y-64831832D01*
X109211986Y-64848527D01*
X109284708Y-64886444D01*
X109349623Y-64920734D01*
X109400653Y-64948171D01*
X109431716Y-64965532D01*
X109450831Y-64976193D01*
X109495259Y-64999477D01*
X109555043Y-65029841D01*
X109625573Y-65065038D01*
X109702239Y-65102824D01*
X109780429Y-65140956D01*
X109855534Y-65177188D01*
X109922944Y-65209275D01*
X109978048Y-65234974D01*
X110016236Y-65252039D01*
X110032898Y-65258226D01*
X110035751Y-65258576D01*
X110045878Y-65272487D01*
X110042477Y-65278164D01*
X110020685Y-65276252D01*
X109977408Y-65259475D01*
X109911114Y-65227318D01*
X109894122Y-65219145D01*
X109842593Y-65196864D01*
X109778165Y-65171156D01*
X109710877Y-65146094D01*
X109676772Y-65133587D01*
X109614106Y-65109089D01*
X109561627Y-65086700D01*
X109528091Y-65070062D01*
X109521471Y-65066312D01*
X109481221Y-65046284D01*
X109426068Y-65021417D01*
X109365913Y-64996221D01*
X109346894Y-64988295D01*
X109289250Y-64962720D01*
X109213633Y-64927781D01*
X109125602Y-64886098D01*
X109030717Y-64840290D01*
X108934537Y-64792976D01*
X108620144Y-64636753D01*
X108615621Y-64574066D01*
X108611098Y-64511380D01*
X108802673Y-64607378D01*
G37*
G36*
X112136955Y-61902268D02*
G01*
X112129643Y-61909579D01*
X112122332Y-61902268D01*
X112129643Y-61894956D01*
X112136955Y-61902268D01*
G37*
G36*
X112086620Y-61866369D02*
G01*
X112100397Y-61880333D01*
X112103121Y-61885511D01*
X112102123Y-61894956D01*
X112099552Y-61894298D01*
X112085775Y-61880333D01*
X112083051Y-61875156D01*
X112084049Y-61865711D01*
X112086620Y-61866369D01*
G37*
G36*
X112063840Y-61858399D02*
G01*
X112056529Y-61865711D01*
X112049217Y-61858399D01*
X112056529Y-61851088D01*
X112063840Y-61858399D01*
G37*
G36*
X112013505Y-61822500D02*
G01*
X112027283Y-61836465D01*
X112030007Y-61841642D01*
X112029009Y-61851088D01*
X112026438Y-61850430D01*
X112012660Y-61836465D01*
X112009936Y-61831287D01*
X112010934Y-61821842D01*
X112013505Y-61822500D01*
G37*
G36*
X111990726Y-61814530D02*
G01*
X111983414Y-61821842D01*
X111976103Y-61814530D01*
X111983414Y-61807219D01*
X111990726Y-61814530D01*
G37*
%TO.C,G1*%
G36*
X155258142Y-80068521D02*
G01*
X155662732Y-79947015D01*
X156160177Y-79821759D01*
X156861906Y-79692448D01*
X157656123Y-79582830D01*
X158494756Y-79496939D01*
X159329737Y-79438809D01*
X160112993Y-79412472D01*
X160796456Y-79421963D01*
X161332055Y-79471315D01*
X161399773Y-79482148D01*
X161581097Y-79514947D01*
X161653503Y-79541969D01*
X161598766Y-79567824D01*
X161398660Y-79597123D01*
X161034959Y-79634478D01*
X160489439Y-79684500D01*
X160014422Y-79732623D01*
X159353939Y-79812175D01*
X158654266Y-79907596D01*
X157955199Y-80012580D01*
X157296534Y-80120820D01*
X156718067Y-80226013D01*
X156259593Y-80321851D01*
X155960909Y-80402030D01*
X155901307Y-80427465D01*
X155918076Y-80461219D01*
X156103430Y-80471476D01*
X156436804Y-80459231D01*
X156897634Y-80425482D01*
X157465356Y-80371225D01*
X158119407Y-80297455D01*
X158413429Y-80269742D01*
X158990202Y-80240558D01*
X159670363Y-80227799D01*
X160410485Y-80230361D01*
X161167140Y-80247137D01*
X161896902Y-80277022D01*
X162556343Y-80318908D01*
X163102036Y-80371689D01*
X163490553Y-80434261D01*
X163641089Y-80470207D01*
X163743957Y-80502818D01*
X163762997Y-80529164D01*
X163681504Y-80550721D01*
X163482777Y-80568965D01*
X163223202Y-80581768D01*
X163150112Y-80585373D01*
X162666807Y-80601422D01*
X162016158Y-80618586D01*
X161181463Y-80638342D01*
X161053700Y-80641346D01*
X160497455Y-80655968D01*
X160294388Y-80661306D01*
X159587941Y-80683305D01*
X158963939Y-80706178D01*
X158451958Y-80728758D01*
X158081576Y-80749880D01*
X157882372Y-80768378D01*
X157853587Y-80773160D01*
X157620926Y-80829355D01*
X157572774Y-80883137D01*
X157694128Y-80931090D01*
X157969986Y-80969797D01*
X158385345Y-80995844D01*
X158925203Y-81005814D01*
X159678605Y-81022547D01*
X160441760Y-81071289D01*
X161145687Y-81147446D01*
X161762086Y-81246430D01*
X162262651Y-81363653D01*
X162619082Y-81494525D01*
X162803075Y-81634460D01*
X162816726Y-81693736D01*
X162700919Y-81679004D01*
X162572438Y-81654353D01*
X162277628Y-81621579D01*
X161858777Y-81585601D01*
X161351911Y-81548485D01*
X160793057Y-81512298D01*
X160218242Y-81479105D01*
X159663492Y-81450973D01*
X159164835Y-81429968D01*
X158758297Y-81418155D01*
X158479905Y-81417602D01*
X158365686Y-81430374D01*
X158358762Y-81519474D01*
X158437787Y-81700342D01*
X158590128Y-81846150D01*
X158900521Y-81910909D01*
X158966058Y-81913268D01*
X159400636Y-82018321D01*
X159852116Y-82252623D01*
X160246419Y-82579382D01*
X160295970Y-82633884D01*
X160602572Y-83123654D01*
X160734155Y-83663338D01*
X160692908Y-84213728D01*
X160481020Y-84735616D01*
X160100680Y-85189794D01*
X159610199Y-85521825D01*
X159059879Y-85688635D01*
X158412374Y-85698450D01*
X158240644Y-85684662D01*
X157959752Y-85683208D01*
X157784042Y-85734248D01*
X157648947Y-85850656D01*
X157550862Y-85939288D01*
X157284974Y-86119387D01*
X156964862Y-86291351D01*
X156772943Y-86371521D01*
X156408279Y-86482778D01*
X156111502Y-86525905D01*
X155940095Y-86513510D01*
X155467397Y-86383024D01*
X155024903Y-86143351D01*
X154697006Y-85835673D01*
X154556779Y-85670468D01*
X154353869Y-85553572D01*
X154052741Y-85525138D01*
X153948194Y-85523385D01*
X153258853Y-85420215D01*
X152646376Y-85171033D01*
X152144774Y-84794122D01*
X151788063Y-84307766D01*
X151589635Y-83918814D01*
X148705311Y-83917123D01*
X145820988Y-83915431D01*
X146147273Y-83706473D01*
X146365855Y-83523653D01*
X146478880Y-83290137D01*
X146409517Y-83080788D01*
X146157390Y-82924683D01*
X145899984Y-82865849D01*
X145462057Y-82824905D01*
X144974428Y-82821062D01*
X144519444Y-82854321D01*
X144179448Y-82924683D01*
X143964761Y-83042912D01*
X143857356Y-83243567D01*
X143932416Y-83474446D01*
X144189565Y-83706473D01*
X144515850Y-83915431D01*
X141599457Y-83917123D01*
X138683064Y-83918814D01*
X138558489Y-84263319D01*
X138373884Y-84598133D01*
X137995915Y-84969517D01*
X137494246Y-85263004D01*
X136909949Y-85455807D01*
X136284097Y-85525138D01*
X136053476Y-85538681D01*
X135832884Y-85625912D01*
X135639833Y-85835673D01*
X135533077Y-85959012D01*
X135151284Y-86245494D01*
X134687239Y-86448185D01*
X134225336Y-86525905D01*
X134145731Y-86522016D01*
X133770390Y-86439115D01*
X133347549Y-86275539D01*
X132959339Y-86067362D01*
X132687891Y-85850656D01*
X132629868Y-85791062D01*
X132485011Y-85704725D01*
X132271399Y-85678146D01*
X131924465Y-85698450D01*
X131283375Y-85689559D01*
X130732230Y-85524518D01*
X130236158Y-85189794D01*
X129958189Y-84897891D01*
X129689190Y-84416320D01*
X129603038Y-83910323D01*
X129694520Y-83401648D01*
X129958418Y-82912046D01*
X130389518Y-82463266D01*
X130751544Y-82227519D01*
X141052214Y-82227519D01*
X141070631Y-82278163D01*
X141160813Y-82297348D01*
X141364260Y-82274248D01*
X141450001Y-82258293D01*
X148983439Y-82258293D01*
X148994266Y-82279816D01*
X149132114Y-82297266D01*
X149388738Y-82257812D01*
X149713554Y-82173785D01*
X150055981Y-82057520D01*
X150365433Y-81921348D01*
X150406519Y-81899688D01*
X150947984Y-81498378D01*
X151364732Y-80964202D01*
X151496565Y-80655968D01*
X155107550Y-80655968D01*
X155157747Y-80706166D01*
X155207945Y-80655968D01*
X155157747Y-80605771D01*
X155107550Y-80655968D01*
X151496565Y-80655968D01*
X151543978Y-80545115D01*
X155335530Y-80545115D01*
X155337085Y-80579386D01*
X155467299Y-80597845D01*
X155565982Y-80581768D01*
X155527955Y-80537189D01*
X155469898Y-80521149D01*
X155335530Y-80545115D01*
X151543978Y-80545115D01*
X151633481Y-80335851D01*
X151730951Y-79652016D01*
X151722937Y-79416351D01*
X151575703Y-78708732D01*
X151254120Y-78085654D01*
X150772348Y-77569169D01*
X150144548Y-77181330D01*
X150034045Y-77136357D01*
X149754729Y-77051808D01*
X149478348Y-76996492D01*
X149267634Y-76981179D01*
X149185316Y-77016640D01*
X149197110Y-77063646D01*
X149252850Y-77256960D01*
X149338725Y-77543715D01*
X149424442Y-77886490D01*
X149520771Y-78550958D01*
X149559330Y-79282152D01*
X149542111Y-80027723D01*
X149471106Y-80735322D01*
X149348308Y-81352602D01*
X149175710Y-81827214D01*
X149129440Y-81919507D01*
X149029680Y-82133227D01*
X149025092Y-82143056D01*
X148983439Y-82258293D01*
X141450001Y-82258293D01*
X141722211Y-82207639D01*
X142243577Y-82050217D01*
X142823693Y-81715903D01*
X143283330Y-81262495D01*
X143613989Y-80719290D01*
X143807170Y-80115586D01*
X143824474Y-79882850D01*
X146500826Y-79882850D01*
X146618952Y-80489726D01*
X146740039Y-80769536D01*
X147047735Y-81237262D01*
X147437655Y-81652499D01*
X147848746Y-81943097D01*
X148094855Y-82057083D01*
X148341728Y-82151424D01*
X148353683Y-82155088D01*
X148460856Y-82177956D01*
X148489190Y-82133227D01*
X148434805Y-81983684D01*
X148293817Y-81692110D01*
X148247729Y-81596608D01*
X148151887Y-81363977D01*
X148086406Y-81119967D01*
X148043637Y-80817225D01*
X148015931Y-80408398D01*
X147995640Y-79846133D01*
X147988917Y-79565060D01*
X147991549Y-78899258D01*
X148030163Y-78345500D01*
X148110926Y-77840027D01*
X148240003Y-77319081D01*
X148267990Y-77172126D01*
X148201509Y-77139978D01*
X147993966Y-77202328D01*
X147678567Y-77372781D01*
X147310578Y-77680720D01*
X146973710Y-78059758D01*
X146727092Y-78451587D01*
X146652279Y-78630558D01*
X146513468Y-79234235D01*
X146508665Y-79480679D01*
X146500826Y-79882850D01*
X143824474Y-79882850D01*
X143854375Y-79480679D01*
X143747105Y-78843866D01*
X143476862Y-78234444D01*
X143035147Y-77681711D01*
X142907358Y-77568854D01*
X142443506Y-77272507D01*
X141924775Y-77067878D01*
X141435910Y-76991541D01*
X141370064Y-76991201D01*
X141222840Y-76998692D01*
X141171858Y-77055578D01*
X141205947Y-77208974D01*
X141313936Y-77505994D01*
X141377610Y-77741046D01*
X141449554Y-78196473D01*
X141501866Y-78756729D01*
X141532108Y-79366743D01*
X141537846Y-79971444D01*
X141516643Y-80515759D01*
X141466061Y-80944617D01*
X141411361Y-81196936D01*
X141307580Y-81567417D01*
X141203893Y-81838500D01*
X141193877Y-81858763D01*
X141122220Y-82021438D01*
X141093494Y-82086651D01*
X141052214Y-82227519D01*
X130751544Y-82227519D01*
X130982603Y-82077056D01*
X130999269Y-82068593D01*
X131286940Y-81956943D01*
X131535726Y-81910909D01*
X131701499Y-81860658D01*
X131875082Y-81723293D01*
X131983438Y-81559384D01*
X131971031Y-81430253D01*
X131967327Y-81428108D01*
X131832601Y-81417810D01*
X131536954Y-81419473D01*
X131115512Y-81431253D01*
X130603404Y-81451308D01*
X130035758Y-81477793D01*
X129447702Y-81508865D01*
X128874362Y-81542681D01*
X128350867Y-81577398D01*
X127912345Y-81611171D01*
X127593923Y-81642158D01*
X127430730Y-81668515D01*
X127339572Y-81695657D01*
X127309343Y-81682900D01*
X127435436Y-81573067D01*
X127444490Y-81565822D01*
X127763271Y-81404537D01*
X128267640Y-81269077D01*
X128944340Y-81161571D01*
X129780112Y-81084148D01*
X130761700Y-81038936D01*
X131014345Y-81031594D01*
X131729761Y-81003475D01*
X132250572Y-80970639D01*
X132581469Y-80934131D01*
X132727143Y-80895000D01*
X132692283Y-80854292D01*
X132481580Y-80813053D01*
X132099725Y-80772332D01*
X131551407Y-80733175D01*
X130841318Y-80696629D01*
X129974147Y-80663741D01*
X129692957Y-80655968D01*
X135128893Y-80655968D01*
X135179091Y-80706166D01*
X135229289Y-80655968D01*
X135179091Y-80605771D01*
X135128893Y-80655968D01*
X129692957Y-80655968D01*
X128954585Y-80635557D01*
X128130780Y-80615975D01*
X127477575Y-80598825D01*
X126992555Y-80582952D01*
X126659315Y-80566875D01*
X126533421Y-80555573D01*
X134727312Y-80555573D01*
X134777510Y-80605771D01*
X134827708Y-80555573D01*
X134777510Y-80505375D01*
X134727312Y-80555573D01*
X126533421Y-80555573D01*
X126461452Y-80549112D01*
X126382562Y-80528182D01*
X126406241Y-80502604D01*
X126516086Y-80470896D01*
X126695692Y-80431578D01*
X126804502Y-80411140D01*
X127283090Y-80349502D01*
X127902722Y-80299167D01*
X128617580Y-80261278D01*
X129381847Y-80236980D01*
X130149704Y-80227420D01*
X130875334Y-80233741D01*
X131512918Y-80257089D01*
X132016640Y-80298609D01*
X132139068Y-80313027D01*
X132702665Y-80372230D01*
X133283533Y-80424088D01*
X133773557Y-80458748D01*
X134576719Y-80503519D01*
X133773557Y-80306797D01*
X133626919Y-80272476D01*
X133042336Y-80154611D01*
X132326596Y-80031409D01*
X131532373Y-79910570D01*
X130712344Y-79799792D01*
X129919186Y-79706773D01*
X129205573Y-79639211D01*
X128251818Y-79563253D01*
X128803992Y-79473553D01*
X128887384Y-79460945D01*
X129561973Y-79406506D01*
X130375919Y-79405977D01*
X131283282Y-79454972D01*
X132238121Y-79549101D01*
X133194498Y-79683979D01*
X134106472Y-79855218D01*
X134928103Y-80058429D01*
X134956055Y-80063717D01*
X135016689Y-80031057D01*
X135048466Y-79899912D01*
X135055995Y-79636368D01*
X135055022Y-79601818D01*
X138611200Y-79601818D01*
X138611811Y-79646425D01*
X138715320Y-80364473D01*
X138796321Y-80555573D01*
X138838875Y-80655968D01*
X138984472Y-80999464D01*
X139404207Y-81525535D01*
X139959460Y-81916824D01*
X139962971Y-81918615D01*
X140249589Y-82057907D01*
X140386132Y-82094196D01*
X140398147Y-82021438D01*
X140311181Y-81833587D01*
X140263718Y-81732317D01*
X140110821Y-81230308D01*
X140010356Y-80598069D01*
X139962457Y-79886287D01*
X139967256Y-79145651D01*
X140024887Y-78426846D01*
X140135482Y-77780561D01*
X140299175Y-77257482D01*
X140303959Y-77246261D01*
X140338310Y-77136015D01*
X140275101Y-77131857D01*
X140074931Y-77228738D01*
X140007076Y-77264862D01*
X139409162Y-77696628D01*
X138969893Y-78241908D01*
X138700246Y-78882904D01*
X138611200Y-79601818D01*
X135055022Y-79601818D01*
X135043885Y-79206511D01*
X135040116Y-79082907D01*
X135041847Y-78607791D01*
X135065517Y-78169958D01*
X135107311Y-77850907D01*
X135133937Y-77703521D01*
X135152273Y-77458449D01*
X135122066Y-77338705D01*
X135080073Y-77292692D01*
X134945534Y-77102456D01*
X134751762Y-76803973D01*
X134525219Y-76437210D01*
X134505335Y-76404171D01*
X134071842Y-75619377D01*
X133695363Y-74815652D01*
X133385500Y-74023626D01*
X133151856Y-73273931D01*
X133004032Y-72597199D01*
X132951630Y-72024061D01*
X133004253Y-71585147D01*
X133044864Y-71463963D01*
X133194131Y-71198014D01*
X133423177Y-71034897D01*
X133770734Y-70954905D01*
X134275534Y-70938331D01*
X134318407Y-70939127D01*
X135267071Y-71035906D01*
X136313005Y-71280444D01*
X137428546Y-71664766D01*
X138586032Y-72180899D01*
X139450027Y-72609025D01*
X140226022Y-72290611D01*
X140684300Y-72110968D01*
X141740978Y-71769483D01*
X142799896Y-71539640D01*
X143922046Y-71410070D01*
X145168419Y-71369407D01*
X146386782Y-71412376D01*
X147772927Y-71586763D01*
X149056755Y-71900377D01*
X150266612Y-72358718D01*
X150897216Y-72642754D01*
X151732728Y-72209008D01*
X152458475Y-71866210D01*
X153259405Y-71551947D01*
X154069172Y-71290951D01*
X154851130Y-71092470D01*
X155568632Y-70965753D01*
X156185029Y-70920048D01*
X156663676Y-70964604D01*
X156889513Y-71033584D01*
X157196479Y-71234359D01*
X157365129Y-71552311D01*
X157416640Y-72017039D01*
X157415625Y-72088669D01*
X157340433Y-72729206D01*
X157156994Y-73479454D01*
X156880816Y-74297866D01*
X156527409Y-75142899D01*
X156112283Y-75973008D01*
X155650948Y-76746647D01*
X155260305Y-77342925D01*
X155259224Y-78705723D01*
X155258473Y-79652016D01*
X155258142Y-80068521D01*
G37*
G36*
X142842119Y-96603714D02*
G01*
X143020981Y-97150155D01*
X143084065Y-97480705D01*
X143950551Y-97415268D01*
X144557987Y-97360711D01*
X145902643Y-97171871D01*
X147118732Y-96901753D01*
X148185911Y-96555418D01*
X149083834Y-96137930D01*
X149682676Y-95723199D01*
X150275280Y-95170541D01*
X150806942Y-94537482D01*
X151223304Y-93881356D01*
X151301683Y-93724951D01*
X151601938Y-92985001D01*
X151858169Y-92130813D01*
X152052059Y-91230968D01*
X152165293Y-90354053D01*
X152184500Y-90120451D01*
X152215415Y-89816480D01*
X152243778Y-89682222D01*
X152275556Y-89697499D01*
X152316718Y-89842134D01*
X152353565Y-90134766D01*
X152359642Y-90603493D01*
X152331774Y-91163689D01*
X152274236Y-91759575D01*
X152191306Y-92335375D01*
X152087258Y-92835314D01*
X151952109Y-93298053D01*
X151609773Y-94105622D01*
X151133848Y-94844851D01*
X150492746Y-95569914D01*
X150463707Y-95598902D01*
X149948435Y-96070280D01*
X149409645Y-96473215D01*
X148822012Y-96817626D01*
X148160213Y-97113430D01*
X147398922Y-97370546D01*
X146512817Y-97598891D01*
X145476571Y-97808382D01*
X144264862Y-98008937D01*
X144158118Y-98014932D01*
X143861047Y-98022172D01*
X143397295Y-98029300D01*
X142785478Y-98036160D01*
X142044214Y-98042591D01*
X141192120Y-98048436D01*
X140247812Y-98053537D01*
X139229908Y-98057736D01*
X138157025Y-98060873D01*
X132300177Y-98074545D01*
X132366110Y-97647865D01*
X132402179Y-97441053D01*
X132636655Y-96623757D01*
X133394973Y-96623757D01*
X133479742Y-96812633D01*
X133602633Y-96918857D01*
X133764408Y-96952856D01*
X133931134Y-96811189D01*
X133932005Y-96810135D01*
X133995323Y-96603714D01*
X133956628Y-96518419D01*
X136634822Y-96518419D01*
X136685020Y-96568616D01*
X136735218Y-96518419D01*
X136685020Y-96468221D01*
X136634822Y-96518419D01*
X133956628Y-96518419D01*
X133904680Y-96403908D01*
X133694274Y-96286473D01*
X133572670Y-96297040D01*
X133436519Y-96425969D01*
X133394973Y-96623757D01*
X132636655Y-96623757D01*
X132644843Y-96595215D01*
X133014599Y-95873782D01*
X133164516Y-95640020D01*
X133244857Y-95459299D01*
X133234537Y-95310251D01*
X133146148Y-95120817D01*
X133066190Y-94922339D01*
X132980518Y-94451462D01*
X132976587Y-93915661D01*
X133052306Y-93391211D01*
X133205582Y-92954387D01*
X133221613Y-92923801D01*
X133519086Y-92444047D01*
X133863310Y-92083126D01*
X134325731Y-91765189D01*
X134571358Y-91634657D01*
X134827851Y-91548882D01*
X135140230Y-91508658D01*
X135580672Y-91498656D01*
X136005734Y-91507595D01*
X136320347Y-91545981D01*
X136578466Y-91629704D01*
X136853320Y-91774644D01*
X136871354Y-91785331D01*
X137442581Y-92231576D01*
X137868644Y-92785300D01*
X138135885Y-93414658D01*
X138230644Y-94087799D01*
X138139261Y-94772878D01*
X138109614Y-94868190D01*
X137872622Y-95364903D01*
X137529102Y-95843220D01*
X137140425Y-96214557D01*
X136938282Y-96378402D01*
X136884785Y-96455855D01*
X136967362Y-96444160D01*
X137165420Y-96346466D01*
X137458364Y-96165924D01*
X137832803Y-95863780D01*
X138271154Y-95309173D01*
X138554713Y-94660976D01*
X138660822Y-93960739D01*
X138666461Y-93552113D01*
X139031077Y-93618097D01*
X139634083Y-93770800D01*
X140436601Y-94108131D01*
X141182287Y-94569799D01*
X141842356Y-95130319D01*
X142388019Y-95764207D01*
X142790490Y-96445981D01*
X142814200Y-96518419D01*
X142842119Y-96603714D01*
G37*
%TD*%
M02*
