%TF.GenerationSoftware,KiCad,Pcbnew,7.0.7*%
%TF.CreationDate,2023-10-25T17:12:01+02:00*%
%TF.ProjectId,kicad_chat-souris,6b696361-645f-4636-9861-742d736f7572,rev?*%
%TF.SameCoordinates,Original*%
%TF.FileFunction,Soldermask,Bot*%
%TF.FilePolarity,Negative*%
%FSLAX46Y46*%
G04 Gerber Fmt 4.6, Leading zero omitted, Abs format (unit mm)*
G04 Created by KiCad (PCBNEW 7.0.7) date 2023-10-25 17:12:01*
%MOMM*%
%LPD*%
G01*
G04 APERTURE LIST*
G04 Aperture macros list*
%AMRoundRect*
0 Rectangle with rounded corners*
0 $1 Rounding radius*
0 $2 $3 $4 $5 $6 $7 $8 $9 X,Y pos of 4 corners*
0 Add a 4 corners polygon primitive as box body*
4,1,4,$2,$3,$4,$5,$6,$7,$8,$9,$2,$3,0*
0 Add four circle primitives for the rounded corners*
1,1,$1+$1,$2,$3*
1,1,$1+$1,$4,$5*
1,1,$1+$1,$6,$7*
1,1,$1+$1,$8,$9*
0 Add four rect primitives between the rounded corners*
20,1,$1+$1,$2,$3,$4,$5,0*
20,1,$1+$1,$4,$5,$6,$7,0*
20,1,$1+$1,$6,$7,$8,$9,0*
20,1,$1+$1,$8,$9,$2,$3,0*%
G04 Aperture macros list end*
%ADD10RoundRect,0.250000X-0.600000X-0.725000X0.600000X-0.725000X0.600000X0.725000X-0.600000X0.725000X0*%
%ADD11O,1.700000X1.950000*%
%ADD12RoundRect,0.250000X0.600000X0.725000X-0.600000X0.725000X-0.600000X-0.725000X0.600000X-0.725000X0*%
%ADD13C,0.800000*%
%ADD14C,6.400000*%
%ADD15R,1.700000X1.700000*%
%ADD16O,1.700000X1.700000*%
%ADD17RoundRect,0.250000X-0.600000X-0.750000X0.600000X-0.750000X0.600000X0.750000X-0.600000X0.750000X0*%
%ADD18O,1.700000X2.000000*%
%ADD19RoundRect,0.250000X0.725000X-0.600000X0.725000X0.600000X-0.725000X0.600000X-0.725000X-0.600000X0*%
%ADD20O,1.950000X1.700000*%
%ADD21RoundRect,0.250000X0.600000X0.750000X-0.600000X0.750000X-0.600000X-0.750000X0.600000X-0.750000X0*%
%ADD22R,1.800000X4.400000*%
%ADD23O,1.800000X4.000000*%
%ADD24O,4.000000X1.800000*%
%ADD25RoundRect,0.250000X-0.725000X0.600000X-0.725000X-0.600000X0.725000X-0.600000X0.725000X0.600000X0*%
G04 APERTURE END LIST*
D10*
%TO.C,J601*%
X112500000Y-116000000D03*
D11*
X115000000Y-116000000D03*
X117500000Y-116000000D03*
%TD*%
D12*
%TO.C,J803*%
X155000000Y-55000000D03*
D11*
X152500000Y-55000000D03*
X150000000Y-55000000D03*
%TD*%
D13*
%TO.C,REF\u002A\u002A*%
X102600000Y-55000000D03*
X103302944Y-53302944D03*
X103302944Y-56697056D03*
X105000000Y-52600000D03*
D14*
X105000000Y-55000000D03*
D13*
X105000000Y-57400000D03*
X106697056Y-53302944D03*
X106697056Y-56697056D03*
X107400000Y-55000000D03*
%TD*%
D15*
%TO.C,J2*%
X127710000Y-52420000D03*
D16*
X127710000Y-54960000D03*
X125170000Y-52420000D03*
X125170000Y-54960000D03*
X122630000Y-52420000D03*
X122630000Y-54960000D03*
X120090000Y-52420000D03*
X120090000Y-54960000D03*
X117550000Y-52420000D03*
X117550000Y-54960000D03*
X115010000Y-52420000D03*
X115010000Y-54960000D03*
X112470000Y-52420000D03*
X112470000Y-54960000D03*
%TD*%
D17*
%TO.C,J505*%
X157500000Y-115800000D03*
D18*
X160000000Y-115800000D03*
%TD*%
D19*
%TO.C,J401*%
X185000000Y-88000000D03*
D20*
X185000000Y-85500000D03*
X185000000Y-83000000D03*
X185000000Y-80500000D03*
X185000000Y-78000000D03*
X185000000Y-75500000D03*
%TD*%
D21*
%TO.C,J802*%
X165000000Y-55000000D03*
D18*
X162500000Y-55000000D03*
%TD*%
D17*
%TO.C,J501*%
X129150000Y-115800000D03*
D18*
X131650000Y-115800000D03*
%TD*%
D13*
%TO.C,REF\u002A\u002A*%
X182600000Y-115000000D03*
X183302944Y-113302944D03*
X183302944Y-116697056D03*
X185000000Y-112600000D03*
D14*
X185000000Y-115000000D03*
D13*
X185000000Y-117400000D03*
X186697056Y-113302944D03*
X186697056Y-116697056D03*
X187400000Y-115000000D03*
%TD*%
D12*
%TO.C,J602*%
X140000000Y-55000000D03*
D11*
X137500000Y-55000000D03*
X135000000Y-55000000D03*
%TD*%
D13*
%TO.C,REF\u002A\u002A*%
X182600000Y-55000000D03*
X183302944Y-53302944D03*
X183302944Y-56697056D03*
X185000000Y-52600000D03*
D14*
X185000000Y-55000000D03*
D13*
X185000000Y-57400000D03*
X186697056Y-53302944D03*
X186697056Y-56697056D03*
X187400000Y-55000000D03*
%TD*%
D15*
%TO.C,U701*%
X142320000Y-64020000D03*
D16*
X142320000Y-66560000D03*
X142320000Y-69100000D03*
X142320000Y-71640000D03*
X142320000Y-74180000D03*
X142320000Y-76720000D03*
%TD*%
D22*
%TO.C,J801*%
X180500000Y-66000000D03*
D23*
X186300000Y-66000000D03*
D24*
X183500000Y-61200000D03*
%TD*%
D17*
%TO.C,J502*%
X148170000Y-115820000D03*
D18*
X150670000Y-115820000D03*
%TD*%
D13*
%TO.C,REF\u002A\u002A*%
X102600000Y-115000000D03*
X103302944Y-113302944D03*
X103302944Y-116697056D03*
X105000000Y-112600000D03*
D14*
X105000000Y-115000000D03*
D13*
X105000000Y-117400000D03*
X106697056Y-113302944D03*
X106697056Y-116697056D03*
X107400000Y-115000000D03*
%TD*%
D25*
%TO.C,J503*%
X104250000Y-76250000D03*
D20*
X104250000Y-78750000D03*
X104250000Y-81250000D03*
X104250000Y-83750000D03*
X104250000Y-86250000D03*
X104250000Y-88750000D03*
X104250000Y-91250000D03*
X104250000Y-93750000D03*
%TD*%
D10*
%TO.C,J603*%
X172500000Y-116000000D03*
D11*
X175000000Y-116000000D03*
X177500000Y-116000000D03*
%TD*%
D17*
%TO.C,J504*%
X138600000Y-115800000D03*
D18*
X141100000Y-115800000D03*
%TD*%
D19*
%TO.C,J402*%
X185000000Y-107500000D03*
D20*
X185000000Y-105000000D03*
X185000000Y-102500000D03*
X185000000Y-100000000D03*
X185000000Y-97500000D03*
X185000000Y-95000000D03*
%TD*%
D12*
%TO.C,J301*%
X177470000Y-54990000D03*
D11*
X174970000Y-54990000D03*
X172470000Y-54990000D03*
%TD*%
M02*
