%TF.GenerationSoftware,KiCad,Pcbnew,7.0.7*%
%TF.CreationDate,2023-10-25T17:12:00+02:00*%
%TF.ProjectId,kicad_chat-souris,6b696361-645f-4636-9861-742d736f7572,rev?*%
%TF.SameCoordinates,Original*%
%TF.FileFunction,Copper,L4,Bot*%
%TF.FilePolarity,Positive*%
%FSLAX46Y46*%
G04 Gerber Fmt 4.6, Leading zero omitted, Abs format (unit mm)*
G04 Created by KiCad (PCBNEW 7.0.7) date 2023-10-25 17:12:00*
%MOMM*%
%LPD*%
G01*
G04 APERTURE LIST*
G04 Aperture macros list*
%AMRoundRect*
0 Rectangle with rounded corners*
0 $1 Rounding radius*
0 $2 $3 $4 $5 $6 $7 $8 $9 X,Y pos of 4 corners*
0 Add a 4 corners polygon primitive as box body*
4,1,4,$2,$3,$4,$5,$6,$7,$8,$9,$2,$3,0*
0 Add four circle primitives for the rounded corners*
1,1,$1+$1,$2,$3*
1,1,$1+$1,$4,$5*
1,1,$1+$1,$6,$7*
1,1,$1+$1,$8,$9*
0 Add four rect primitives between the rounded corners*
20,1,$1+$1,$2,$3,$4,$5,0*
20,1,$1+$1,$4,$5,$6,$7,0*
20,1,$1+$1,$6,$7,$8,$9,0*
20,1,$1+$1,$8,$9,$2,$3,0*%
G04 Aperture macros list end*
%TA.AperFunction,ComponentPad*%
%ADD10RoundRect,0.250000X-0.600000X-0.725000X0.600000X-0.725000X0.600000X0.725000X-0.600000X0.725000X0*%
%TD*%
%TA.AperFunction,ComponentPad*%
%ADD11O,1.700000X1.950000*%
%TD*%
%TA.AperFunction,ComponentPad*%
%ADD12RoundRect,0.250000X0.600000X0.725000X-0.600000X0.725000X-0.600000X-0.725000X0.600000X-0.725000X0*%
%TD*%
%TA.AperFunction,ComponentPad*%
%ADD13C,0.800000*%
%TD*%
%TA.AperFunction,ComponentPad*%
%ADD14C,6.400000*%
%TD*%
%TA.AperFunction,ComponentPad*%
%ADD15R,1.700000X1.700000*%
%TD*%
%TA.AperFunction,ComponentPad*%
%ADD16O,1.700000X1.700000*%
%TD*%
%TA.AperFunction,ComponentPad*%
%ADD17RoundRect,0.250000X-0.600000X-0.750000X0.600000X-0.750000X0.600000X0.750000X-0.600000X0.750000X0*%
%TD*%
%TA.AperFunction,ComponentPad*%
%ADD18O,1.700000X2.000000*%
%TD*%
%TA.AperFunction,ComponentPad*%
%ADD19RoundRect,0.250000X0.725000X-0.600000X0.725000X0.600000X-0.725000X0.600000X-0.725000X-0.600000X0*%
%TD*%
%TA.AperFunction,ComponentPad*%
%ADD20O,1.950000X1.700000*%
%TD*%
%TA.AperFunction,ComponentPad*%
%ADD21RoundRect,0.250000X0.600000X0.750000X-0.600000X0.750000X-0.600000X-0.750000X0.600000X-0.750000X0*%
%TD*%
%TA.AperFunction,ComponentPad*%
%ADD22R,1.800000X4.400000*%
%TD*%
%TA.AperFunction,ComponentPad*%
%ADD23O,1.800000X4.000000*%
%TD*%
%TA.AperFunction,ComponentPad*%
%ADD24O,4.000000X1.800000*%
%TD*%
%TA.AperFunction,ComponentPad*%
%ADD25RoundRect,0.250000X-0.725000X0.600000X-0.725000X-0.600000X0.725000X-0.600000X0.725000X0.600000X0*%
%TD*%
%TA.AperFunction,ViaPad*%
%ADD26C,0.800000*%
%TD*%
%TA.AperFunction,Conductor*%
%ADD27C,0.300000*%
%TD*%
%TA.AperFunction,Conductor*%
%ADD28C,1.000000*%
%TD*%
%TA.AperFunction,Conductor*%
%ADD29C,0.250000*%
%TD*%
G04 APERTURE END LIST*
D10*
%TO.P,J601,1,Pin_1*%
%TO.N,GND*%
X112500000Y-116000000D03*
D11*
%TO.P,J601,2,Pin_2*%
%TO.N,+3V3*%
X115000000Y-116000000D03*
%TO.P,J601,3,Pin_3*%
%TO.N,/STM32/Bordure_1*%
X117500000Y-116000000D03*
%TD*%
D12*
%TO.P,J803,1,Pin_1*%
%TO.N,Li_Ion-*%
X155000000Y-55000000D03*
D11*
%TO.P,J803,2,Pin_2*%
%TO.N,Li_Ion_INTER*%
X152500000Y-55000000D03*
%TO.P,J803,3,Pin_3*%
%TO.N,Li_Ion+*%
X150000000Y-55000000D03*
%TD*%
D13*
%TO.P,REF\u002A\u002A,1*%
%TO.N,N/C*%
X102600000Y-55000000D03*
X103302944Y-53302944D03*
X103302944Y-56697056D03*
X105000000Y-52600000D03*
D14*
X105000000Y-55000000D03*
D13*
X105000000Y-57400000D03*
X106697056Y-53302944D03*
X106697056Y-56697056D03*
X107400000Y-55000000D03*
%TD*%
D15*
%TO.P,J2,1,Pin_1*%
%TO.N,GND*%
X127710000Y-52420000D03*
D16*
%TO.P,J2,2,Pin_2*%
%TO.N,Net-(J2-Pin_2)*%
X127710000Y-54960000D03*
%TO.P,J2,3,Pin_3*%
%TO.N,GND*%
X125170000Y-52420000D03*
%TO.P,J2,4,Pin_4*%
%TO.N,Net-(J2-Pin_4)*%
X125170000Y-54960000D03*
%TO.P,J2,5,Pin_5*%
%TO.N,GND*%
X122630000Y-52420000D03*
%TO.P,J2,6,Pin_6*%
%TO.N,Net-(J2-Pin_6)*%
X122630000Y-54960000D03*
%TO.P,J2,7,Pin_7*%
%TO.N,GND*%
X120090000Y-52420000D03*
%TO.P,J2,8,Pin_8*%
%TO.N,Net-(J2-Pin_8)*%
X120090000Y-54960000D03*
%TO.P,J2,9,Pin_9*%
%TO.N,GND*%
X117550000Y-52420000D03*
%TO.P,J2,10,Pin_10*%
%TO.N,Net-(J2-Pin_10)*%
X117550000Y-54960000D03*
%TO.P,J2,11,Pin_11*%
%TO.N,GND*%
X115010000Y-52420000D03*
%TO.P,J2,12,Pin_12*%
%TO.N,Net-(J2-Pin_12)*%
X115010000Y-54960000D03*
%TO.P,J2,13,Pin_13*%
%TO.N,GND*%
X112470000Y-52420000D03*
%TO.P,J2,14,Pin_14*%
%TO.N,Net-(J2-Pin_14)*%
X112470000Y-54960000D03*
%TD*%
D17*
%TO.P,J505,1,Pin_1*%
%TO.N,GND*%
X157500000Y-115800000D03*
D18*
%TO.P,J505,2,Pin_2*%
%TO.N,/STM32/Bumper_4*%
X160000000Y-115800000D03*
%TD*%
D19*
%TO.P,J401,1,Pin_1*%
%TO.N,Net-(J401-Pin_1)*%
X185000000Y-88000000D03*
D20*
%TO.P,J401,2,Pin_2*%
%TO.N,GND*%
X185000000Y-85500000D03*
%TO.P,J401,3,Pin_3*%
%TO.N,/Drivers and motors connectors/ENCODER_1_A*%
X185000000Y-83000000D03*
%TO.P,J401,4,Pin_4*%
%TO.N,/Drivers and motors connectors/ENCODER_1_B*%
X185000000Y-80500000D03*
%TO.P,J401,5,Pin_5*%
%TO.N,+3V3*%
X185000000Y-78000000D03*
%TO.P,J401,6,Pin_6*%
%TO.N,Net-(J401-Pin_6)*%
X185000000Y-75500000D03*
%TD*%
D21*
%TO.P,J802,1,Pin_1*%
%TO.N,GND*%
X165000000Y-55000000D03*
D18*
%TO.P,J802,2,Pin_2*%
%TO.N,NiMh+*%
X162500000Y-55000000D03*
%TD*%
D17*
%TO.P,J501,1,Pin_1*%
%TO.N,GND*%
X129150000Y-115800000D03*
D18*
%TO.P,J501,2,Pin_2*%
%TO.N,/STM32/Bumper_1*%
X131650000Y-115800000D03*
%TD*%
D13*
%TO.P,REF\u002A\u002A,1*%
%TO.N,N/C*%
X182600000Y-115000000D03*
X183302944Y-113302944D03*
X183302944Y-116697056D03*
X185000000Y-112600000D03*
D14*
X185000000Y-115000000D03*
D13*
X185000000Y-117400000D03*
X186697056Y-113302944D03*
X186697056Y-116697056D03*
X187400000Y-115000000D03*
%TD*%
D12*
%TO.P,J602,1,Pin_1*%
%TO.N,GND*%
X140000000Y-55000000D03*
D11*
%TO.P,J602,2,Pin_2*%
%TO.N,+3V3*%
X137500000Y-55000000D03*
%TO.P,J602,3,Pin_3*%
%TO.N,/STM32/Bordure_2*%
X135000000Y-55000000D03*
%TD*%
D13*
%TO.P,REF\u002A\u002A,1*%
%TO.N,N/C*%
X182600000Y-55000000D03*
X183302944Y-53302944D03*
X183302944Y-56697056D03*
X185000000Y-52600000D03*
D14*
X185000000Y-55000000D03*
D13*
X185000000Y-57400000D03*
X186697056Y-53302944D03*
X186697056Y-56697056D03*
X187400000Y-55000000D03*
%TD*%
D15*
%TO.P,U701,1,Key*%
%TO.N,unconnected-(U701-Key-Pad1)*%
X142320000Y-64020000D03*
D16*
%TO.P,U701,2,Vcc(5v)*%
%TO.N,+5V*%
X142320000Y-66560000D03*
%TO.P,U701,3,GND*%
%TO.N,GND*%
X142320000Y-69100000D03*
%TO.P,U701,4,Tx*%
%TO.N,/STM32/USART3_RX*%
X142320000Y-71640000D03*
%TO.P,U701,5,Rx*%
%TO.N,/STM32/USART3_TX*%
X142320000Y-74180000D03*
%TO.P,U701,6,STATE*%
%TO.N,unconnected-(U701-STATE-Pad6)*%
X142320000Y-76720000D03*
%TD*%
D22*
%TO.P,J801,1*%
%TO.N,V_ALIM*%
X180500000Y-66000000D03*
D23*
%TO.P,J801,2*%
%TO.N,GND*%
X186300000Y-66000000D03*
D24*
%TO.P,J801,3*%
X183500000Y-61200000D03*
%TD*%
D17*
%TO.P,J502,1,Pin_1*%
%TO.N,GND*%
X148170000Y-115820000D03*
D18*
%TO.P,J502,2,Pin_2*%
%TO.N,/STM32/Bumper_3*%
X150670000Y-115820000D03*
%TD*%
D13*
%TO.P,REF\u002A\u002A,1*%
%TO.N,N/C*%
X102600000Y-115000000D03*
X103302944Y-113302944D03*
X103302944Y-116697056D03*
X105000000Y-112600000D03*
D14*
X105000000Y-115000000D03*
D13*
X105000000Y-117400000D03*
X106697056Y-113302944D03*
X106697056Y-116697056D03*
X107400000Y-115000000D03*
%TD*%
D25*
%TO.P,J503,1,Pin_1*%
%TO.N,unconnected-(J503-Pin_1-Pad1)*%
X104250000Y-76250000D03*
D20*
%TO.P,J503,2,Pin_2*%
%TO.N,/STM32/LIDAR_MOTOR_ENABLE*%
X104250000Y-78750000D03*
%TO.P,J503,3,Pin_3*%
%TO.N,/STM32/LIDAR_MESURE_ENABLE*%
X104250000Y-81250000D03*
%TO.P,J503,4,Pin_4*%
%TO.N,/STM32/LIDAR_PWM*%
X104250000Y-83750000D03*
%TO.P,J503,5,Pin_5*%
%TO.N,GND*%
X104250000Y-86250000D03*
%TO.P,J503,6,Pin_6*%
%TO.N,/STM32/USART2_TX*%
X104250000Y-88750000D03*
%TO.P,J503,7,Pin_7*%
%TO.N,/STM32/USART2_RX*%
X104250000Y-91250000D03*
%TO.P,J503,8,Pin_8*%
%TO.N,+5V*%
X104250000Y-93750000D03*
%TD*%
D10*
%TO.P,J603,1,Pin_1*%
%TO.N,GND*%
X172500000Y-116000000D03*
D11*
%TO.P,J603,2,Pin_2*%
%TO.N,+3V3*%
X175000000Y-116000000D03*
%TO.P,J603,3,Pin_3*%
%TO.N,/STM32/Bordure_3*%
X177500000Y-116000000D03*
%TD*%
D17*
%TO.P,J504,1,Pin_1*%
%TO.N,GND*%
X138600000Y-115800000D03*
D18*
%TO.P,J504,2,Pin_2*%
%TO.N,/STM32/Bumper_2*%
X141100000Y-115800000D03*
%TD*%
D19*
%TO.P,J402,1,Pin_1*%
%TO.N,Net-(J402-Pin_1)*%
X185000000Y-107500000D03*
D20*
%TO.P,J402,2,Pin_2*%
%TO.N,GND*%
X185000000Y-105000000D03*
%TO.P,J402,3,Pin_3*%
%TO.N,/Drivers and motors connectors/ENCODER_2_A*%
X185000000Y-102500000D03*
%TO.P,J402,4,Pin_4*%
%TO.N,/Drivers and motors connectors/ENCODER_2_B*%
X185000000Y-100000000D03*
%TO.P,J402,5,Pin_5*%
%TO.N,+3V3*%
X185000000Y-97500000D03*
%TO.P,J402,6,Pin_6*%
%TO.N,Net-(J402-Pin_6)*%
X185000000Y-95000000D03*
%TD*%
D12*
%TO.P,J301,1,Pin_1*%
%TO.N,unconnected-(J301-Pin_1-Pad1)*%
X177470000Y-54990000D03*
D11*
%TO.P,J301,2,Pin_2*%
%TO.N,+BATT*%
X174970000Y-54990000D03*
%TO.P,J301,3,Pin_3*%
%TO.N,BAT+*%
X172470000Y-54990000D03*
%TD*%
D26*
%TO.N,GND*%
X119320000Y-96720000D03*
X125570000Y-97220000D03*
%TO.N,/STM32/NRST*%
X123070000Y-92470000D03*
%TO.N,GND*%
X126820000Y-106220000D03*
X131320000Y-100220000D03*
%TO.N,+3V3*%
X126570000Y-94320000D03*
%TO.N,GND*%
X129320000Y-89970000D03*
X139570000Y-91620000D03*
X174570000Y-86970000D03*
X176070000Y-104970000D03*
X176070000Y-88220000D03*
X164070000Y-75220000D03*
X158432500Y-87045000D03*
X176070000Y-89720000D03*
X114570000Y-66770000D03*
X160432500Y-84720000D03*
X135320000Y-64970000D03*
X140820000Y-84720000D03*
X127320000Y-68770000D03*
X118070000Y-74370000D03*
X134320000Y-71270000D03*
X113320000Y-74370000D03*
X174570000Y-88470000D03*
X162312500Y-95145000D03*
X174570000Y-107720000D03*
X171495000Y-75565000D03*
X174570000Y-89720000D03*
X174570000Y-106220000D03*
X145570000Y-89295000D03*
X150570000Y-71220000D03*
X108320000Y-74370000D03*
X176070000Y-106470000D03*
X176070000Y-86970000D03*
X174570000Y-104970000D03*
X167495000Y-72565000D03*
X176070000Y-107720000D03*
%TO.N,Li_Ion-*%
X150570000Y-65720000D03*
X158070000Y-76720000D03*
%TO.N,Li_Ion_INTER*%
X152070000Y-61470000D03*
%TO.N,+BATT*%
X148170000Y-89332500D03*
X157182500Y-90832500D03*
X168570000Y-109970000D03*
X146970000Y-89332500D03*
X168570000Y-92470000D03*
X157182500Y-91832500D03*
%TO.N,Net-(U301-VCC)*%
X152682500Y-89795000D03*
X149432500Y-89295000D03*
%TO.N,Net-(U301-SW)*%
X152682500Y-93295000D03*
X157182500Y-93295000D03*
%TO.N,+5V*%
X157432500Y-89220000D03*
X158432500Y-89220000D03*
X156432500Y-89220000D03*
X144970000Y-84820000D03*
X144170000Y-84820000D03*
X143370000Y-84820000D03*
%TO.N,+3V3*%
X110570000Y-83720000D03*
X171070000Y-89220000D03*
X130820000Y-73520000D03*
X144070000Y-90720000D03*
X155320000Y-111720000D03*
X144070000Y-91720000D03*
X180820000Y-106970000D03*
X128320000Y-68770000D03*
X135320000Y-68770000D03*
X136570000Y-111470000D03*
X144070000Y-92720000D03*
X170820000Y-107470000D03*
X181070000Y-88970000D03*
%TO.N,Net-(J401-Pin_1)*%
X175070000Y-85470000D03*
X173820000Y-85470000D03*
X172820000Y-85220000D03*
%TO.N,Net-(J402-Pin_1)*%
X174820000Y-103720000D03*
X173820000Y-103720000D03*
X172820000Y-103220000D03*
%TO.N,/Alimentation/BMS/Secu_Vc*%
X156545000Y-69832500D03*
X156295000Y-76332500D03*
%TO.N,/Alimentation/BMS/Secu_Sense*%
X158295000Y-72082500D03*
X157545000Y-69832500D03*
%TO.N,/STM32/LIDAR_PWM*%
X124320000Y-91470000D03*
%TO.N,/STM32/LIDAR_MOTOR_ENABLE*%
X126820000Y-88720000D03*
%TO.N,/STM32/LIDAR_MESURE_ENABLE*%
X125820000Y-89419500D03*
%TO.N,/STM32/NRST*%
X119840023Y-89290023D03*
X130820000Y-89470000D03*
%TO.N,/Drivers and motors connectors/MOTOR_1_FWD*%
X133820000Y-93669503D03*
X139370000Y-99020000D03*
%TO.N,/Drivers and motors connectors/MOTOR_1_REV*%
X133820000Y-92720000D03*
X140770000Y-99620000D03*
%TO.N,/STM32/USART2_TX*%
X137220500Y-98020000D03*
%TO.N,/STM32/USART2_RX*%
X137970000Y-99020000D03*
%TO.N,/Drivers and motors connectors/ENCODER_2_A*%
X137170000Y-86820000D03*
%TO.N,/Drivers and motors connectors/ENCODER_2_B*%
X137170000Y-85620000D03*
%TO.N,/STM32/I2C_SCL*%
X136820000Y-75220000D03*
X133107183Y-75534083D03*
%TO.N,/STM32/Bordure_1*%
X128320000Y-75220000D03*
%TO.N,/STM32/Bordure_3*%
X135299977Y-80020000D03*
%TO.N,/Drivers and motors connectors/ENCODER_1_B*%
X134970000Y-76970000D03*
%TO.N,/Drivers and motors connectors/ENCODER_1_A*%
X132070000Y-76220000D03*
%TO.N,/STM32/Bumper_1*%
X129540023Y-75749977D03*
%TO.N,/STM32/Bumper_2*%
X130820000Y-76220000D03*
%TO.N,/STM32/Bumper_3*%
X133770000Y-79820000D03*
%TO.N,/STM32/Bumper_4*%
X134970000Y-81020000D03*
%TO.N,/STM32/PD0*%
X117590000Y-60770000D03*
X123070000Y-80970000D03*
%TO.N,/STM32/PD1*%
X123570000Y-79970000D03*
X120090000Y-60770000D03*
%TO.N,/STM32/PD2*%
X127590000Y-60770000D03*
X124320000Y-78970000D03*
%TO.N,/STM32/PD3*%
X125090000Y-60770000D03*
X123320000Y-78220000D03*
%TO.N,/STM32/PD4*%
X122590000Y-60770000D03*
X121820000Y-78470000D03*
%TO.N,/STM32/PD5*%
X115090000Y-60770000D03*
X120570000Y-84720000D03*
%TO.N,/STM32/PD6*%
X112590000Y-60770000D03*
X120820000Y-85970000D03*
%TO.N,/Alimentation/BMS/Secu_Vout*%
X152545000Y-70332500D03*
X155795000Y-70832500D03*
%TD*%
D27*
%TO.N,/STM32/NRST*%
X123070000Y-92520000D02*
X123070000Y-92520000D01*
X123070000Y-92470000D02*
X123070000Y-92520000D01*
X123020000Y-92470000D02*
X123070000Y-92470000D01*
X123070000Y-92520000D02*
X125270000Y-92520000D01*
X119840023Y-89290023D02*
X123020000Y-92470000D01*
X128820000Y-88970000D02*
X130320000Y-88970000D01*
X125270000Y-92520000D02*
X128820000Y-88970000D01*
X130320000Y-88970000D02*
X130820000Y-89470000D01*
%TO.N,/STM32/PD6*%
X118570000Y-62970000D02*
X113820000Y-62970000D01*
X113820000Y-62970000D02*
X112570000Y-61720000D01*
X118820000Y-84030661D02*
X118820000Y-63220000D01*
X120820000Y-85970000D02*
X120759339Y-85970000D01*
X120759339Y-85970000D02*
X118820000Y-84030661D01*
X118820000Y-63220000D02*
X118570000Y-62970000D01*
%TO.N,/STM32/PD5*%
X115070000Y-61520000D02*
X115070000Y-60970000D01*
X118820000Y-62470000D02*
X116020000Y-62470000D01*
X119320000Y-62970000D02*
X118820000Y-62470000D01*
X119320000Y-83470000D02*
X119320000Y-62970000D01*
X116020000Y-62470000D02*
X115070000Y-61520000D01*
X120570000Y-84720000D02*
X119320000Y-83470000D01*
%TO.N,/STM32/PD2*%
X122320000Y-62520000D02*
X121820000Y-63020000D01*
%TO.N,/STM32/I2C_SCL*%
X133421266Y-75220000D02*
X133107183Y-75534083D01*
X136820000Y-75220000D02*
X133421266Y-75220000D01*
%TO.N,/STM32/LIDAR_PWM*%
X105040000Y-83750000D02*
X104250000Y-83750000D01*
X109040000Y-79750000D02*
X105040000Y-83750000D01*
X111685788Y-79750000D02*
X109040000Y-79750000D01*
X123405788Y-91470000D02*
X111685788Y-79750000D01*
X124320000Y-91470000D02*
X123405788Y-91470000D01*
%TO.N,/STM32/LIDAR_MESURE_ENABLE*%
X106250000Y-79250000D02*
X104250000Y-81250000D01*
X111892894Y-79250000D02*
X106250000Y-79250000D01*
X125820000Y-89419500D02*
X122062394Y-89419500D01*
X122062394Y-89419500D02*
X111892894Y-79250000D01*
%TO.N,/STM32/LIDAR_MOTOR_ENABLE*%
X112100000Y-78750000D02*
X104250000Y-78750000D01*
X122070000Y-88720000D02*
X112100000Y-78750000D01*
X126820000Y-88720000D02*
X122070000Y-88720000D01*
%TO.N,/Drivers and motors connectors/MOTOR_1_FWD*%
X139370000Y-98327106D02*
X139370000Y-99020000D01*
X133870497Y-93720000D02*
X134762894Y-93720000D01*
X134762894Y-93720000D02*
X139370000Y-98327106D01*
X133820000Y-93669503D02*
X133870497Y-93720000D01*
%TO.N,/Drivers and motors connectors/MOTOR_1_REV*%
X134470000Y-92720000D02*
X140770000Y-99020000D01*
X133820000Y-92720000D02*
X134470000Y-92720000D01*
X140770000Y-99020000D02*
X140770000Y-99620000D01*
%TO.N,Li_Ion_INTER*%
X152070000Y-61470000D02*
X152500000Y-61040000D01*
X152500000Y-61040000D02*
X152500000Y-55000000D01*
D28*
%TO.N,Li_Ion-*%
X155000000Y-55000000D02*
X155000000Y-62540000D01*
X154070000Y-63470000D02*
X151820000Y-65720000D01*
X151820000Y-65720000D02*
X150570000Y-65720000D01*
D27*
X155070000Y-65720000D02*
X159570000Y-70220000D01*
D28*
X155000000Y-62540000D02*
X154070000Y-63470000D01*
D27*
X159570000Y-70220000D02*
X159570000Y-75220000D01*
X150570000Y-65720000D02*
X155070000Y-65720000D01*
X159570000Y-75220000D02*
X158070000Y-76720000D01*
%TO.N,Net-(U301-VCC)*%
X149932500Y-89795000D02*
X149432500Y-89295000D01*
X152682500Y-89795000D02*
X149932500Y-89795000D01*
D28*
%TO.N,Net-(U301-SW)*%
X157182500Y-93295000D02*
X152682500Y-93295000D01*
D29*
%TO.N,/Alimentation/BMS/Secu_Vc*%
X156545000Y-69832500D02*
X156545000Y-76082500D01*
X156545000Y-76082500D02*
X156295000Y-76332500D01*
%TO.N,/Alimentation/BMS/Secu_Sense*%
X158295000Y-70582500D02*
X158295000Y-72082500D01*
X157545000Y-69832500D02*
X158295000Y-70582500D01*
D27*
%TO.N,/Drivers and motors connectors/MOTOR_1_REV*%
X140770000Y-99620000D02*
X140770000Y-99420000D01*
%TO.N,/STM32/USART2_TX*%
X137220500Y-98020000D02*
X135262894Y-98020000D01*
X109500000Y-88750000D02*
X104250000Y-88750000D01*
X135262894Y-98020000D02*
X130862894Y-102420000D01*
X130862894Y-102420000D02*
X123170000Y-102420000D01*
X123170000Y-102420000D02*
X109500000Y-88750000D01*
%TO.N,/STM32/USART2_RX*%
X130970000Y-103020000D02*
X123062894Y-103020000D01*
X134970000Y-99020000D02*
X130970000Y-103020000D01*
X111292894Y-91250000D02*
X104250000Y-91250000D01*
X137970000Y-99020000D02*
X134970000Y-99020000D01*
X123062894Y-103020000D02*
X111292894Y-91250000D01*
%TO.N,/Drivers and motors connectors/ENCODER_2_A*%
X137170000Y-86820000D02*
X141470000Y-91120000D01*
X141470000Y-91120000D02*
X141470000Y-93120000D01*
X183000000Y-100500000D02*
X185000000Y-102500000D01*
X148850000Y-100500000D02*
X183000000Y-100500000D01*
X141470000Y-93120000D02*
X148850000Y-100500000D01*
%TO.N,/Drivers and motors connectors/ENCODER_2_B*%
X141970000Y-92912894D02*
X149057106Y-100000000D01*
X149057106Y-100000000D02*
X185000000Y-100000000D01*
X137170000Y-85620000D02*
X141970000Y-90420000D01*
X141970000Y-90420000D02*
X141970000Y-92912894D01*
%TO.N,/STM32/Bordure_1*%
X127770000Y-107420000D02*
X119190000Y-116000000D01*
X140562894Y-107420000D02*
X127770000Y-107420000D01*
X128370000Y-75640615D02*
X129040023Y-76310638D01*
X119190000Y-116000000D02*
X117500000Y-116000000D01*
X141770000Y-106212894D02*
X140562894Y-107420000D01*
X128370000Y-75270000D02*
X128370000Y-75640615D01*
X128320000Y-75220000D02*
X128370000Y-75270000D01*
X129040023Y-86504236D02*
X141770000Y-99234212D01*
X141770000Y-99234212D02*
X141770000Y-106212894D01*
X129040023Y-76310638D02*
X129040023Y-86504236D01*
%TO.N,/STM32/Bordure_3*%
X135299977Y-80020000D02*
X135720000Y-80440023D01*
X144270000Y-98198682D02*
X144270000Y-106305788D01*
X174912894Y-113412894D02*
X177500000Y-116000000D01*
X135470000Y-89398682D02*
X144270000Y-98198682D01*
X135720000Y-80440023D02*
X135720000Y-81330661D01*
X135470000Y-81580661D02*
X135470000Y-89398682D01*
X151377106Y-113412894D02*
X174912894Y-113412894D01*
X135720000Y-81330661D02*
X135470000Y-81580661D01*
X144270000Y-106305788D02*
X151377106Y-113412894D01*
%TO.N,/Drivers and motors connectors/ENCODER_1_B*%
X134970000Y-76970000D02*
X139420000Y-81420000D01*
X139420000Y-81420000D02*
X184080000Y-81420000D01*
X184080000Y-81420000D02*
X185000000Y-80500000D01*
%TO.N,/Drivers and motors connectors/ENCODER_1_A*%
X132070000Y-76220000D02*
X132970000Y-76220000D01*
X184020000Y-82020000D02*
X185000000Y-83000000D01*
X138770000Y-82020000D02*
X184020000Y-82020000D01*
X132970000Y-76220000D02*
X138770000Y-82020000D01*
%TO.N,/STM32/Bumper_1*%
X131650000Y-111340000D02*
X131650000Y-115800000D01*
X134970000Y-108020000D02*
X131650000Y-111340000D01*
X129540023Y-86297129D02*
X142270000Y-99027106D01*
X142270000Y-99027106D02*
X142270000Y-106420000D01*
X129540023Y-75749977D02*
X129540023Y-86297129D01*
X142270000Y-106420000D02*
X140670000Y-108020000D01*
X140670000Y-108020000D02*
X134970000Y-108020000D01*
%TO.N,/STM32/Bumper_2*%
X130040023Y-86090023D02*
X142770000Y-98820000D01*
X142770000Y-98820000D02*
X142770000Y-106627106D01*
X142770000Y-106627106D02*
X141100000Y-108297106D01*
X130040023Y-76999977D02*
X130040023Y-86090023D01*
X141100000Y-108297106D02*
X141100000Y-115800000D01*
X130820000Y-76220000D02*
X130040023Y-76999977D01*
%TO.N,/STM32/Bumper_3*%
X150670000Y-114120000D02*
X150670000Y-115820000D01*
X133770000Y-79820000D02*
X133770000Y-80020000D01*
X134220000Y-81330661D02*
X134470000Y-81580661D01*
X134220000Y-80470000D02*
X134220000Y-81330661D01*
X143270000Y-106720000D02*
X150670000Y-114120000D01*
X134470000Y-89812895D02*
X143270000Y-98612894D01*
X133770000Y-80020000D02*
X134220000Y-80470000D01*
X143270000Y-98612894D02*
X143270000Y-106720000D01*
X134470000Y-81580661D02*
X134470000Y-89812895D01*
%TO.N,/STM32/Bumper_4*%
X134970000Y-89605788D02*
X143770000Y-98405788D01*
X158112894Y-113912894D02*
X160000000Y-115800000D01*
X151170000Y-113912894D02*
X158112894Y-113912894D01*
X143770000Y-106512894D02*
X151170000Y-113912894D01*
X134970000Y-81020000D02*
X134970000Y-89605788D01*
X143770000Y-98405788D02*
X143770000Y-106512894D01*
%TO.N,/STM32/PD0*%
X119277106Y-62020000D02*
X119820000Y-62562894D01*
X119820000Y-62562894D02*
X119820000Y-78237767D01*
X117570000Y-60970000D02*
X117570000Y-61270000D01*
X117570000Y-61270000D02*
X118320000Y-62020000D01*
X119820000Y-78237767D02*
X122552233Y-80970000D01*
X118320000Y-62020000D02*
X119277106Y-62020000D01*
X122552233Y-80970000D02*
X123070000Y-80970000D01*
%TO.N,/STM32/PD1*%
X120320000Y-78030661D02*
X120320000Y-61770000D01*
X120070000Y-61520000D02*
X120320000Y-61770000D01*
X120320000Y-78030661D02*
X122259339Y-79970000D01*
X122259339Y-79970000D02*
X123570000Y-79970000D01*
X120070000Y-60970000D02*
X120070000Y-61520000D01*
%TO.N,/STM32/PD2*%
X127570000Y-61520000D02*
X126570000Y-62520000D01*
X124320000Y-78159339D02*
X124320000Y-78970000D01*
X121820000Y-75659339D02*
X124320000Y-78159339D01*
X127570000Y-60970000D02*
X127570000Y-61520000D01*
X126570000Y-62520000D02*
X122320000Y-62520000D01*
X121820000Y-63020000D02*
X121820000Y-75659339D01*
%TO.N,/STM32/PD3*%
X121320000Y-76220000D02*
X123320000Y-78220000D01*
X124570000Y-62020000D02*
X121820000Y-62020000D01*
X121820000Y-62020000D02*
X121320000Y-62520000D01*
X125070000Y-60970000D02*
X125070000Y-61520000D01*
X125070000Y-61520000D02*
X124570000Y-62020000D01*
X121320000Y-76220000D02*
X121320000Y-62520000D01*
%TO.N,/STM32/PD4*%
X120820000Y-62312894D02*
X120820000Y-77470000D01*
X122162894Y-60970000D02*
X120820000Y-62312894D01*
X120820000Y-77470000D02*
X121820000Y-78470000D01*
X122570000Y-60970000D02*
X122162894Y-60970000D01*
%TO.N,/STM32/PD6*%
X112570000Y-60970000D02*
X112570000Y-61770000D01*
D29*
%TO.N,/Alimentation/BMS/Secu_Vout*%
X155295000Y-70332500D02*
X155795000Y-70832500D01*
X152545000Y-70332500D02*
X155295000Y-70332500D01*
%TD*%
%TA.AperFunction,Conductor*%
%TO.N,Net-(J401-Pin_1)*%
G36*
X182073032Y-82970299D02*
G01*
X182134067Y-82976310D01*
X182252941Y-82988018D01*
X182276769Y-82992757D01*
X182441001Y-83042576D01*
X182463453Y-83051877D01*
X182614798Y-83132772D01*
X182635010Y-83146277D01*
X182767666Y-83255145D01*
X182784854Y-83272333D01*
X182893722Y-83404989D01*
X182907227Y-83425201D01*
X182988121Y-83576543D01*
X182997424Y-83599001D01*
X183047240Y-83763224D01*
X183051982Y-83787065D01*
X183069701Y-83966967D01*
X183069999Y-83973048D01*
X183070000Y-86720000D01*
X184268253Y-86720000D01*
X184320656Y-86731617D01*
X184411337Y-86773903D01*
X184639592Y-86835063D01*
X184816034Y-86850500D01*
X185183966Y-86850500D01*
X185360408Y-86835063D01*
X185588663Y-86773903D01*
X185679343Y-86731617D01*
X185731747Y-86720000D01*
X186316951Y-86720000D01*
X186323032Y-86720299D01*
X186384066Y-86726310D01*
X186502941Y-86738018D01*
X186526769Y-86742757D01*
X186691001Y-86792576D01*
X186713453Y-86801877D01*
X186779748Y-86837312D01*
X186864798Y-86882772D01*
X186885010Y-86896277D01*
X187017666Y-87005145D01*
X187034854Y-87022333D01*
X187143722Y-87154989D01*
X187157227Y-87175201D01*
X187238121Y-87326543D01*
X187247424Y-87349001D01*
X187297240Y-87513224D01*
X187301982Y-87537065D01*
X187319701Y-87716967D01*
X187320000Y-87723048D01*
X187320000Y-89216951D01*
X187319701Y-89223032D01*
X187301982Y-89402934D01*
X187297240Y-89426775D01*
X187247424Y-89590998D01*
X187238121Y-89613456D01*
X187157227Y-89764798D01*
X187143722Y-89785010D01*
X187034854Y-89917666D01*
X187017666Y-89934854D01*
X186885010Y-90043722D01*
X186864798Y-90057227D01*
X186713456Y-90138121D01*
X186690998Y-90147424D01*
X186526775Y-90197240D01*
X186502934Y-90201982D01*
X186323032Y-90219701D01*
X186316951Y-90220000D01*
X178323049Y-90220000D01*
X178316968Y-90219701D01*
X178137065Y-90201982D01*
X178113224Y-90197240D01*
X177949001Y-90147424D01*
X177926543Y-90138121D01*
X177775201Y-90057227D01*
X177754989Y-90043722D01*
X177622333Y-89934854D01*
X177605145Y-89917666D01*
X177496277Y-89785010D01*
X177482772Y-89764798D01*
X177477081Y-89754151D01*
X177401877Y-89613453D01*
X177392575Y-89590998D01*
X177365643Y-89502214D01*
X177342757Y-89426769D01*
X177338018Y-89402941D01*
X177320299Y-89223032D01*
X177320000Y-89216951D01*
X177320000Y-88970000D01*
X180164540Y-88970000D01*
X180184326Y-89158256D01*
X180184327Y-89158259D01*
X180242818Y-89338277D01*
X180242821Y-89338284D01*
X180337467Y-89502216D01*
X180417407Y-89590998D01*
X180464129Y-89642888D01*
X180617265Y-89754148D01*
X180617270Y-89754151D01*
X180790192Y-89831142D01*
X180790197Y-89831144D01*
X180975354Y-89870500D01*
X180975355Y-89870500D01*
X181164644Y-89870500D01*
X181164646Y-89870500D01*
X181349803Y-89831144D01*
X181522730Y-89754151D01*
X181675871Y-89642888D01*
X181802533Y-89502216D01*
X181897179Y-89338284D01*
X181955674Y-89158256D01*
X181975460Y-88970000D01*
X181955674Y-88781744D01*
X181897179Y-88601716D01*
X181802533Y-88437784D01*
X181675871Y-88297112D01*
X181654719Y-88281744D01*
X181522734Y-88185851D01*
X181522729Y-88185848D01*
X181349807Y-88108857D01*
X181349802Y-88108855D01*
X181204000Y-88077865D01*
X181164646Y-88069500D01*
X180975354Y-88069500D01*
X180942897Y-88076398D01*
X180790197Y-88108855D01*
X180790192Y-88108857D01*
X180617270Y-88185848D01*
X180617265Y-88185851D01*
X180464129Y-88297111D01*
X180337466Y-88437785D01*
X180242821Y-88601715D01*
X180242818Y-88601722D01*
X180193920Y-88752216D01*
X180184326Y-88781744D01*
X180164540Y-88970000D01*
X177320000Y-88970000D01*
X177320000Y-87220003D01*
X177320000Y-87220000D01*
X177320000Y-86220000D01*
X176569736Y-86220000D01*
X176522734Y-86185851D01*
X176522729Y-86185848D01*
X176349807Y-86108857D01*
X176349802Y-86108855D01*
X176204001Y-86077865D01*
X176164646Y-86069500D01*
X175975354Y-86069500D01*
X175942897Y-86076398D01*
X175790197Y-86108855D01*
X175790192Y-86108857D01*
X175617270Y-86185848D01*
X175602861Y-86196318D01*
X175537054Y-86219798D01*
X175529975Y-86220000D01*
X175110025Y-86220000D01*
X175042986Y-86200315D01*
X175037139Y-86196318D01*
X175022729Y-86185848D01*
X174849807Y-86108857D01*
X174849802Y-86108855D01*
X174704000Y-86077865D01*
X174664646Y-86069500D01*
X174475354Y-86069500D01*
X174442897Y-86076398D01*
X174290197Y-86108855D01*
X174290192Y-86108857D01*
X174117270Y-86185848D01*
X174102861Y-86196318D01*
X174037054Y-86219798D01*
X174029975Y-86220000D01*
X172823049Y-86220000D01*
X172816968Y-86219701D01*
X172637065Y-86201982D01*
X172613224Y-86197240D01*
X172449001Y-86147424D01*
X172426543Y-86138121D01*
X172275201Y-86057227D01*
X172254989Y-86043722D01*
X172122333Y-85934854D01*
X172105145Y-85917666D01*
X171996277Y-85785010D01*
X171982772Y-85764798D01*
X171901878Y-85613456D01*
X171892575Y-85590998D01*
X171842757Y-85426769D01*
X171838018Y-85402941D01*
X171820299Y-85223032D01*
X171820000Y-85216951D01*
X171820000Y-83973048D01*
X171820299Y-83966967D01*
X171824706Y-83922213D01*
X171838018Y-83787056D01*
X171842757Y-83763232D01*
X171892577Y-83598994D01*
X171901875Y-83576549D01*
X171982775Y-83425195D01*
X171996272Y-83404995D01*
X172105149Y-83272328D01*
X172122328Y-83255149D01*
X172254995Y-83146272D01*
X172275195Y-83132775D01*
X172426549Y-83051875D01*
X172448994Y-83042577D01*
X172613232Y-82992757D01*
X172637056Y-82988018D01*
X172751501Y-82976746D01*
X172816969Y-82970299D01*
X172823049Y-82970000D01*
X182066951Y-82970000D01*
X182073032Y-82970299D01*
G37*
%TD.AperFunction*%
%TD*%
%TA.AperFunction,Conductor*%
%TO.N,Net-(J402-Pin_1)*%
G36*
X182073032Y-102220299D02*
G01*
X182134067Y-102226310D01*
X182252941Y-102238018D01*
X182276769Y-102242757D01*
X182441001Y-102292576D01*
X182463453Y-102301877D01*
X182614798Y-102382772D01*
X182635010Y-102396277D01*
X182767666Y-102505145D01*
X182784854Y-102522333D01*
X182893722Y-102654989D01*
X182907227Y-102675201D01*
X182988121Y-102826543D01*
X182997424Y-102849001D01*
X183047240Y-103013224D01*
X183051982Y-103037065D01*
X183069701Y-103216967D01*
X183070000Y-103223047D01*
X183070000Y-105970000D01*
X183923481Y-105970000D01*
X183940996Y-105977072D01*
X183951738Y-105986635D01*
X184003597Y-106038494D01*
X184197169Y-106174034D01*
X184197171Y-106174035D01*
X184411337Y-106273903D01*
X184639592Y-106335063D01*
X184816034Y-106350500D01*
X185183966Y-106350500D01*
X185360408Y-106335063D01*
X185588663Y-106273903D01*
X185802829Y-106174035D01*
X185996401Y-106038495D01*
X185996405Y-106038490D01*
X186000835Y-106035389D01*
X186002182Y-106037313D01*
X186057033Y-106013291D01*
X186108755Y-106017627D01*
X186191001Y-106042576D01*
X186213453Y-106051877D01*
X186246424Y-106069500D01*
X186364798Y-106132772D01*
X186385010Y-106146277D01*
X186517666Y-106255145D01*
X186534854Y-106272333D01*
X186643722Y-106404989D01*
X186657227Y-106425201D01*
X186738121Y-106576543D01*
X186747424Y-106599001D01*
X186797240Y-106763224D01*
X186801982Y-106787065D01*
X186819701Y-106966967D01*
X186820000Y-106973048D01*
X186820000Y-108466951D01*
X186819701Y-108473032D01*
X186801982Y-108652934D01*
X186797240Y-108676775D01*
X186747424Y-108840998D01*
X186738121Y-108863456D01*
X186657227Y-109014798D01*
X186643722Y-109035010D01*
X186534854Y-109167666D01*
X186517666Y-109184854D01*
X186385010Y-109293722D01*
X186364798Y-109307227D01*
X186213456Y-109388121D01*
X186190998Y-109397424D01*
X186026775Y-109447240D01*
X186002934Y-109451982D01*
X185823032Y-109469701D01*
X185816951Y-109470000D01*
X178073049Y-109470000D01*
X178066968Y-109469701D01*
X177887065Y-109451982D01*
X177863224Y-109447240D01*
X177699001Y-109397424D01*
X177676543Y-109388121D01*
X177525201Y-109307227D01*
X177504989Y-109293722D01*
X177372333Y-109184854D01*
X177355145Y-109167666D01*
X177246277Y-109035010D01*
X177232772Y-109014798D01*
X177151878Y-108863456D01*
X177142575Y-108840998D01*
X177092757Y-108676769D01*
X177088018Y-108652941D01*
X177070299Y-108473032D01*
X177070000Y-108466951D01*
X177070000Y-106970000D01*
X179914540Y-106970000D01*
X179934326Y-107158256D01*
X179934327Y-107158259D01*
X179992818Y-107338277D01*
X179992821Y-107338284D01*
X180087467Y-107502216D01*
X180214128Y-107642887D01*
X180214129Y-107642888D01*
X180367265Y-107754148D01*
X180367270Y-107754151D01*
X180540192Y-107831142D01*
X180540197Y-107831144D01*
X180725354Y-107870500D01*
X180725355Y-107870500D01*
X180914644Y-107870500D01*
X180914646Y-107870500D01*
X181099803Y-107831144D01*
X181272730Y-107754151D01*
X181425871Y-107642888D01*
X181552533Y-107502216D01*
X181647179Y-107338284D01*
X181705674Y-107158256D01*
X181725460Y-106970000D01*
X181705674Y-106781744D01*
X181647179Y-106601716D01*
X181552533Y-106437784D01*
X181425871Y-106297112D01*
X181404719Y-106281744D01*
X181272734Y-106185851D01*
X181272729Y-106185848D01*
X181099807Y-106108857D01*
X181099802Y-106108855D01*
X180954000Y-106077865D01*
X180914646Y-106069500D01*
X180725354Y-106069500D01*
X180692897Y-106076398D01*
X180540197Y-106108855D01*
X180540192Y-106108857D01*
X180367270Y-106185848D01*
X180367265Y-106185851D01*
X180214129Y-106297111D01*
X180087466Y-106437785D01*
X179992821Y-106601715D01*
X179992818Y-106601722D01*
X179934327Y-106781740D01*
X179934326Y-106781744D01*
X179914540Y-106970000D01*
X177070000Y-106970000D01*
X177070000Y-105220003D01*
X177070000Y-105219999D01*
X177070000Y-104220000D01*
X176569736Y-104220000D01*
X176522734Y-104185851D01*
X176522729Y-104185848D01*
X176349807Y-104108857D01*
X176349802Y-104108855D01*
X176204000Y-104077865D01*
X176164646Y-104069500D01*
X175975354Y-104069500D01*
X175942897Y-104076398D01*
X175790197Y-104108855D01*
X175790192Y-104108857D01*
X175617270Y-104185848D01*
X175602861Y-104196318D01*
X175537054Y-104219798D01*
X175529975Y-104220000D01*
X175110025Y-104220000D01*
X175042986Y-104200315D01*
X175037139Y-104196318D01*
X175022729Y-104185848D01*
X174849807Y-104108857D01*
X174849802Y-104108855D01*
X174704001Y-104077865D01*
X174664646Y-104069500D01*
X174475354Y-104069500D01*
X174442897Y-104076398D01*
X174290197Y-104108855D01*
X174290192Y-104108857D01*
X174117270Y-104185848D01*
X174102861Y-104196318D01*
X174037054Y-104219798D01*
X174029975Y-104220000D01*
X173073049Y-104220000D01*
X173066968Y-104219701D01*
X172887065Y-104201982D01*
X172863224Y-104197240D01*
X172699001Y-104147424D01*
X172676543Y-104138121D01*
X172525201Y-104057227D01*
X172504989Y-104043722D01*
X172372333Y-103934854D01*
X172355145Y-103917666D01*
X172246277Y-103785010D01*
X172232772Y-103764798D01*
X172151878Y-103613456D01*
X172142575Y-103590998D01*
X172092757Y-103426769D01*
X172088018Y-103402941D01*
X172071197Y-103232153D01*
X172071197Y-103207846D01*
X172088018Y-103037056D01*
X172092757Y-103013232D01*
X172142577Y-102848994D01*
X172151875Y-102826549D01*
X172232775Y-102675195D01*
X172246272Y-102654995D01*
X172355149Y-102522328D01*
X172372328Y-102505149D01*
X172504995Y-102396272D01*
X172525195Y-102382775D01*
X172676549Y-102301875D01*
X172698994Y-102292577D01*
X172863232Y-102242757D01*
X172887056Y-102238018D01*
X173001501Y-102226746D01*
X173066969Y-102220299D01*
X173073049Y-102220000D01*
X182066951Y-102220000D01*
X182073032Y-102220299D01*
G37*
%TD.AperFunction*%
%TD*%
M02*
