%TF.GenerationSoftware,KiCad,Pcbnew,7.0.7*%
%TF.CreationDate,2023-10-25T17:12:00+02:00*%
%TF.ProjectId,kicad_chat-souris,6b696361-645f-4636-9861-742d736f7572,rev?*%
%TF.SameCoordinates,Original*%
%TF.FileFunction,Copper,L1,Top*%
%TF.FilePolarity,Positive*%
%FSLAX46Y46*%
G04 Gerber Fmt 4.6, Leading zero omitted, Abs format (unit mm)*
G04 Created by KiCad (PCBNEW 7.0.7) date 2023-10-25 17:12:00*
%MOMM*%
%LPD*%
G01*
G04 APERTURE LIST*
G04 Aperture macros list*
%AMRoundRect*
0 Rectangle with rounded corners*
0 $1 Rounding radius*
0 $2 $3 $4 $5 $6 $7 $8 $9 X,Y pos of 4 corners*
0 Add a 4 corners polygon primitive as box body*
4,1,4,$2,$3,$4,$5,$6,$7,$8,$9,$2,$3,0*
0 Add four circle primitives for the rounded corners*
1,1,$1+$1,$2,$3*
1,1,$1+$1,$4,$5*
1,1,$1+$1,$6,$7*
1,1,$1+$1,$8,$9*
0 Add four rect primitives between the rounded corners*
20,1,$1+$1,$2,$3,$4,$5,0*
20,1,$1+$1,$4,$5,$6,$7,0*
20,1,$1+$1,$6,$7,$8,$9,0*
20,1,$1+$1,$8,$9,$2,$3,0*%
%AMFreePoly0*
4,1,6,1.000000,0.000000,0.500000,-0.750000,-0.500000,-0.750000,-0.500000,0.750000,0.500000,0.750000,1.000000,0.000000,1.000000,0.000000,$1*%
%AMFreePoly1*
4,1,7,0.700000,0.000000,1.200000,-0.750000,-1.200000,-0.750000,-0.700000,0.000000,-1.200000,0.750000,1.200000,0.750000,0.700000,0.000000,0.700000,0.000000,$1*%
G04 Aperture macros list end*
%TA.AperFunction,SMDPad,CuDef*%
%ADD10RoundRect,0.250000X-1.250000X-0.550000X1.250000X-0.550000X1.250000X0.550000X-1.250000X0.550000X0*%
%TD*%
%TA.AperFunction,SMDPad,CuDef*%
%ADD11RoundRect,0.225000X-0.225000X-0.250000X0.225000X-0.250000X0.225000X0.250000X-0.225000X0.250000X0*%
%TD*%
%TA.AperFunction,SMDPad,CuDef*%
%ADD12RoundRect,0.200000X-0.275000X0.200000X-0.275000X-0.200000X0.275000X-0.200000X0.275000X0.200000X0*%
%TD*%
%TA.AperFunction,ComponentPad*%
%ADD13RoundRect,0.250000X-0.600000X-0.725000X0.600000X-0.725000X0.600000X0.725000X-0.600000X0.725000X0*%
%TD*%
%TA.AperFunction,ComponentPad*%
%ADD14O,1.700000X1.950000*%
%TD*%
%TA.AperFunction,SMDPad,CuDef*%
%ADD15RoundRect,0.200000X0.275000X-0.200000X0.275000X0.200000X-0.275000X0.200000X-0.275000X-0.200000X0*%
%TD*%
%TA.AperFunction,SMDPad,CuDef*%
%ADD16RoundRect,0.200000X-0.200000X-0.275000X0.200000X-0.275000X0.200000X0.275000X-0.200000X0.275000X0*%
%TD*%
%TA.AperFunction,ComponentPad*%
%ADD17RoundRect,0.250000X0.600000X0.725000X-0.600000X0.725000X-0.600000X-0.725000X0.600000X-0.725000X0*%
%TD*%
%TA.AperFunction,ComponentPad*%
%ADD18C,0.800000*%
%TD*%
%TA.AperFunction,ComponentPad*%
%ADD19C,6.400000*%
%TD*%
%TA.AperFunction,SMDPad,CuDef*%
%ADD20R,1.700000X0.900000*%
%TD*%
%TA.AperFunction,SMDPad,CuDef*%
%ADD21R,1.400000X1.200000*%
%TD*%
%TA.AperFunction,SMDPad,CuDef*%
%ADD22RoundRect,0.200000X0.200000X0.275000X-0.200000X0.275000X-0.200000X-0.275000X0.200000X-0.275000X0*%
%TD*%
%TA.AperFunction,SMDPad,CuDef*%
%ADD23RoundRect,0.225000X-0.250000X0.225000X-0.250000X-0.225000X0.250000X-0.225000X0.250000X0.225000X0*%
%TD*%
%TA.AperFunction,ComponentPad*%
%ADD24R,1.700000X1.700000*%
%TD*%
%TA.AperFunction,ComponentPad*%
%ADD25O,1.700000X1.700000*%
%TD*%
%TA.AperFunction,ComponentPad*%
%ADD26RoundRect,0.250000X-0.600000X-0.750000X0.600000X-0.750000X0.600000X0.750000X-0.600000X0.750000X0*%
%TD*%
%TA.AperFunction,ComponentPad*%
%ADD27O,1.700000X2.000000*%
%TD*%
%TA.AperFunction,ComponentPad*%
%ADD28RoundRect,0.250000X0.725000X-0.600000X0.725000X0.600000X-0.725000X0.600000X-0.725000X-0.600000X0*%
%TD*%
%TA.AperFunction,ComponentPad*%
%ADD29O,1.950000X1.700000*%
%TD*%
%TA.AperFunction,ComponentPad*%
%ADD30RoundRect,0.250000X0.600000X0.750000X-0.600000X0.750000X-0.600000X-0.750000X0.600000X-0.750000X0*%
%TD*%
%TA.AperFunction,SMDPad,CuDef*%
%ADD31RoundRect,0.218750X-0.218750X-0.256250X0.218750X-0.256250X0.218750X0.256250X-0.218750X0.256250X0*%
%TD*%
%TA.AperFunction,SMDPad,CuDef*%
%ADD32RoundRect,0.225000X0.250000X-0.225000X0.250000X0.225000X-0.250000X0.225000X-0.250000X-0.225000X0*%
%TD*%
%TA.AperFunction,SMDPad,CuDef*%
%ADD33R,1.505000X0.802000*%
%TD*%
%TA.AperFunction,SMDPad,CuDef*%
%ADD34R,2.613000X3.502000*%
%TD*%
%TA.AperFunction,SMDPad,CuDef*%
%ADD35RoundRect,0.150000X-0.725000X-0.150000X0.725000X-0.150000X0.725000X0.150000X-0.725000X0.150000X0*%
%TD*%
%TA.AperFunction,ComponentPad*%
%ADD36R,1.800000X4.400000*%
%TD*%
%TA.AperFunction,ComponentPad*%
%ADD37O,1.800000X4.000000*%
%TD*%
%TA.AperFunction,ComponentPad*%
%ADD38O,4.000000X1.800000*%
%TD*%
%TA.AperFunction,SMDPad,CuDef*%
%ADD39RoundRect,0.218750X0.218750X0.256250X-0.218750X0.256250X-0.218750X-0.256250X0.218750X-0.256250X0*%
%TD*%
%TA.AperFunction,SMDPad,CuDef*%
%ADD40RoundRect,0.075000X0.350000X0.075000X-0.350000X0.075000X-0.350000X-0.075000X0.350000X-0.075000X0*%
%TD*%
%TA.AperFunction,SMDPad,CuDef*%
%ADD41RoundRect,0.075000X-0.075000X0.350000X-0.075000X-0.350000X0.075000X-0.350000X0.075000X0.350000X0*%
%TD*%
%TA.AperFunction,SMDPad,CuDef*%
%ADD42RoundRect,0.250000X0.375000X0.625000X-0.375000X0.625000X-0.375000X-0.625000X0.375000X-0.625000X0*%
%TD*%
%TA.AperFunction,SMDPad,CuDef*%
%ADD43RoundRect,0.075000X0.075000X-0.700000X0.075000X0.700000X-0.075000X0.700000X-0.075000X-0.700000X0*%
%TD*%
%TA.AperFunction,SMDPad,CuDef*%
%ADD44RoundRect,0.075000X0.700000X-0.075000X0.700000X0.075000X-0.700000X0.075000X-0.700000X-0.075000X0*%
%TD*%
%TA.AperFunction,SMDPad,CuDef*%
%ADD45R,2.400000X0.740000*%
%TD*%
%TA.AperFunction,SMDPad,CuDef*%
%ADD46FreePoly0,0.000000*%
%TD*%
%TA.AperFunction,SMDPad,CuDef*%
%ADD47FreePoly1,0.000000*%
%TD*%
%TA.AperFunction,SMDPad,CuDef*%
%ADD48FreePoly0,180.000000*%
%TD*%
%TA.AperFunction,ComponentPad*%
%ADD49RoundRect,0.250000X-0.725000X0.600000X-0.725000X-0.600000X0.725000X-0.600000X0.725000X0.600000X0*%
%TD*%
%TA.AperFunction,SMDPad,CuDef*%
%ADD50RoundRect,0.150000X0.587500X0.150000X-0.587500X0.150000X-0.587500X-0.150000X0.587500X-0.150000X0*%
%TD*%
%TA.AperFunction,SMDPad,CuDef*%
%ADD51RoundRect,0.250000X0.625000X-0.312500X0.625000X0.312500X-0.625000X0.312500X-0.625000X-0.312500X0*%
%TD*%
%TA.AperFunction,SMDPad,CuDef*%
%ADD52RoundRect,0.150000X-0.587500X-0.150000X0.587500X-0.150000X0.587500X0.150000X-0.587500X0.150000X0*%
%TD*%
%TA.AperFunction,SMDPad,CuDef*%
%ADD53RoundRect,0.250000X0.550000X-1.250000X0.550000X1.250000X-0.550000X1.250000X-0.550000X-1.250000X0*%
%TD*%
%TA.AperFunction,SMDPad,CuDef*%
%ADD54RoundRect,0.100000X0.100000X-0.712500X0.100000X0.712500X-0.100000X0.712500X-0.100000X-0.712500X0*%
%TD*%
%TA.AperFunction,SMDPad,CuDef*%
%ADD55RoundRect,0.225000X0.225000X0.250000X-0.225000X0.250000X-0.225000X-0.250000X0.225000X-0.250000X0*%
%TD*%
%TA.AperFunction,SMDPad,CuDef*%
%ADD56RoundRect,0.125000X-0.537500X-0.125000X0.537500X-0.125000X0.537500X0.125000X-0.537500X0.125000X0*%
%TD*%
%TA.AperFunction,SMDPad,CuDef*%
%ADD57RoundRect,0.218750X0.256250X-0.218750X0.256250X0.218750X-0.256250X0.218750X-0.256250X-0.218750X0*%
%TD*%
%TA.AperFunction,SMDPad,CuDef*%
%ADD58RoundRect,0.250000X0.850000X-0.375000X0.850000X0.375000X-0.850000X0.375000X-0.850000X-0.375000X0*%
%TD*%
%TA.AperFunction,SMDPad,CuDef*%
%ADD59RoundRect,0.250000X0.650000X-1.000000X0.650000X1.000000X-0.650000X1.000000X-0.650000X-1.000000X0*%
%TD*%
%TA.AperFunction,SMDPad,CuDef*%
%ADD60RoundRect,0.150000X-0.150000X0.512500X-0.150000X-0.512500X0.150000X-0.512500X0.150000X0.512500X0*%
%TD*%
%TA.AperFunction,ViaPad*%
%ADD61C,0.800000*%
%TD*%
%TA.AperFunction,Conductor*%
%ADD62C,0.300000*%
%TD*%
%TA.AperFunction,Conductor*%
%ADD63C,1.000000*%
%TD*%
%TA.AperFunction,Conductor*%
%ADD64C,0.200000*%
%TD*%
%TA.AperFunction,Conductor*%
%ADD65C,0.250000*%
%TD*%
G04 APERTURE END LIST*
D10*
%TO.P,C505,1*%
%TO.N,+5V*%
X112120000Y-98720000D03*
%TO.P,C505,2*%
%TO.N,GND*%
X116520000Y-98720000D03*
%TD*%
D11*
%TO.P,C2,1*%
%TO.N,+3V3*%
X127795000Y-95220000D03*
%TO.P,C2,2*%
%TO.N,GND*%
X129345000Y-95220000D03*
%TD*%
%TO.P,C1,1*%
%TO.N,+3V3*%
X127770000Y-93470000D03*
%TO.P,C1,2*%
%TO.N,GND*%
X129320000Y-93470000D03*
%TD*%
D12*
%TO.P,R804,1*%
%TO.N,Li_Ion+*%
X159295000Y-65757500D03*
%TO.P,R804,2*%
%TO.N,/Alimentation/BMS/Secu_Sense*%
X159295000Y-67407500D03*
%TD*%
D13*
%TO.P,J601,1,Pin_1*%
%TO.N,GND*%
X112500000Y-116000000D03*
D14*
%TO.P,J601,2,Pin_2*%
%TO.N,+3V3*%
X115000000Y-116000000D03*
%TO.P,J601,3,Pin_3*%
%TO.N,/STM32/Bordure_1*%
X117500000Y-116000000D03*
%TD*%
D15*
%TO.P,R302,1*%
%TO.N,Net-(U301-VCC)*%
X149432500Y-87870000D03*
%TO.P,R302,2*%
%TO.N,Net-(U301-PG)*%
X149432500Y-86220000D03*
%TD*%
D16*
%TO.P,R501,1*%
%TO.N,/STM32/Bumper_1*%
X131745000Y-111470000D03*
%TO.P,R501,2*%
%TO.N,+3V3*%
X133395000Y-111470000D03*
%TD*%
D15*
%TO.P,R803,1*%
%TO.N,/Alimentation/BMS/Secu_Vc*%
X152070000Y-64295000D03*
%TO.P,R803,2*%
%TO.N,Li_Ion_INTER*%
X152070000Y-62645000D03*
%TD*%
D17*
%TO.P,J803,1,Pin_1*%
%TO.N,Li_Ion-*%
X155000000Y-55000000D03*
D14*
%TO.P,J803,2,Pin_2*%
%TO.N,Li_Ion_INTER*%
X152500000Y-55000000D03*
%TO.P,J803,3,Pin_3*%
%TO.N,Li_Ion+*%
X150000000Y-55000000D03*
%TD*%
D18*
%TO.P,REF\u002A\u002A,1*%
%TO.N,N/C*%
X102600000Y-55000000D03*
X103302944Y-53302944D03*
X103302944Y-56697056D03*
X105000000Y-52600000D03*
D19*
X105000000Y-55000000D03*
D18*
X105000000Y-57400000D03*
X106697056Y-53302944D03*
X106697056Y-56697056D03*
X107400000Y-55000000D03*
%TD*%
D20*
%TO.P,SW201,1,A*%
%TO.N,GND*%
X122970000Y-97120000D03*
%TO.P,SW201,2,B*%
%TO.N,/STM32/NRST*%
X122970000Y-93720000D03*
%TD*%
D21*
%TO.P,Y201,1,1*%
%TO.N,/STM32/OSC_IN*%
X129170000Y-98670000D03*
%TO.P,Y201,2,2*%
%TO.N,GND*%
X131370000Y-98670000D03*
%TO.P,Y201,3,3*%
%TO.N,Net-(C205-Pad1)*%
X131370000Y-96970000D03*
%TO.P,Y201,4,4*%
%TO.N,GND*%
X129170000Y-96970000D03*
%TD*%
D22*
%TO.P,R504,1*%
%TO.N,/STM32/Bumper_4*%
X159895000Y-111720000D03*
%TO.P,R504,2*%
%TO.N,+3V3*%
X158245000Y-111720000D03*
%TD*%
D11*
%TO.P,C802,1*%
%TO.N,/Alimentation/BMS/Secu_VDD*%
X155495000Y-75082500D03*
%TO.P,C802,2*%
%TO.N,/Alimentation/BMS/Secu_Vc*%
X157045000Y-75082500D03*
%TD*%
D23*
%TO.P,C303,1*%
%TO.N,+BATT*%
X149432500Y-90770000D03*
%TO.P,C303,2*%
%TO.N,GND*%
X149432500Y-92320000D03*
%TD*%
D24*
%TO.P,J2,1,Pin_1*%
%TO.N,GND*%
X127710000Y-52420000D03*
D25*
%TO.P,J2,2,Pin_2*%
%TO.N,Net-(J2-Pin_2)*%
X127710000Y-54960000D03*
%TO.P,J2,3,Pin_3*%
%TO.N,GND*%
X125170000Y-52420000D03*
%TO.P,J2,4,Pin_4*%
%TO.N,Net-(J2-Pin_4)*%
X125170000Y-54960000D03*
%TO.P,J2,5,Pin_5*%
%TO.N,GND*%
X122630000Y-52420000D03*
%TO.P,J2,6,Pin_6*%
%TO.N,Net-(J2-Pin_6)*%
X122630000Y-54960000D03*
%TO.P,J2,7,Pin_7*%
%TO.N,GND*%
X120090000Y-52420000D03*
%TO.P,J2,8,Pin_8*%
%TO.N,Net-(J2-Pin_8)*%
X120090000Y-54960000D03*
%TO.P,J2,9,Pin_9*%
%TO.N,GND*%
X117550000Y-52420000D03*
%TO.P,J2,10,Pin_10*%
%TO.N,Net-(J2-Pin_10)*%
X117550000Y-54960000D03*
%TO.P,J2,11,Pin_11*%
%TO.N,GND*%
X115010000Y-52420000D03*
%TO.P,J2,12,Pin_12*%
%TO.N,Net-(J2-Pin_12)*%
X115010000Y-54960000D03*
%TO.P,J2,13,Pin_13*%
%TO.N,GND*%
X112470000Y-52420000D03*
%TO.P,J2,14,Pin_14*%
%TO.N,Net-(J2-Pin_14)*%
X112470000Y-54960000D03*
%TD*%
D23*
%TO.P,C503,1*%
%TO.N,Net-(U501-REGOUT)*%
X127320000Y-66245000D03*
%TO.P,C503,2*%
%TO.N,GND*%
X127320000Y-67795000D03*
%TD*%
D22*
%TO.P,R503,1*%
%TO.N,/STM32/Bumper_2*%
X140995000Y-111620000D03*
%TO.P,R503,2*%
%TO.N,+3V3*%
X139345000Y-111620000D03*
%TD*%
D15*
%TO.P,R2,2*%
%TO.N,Net-(J2-Pin_4)*%
X125060000Y-57570000D03*
%TO.P,R2,1*%
%TO.N,/STM32/PD3*%
X125060000Y-59220000D03*
%TD*%
D26*
%TO.P,J505,1,Pin_1*%
%TO.N,GND*%
X157500000Y-115800000D03*
D27*
%TO.P,J505,2,Pin_2*%
%TO.N,/STM32/Bumper_4*%
X160000000Y-115800000D03*
%TD*%
D28*
%TO.P,J401,1,Pin_1*%
%TO.N,Net-(J401-Pin_1)*%
X185000000Y-88000000D03*
D29*
%TO.P,J401,2,Pin_2*%
%TO.N,GND*%
X185000000Y-85500000D03*
%TO.P,J401,3,Pin_3*%
%TO.N,/Drivers and motors connectors/ENCODER_1_A*%
X185000000Y-83000000D03*
%TO.P,J401,4,Pin_4*%
%TO.N,/Drivers and motors connectors/ENCODER_1_B*%
X185000000Y-80500000D03*
%TO.P,J401,5,Pin_5*%
%TO.N,+3V3*%
X185000000Y-78000000D03*
%TO.P,J401,6,Pin_6*%
%TO.N,Net-(J401-Pin_6)*%
X185000000Y-75500000D03*
%TD*%
D30*
%TO.P,J802,1,Pin_1*%
%TO.N,GND*%
X165000000Y-55000000D03*
D27*
%TO.P,J802,2,Pin_2*%
%TO.N,NiMh+*%
X162500000Y-55000000D03*
%TD*%
D26*
%TO.P,J501,1,Pin_1*%
%TO.N,GND*%
X129150000Y-115800000D03*
D27*
%TO.P,J501,2,Pin_2*%
%TO.N,/STM32/Bumper_1*%
X131650000Y-115800000D03*
%TD*%
D23*
%TO.P,C202,1*%
%TO.N,Net-(SW203-B)*%
X114570000Y-72795000D03*
%TO.P,C202,2*%
%TO.N,GND*%
X114570000Y-74345000D03*
%TD*%
D18*
%TO.P,REF\u002A\u002A,1*%
%TO.N,N/C*%
X182600000Y-115000000D03*
X183302944Y-113302944D03*
X183302944Y-116697056D03*
X185000000Y-112600000D03*
D19*
X185000000Y-115000000D03*
D18*
X185000000Y-117400000D03*
X186697056Y-113302944D03*
X186697056Y-116697056D03*
X187400000Y-115000000D03*
%TD*%
D17*
%TO.P,J602,1,Pin_1*%
%TO.N,GND*%
X140000000Y-55000000D03*
D14*
%TO.P,J602,2,Pin_2*%
%TO.N,+3V3*%
X137500000Y-55000000D03*
%TO.P,J602,3,Pin_3*%
%TO.N,/STM32/Bordure_2*%
X135000000Y-55000000D03*
%TD*%
D10*
%TO.P,C805,1*%
%TO.N,BAT+*%
X172370000Y-61970000D03*
%TO.P,C805,2*%
%TO.N,GND*%
X176770000Y-61970000D03*
%TD*%
D18*
%TO.P,REF\u002A\u002A,1*%
%TO.N,N/C*%
X182600000Y-55000000D03*
X183302944Y-53302944D03*
X183302944Y-56697056D03*
X185000000Y-52600000D03*
D19*
X185000000Y-55000000D03*
D18*
X185000000Y-57400000D03*
X186697056Y-53302944D03*
X186697056Y-56697056D03*
X187400000Y-55000000D03*
%TD*%
D15*
%TO.P,R305,1*%
%TO.N,GND*%
X157432500Y-87870000D03*
%TO.P,R305,2*%
%TO.N,Net-(C305-Pad1)*%
X157432500Y-86220000D03*
%TD*%
D31*
%TO.P,D201,1,K*%
%TO.N,Net-(D201-K)*%
X122782500Y-104470000D03*
%TO.P,D201,2,A*%
%TO.N,Net-(D201-A)*%
X124357500Y-104470000D03*
%TD*%
D24*
%TO.P,U701,1,Key*%
%TO.N,unconnected-(U701-Key-Pad1)*%
X142320000Y-64020000D03*
D25*
%TO.P,U701,2,Vcc(5v)*%
%TO.N,+5V*%
X142320000Y-66560000D03*
%TO.P,U701,3,GND*%
%TO.N,GND*%
X142320000Y-69100000D03*
%TO.P,U701,4,Tx*%
%TO.N,/STM32/USART3_RX*%
X142320000Y-71640000D03*
%TO.P,U701,5,Rx*%
%TO.N,/STM32/USART3_TX*%
X142320000Y-74180000D03*
%TO.P,U701,6,STATE*%
%TO.N,unconnected-(U701-STATE-Pad6)*%
X142320000Y-76720000D03*
%TD*%
D11*
%TO.P,C404,1*%
%TO.N,Net-(J402-Pin_1)*%
X172822500Y-102220000D03*
%TO.P,C404,2*%
%TO.N,GND*%
X174372500Y-102220000D03*
%TD*%
D32*
%TO.P,C304,1*%
%TO.N,Net-(C304-Pad1)*%
X151682500Y-96070000D03*
%TO.P,C304,2*%
%TO.N,Net-(U301-SW)*%
X151682500Y-94520000D03*
%TD*%
%TO.P,C504,1*%
%TO.N,Net-(U501-CPOUT)*%
X127320000Y-71295000D03*
%TO.P,C504,2*%
%TO.N,GND*%
X127320000Y-69745000D03*
%TD*%
D15*
%TO.P,R4,2*%
%TO.N,Net-(J2-Pin_8)*%
X120040000Y-57570000D03*
%TO.P,R4,1*%
%TO.N,/STM32/PD1*%
X120040000Y-59220000D03*
%TD*%
%TO.P,R304,1*%
%TO.N,Net-(U301-FB)*%
X151432500Y-87870000D03*
%TO.P,R304,2*%
%TO.N,Net-(C305-Pad1)*%
X151432500Y-86220000D03*
%TD*%
D16*
%TO.P,R506,1*%
%TO.N,/STM32/I2C_SCL*%
X128245000Y-73520000D03*
%TO.P,R506,2*%
%TO.N,+3V3*%
X129895000Y-73520000D03*
%TD*%
D33*
%TO.P,U401,1,OUT1*%
%TO.N,Net-(J401-Pin_1)*%
X172822500Y-86410000D03*
%TO.P,U401,2,VM*%
%TO.N,+BATT*%
X172822500Y-87680000D03*
%TO.P,U401,3,VDD*%
%TO.N,+3V3*%
X172822500Y-88950000D03*
%TO.P,U401,4,FWD*%
%TO.N,/Drivers and motors connectors/MOTOR_1_FWD*%
X172822500Y-90220000D03*
%TO.P,U401,5,REV*%
%TO.N,/Drivers and motors connectors/MOTOR_1_REV*%
X177817500Y-90220000D03*
%TO.P,U401,6,VREF*%
%TO.N,+3V3*%
X177817500Y-88950000D03*
%TO.P,U401,7,OUT2*%
%TO.N,Net-(J401-Pin_6)*%
X177817500Y-87680000D03*
%TO.P,U401,8,GND*%
%TO.N,GND*%
X177817500Y-86410000D03*
D34*
%TO.P,U401,9,GND*%
X175320000Y-88315000D03*
%TD*%
D35*
%TO.P,U801,1,BAT*%
%TO.N,BAT+*%
X167670000Y-67910000D03*
%TO.P,U801,2,\u002ACHRG*%
%TO.N,Net-(D801-K)*%
X167670000Y-69180000D03*
%TO.P,U801,3,TIMER*%
%TO.N,Net-(U801-TIMER)*%
X167670000Y-70450000D03*
%TO.P,U801,4,GND*%
%TO.N,GND*%
X167670000Y-71720000D03*
%TO.P,U801,5,PROG*%
%TO.N,Net-(U801-PROG)*%
X172820000Y-71720000D03*
%TO.P,U801,6,DRV*%
%TO.N,Net-(Q803-G)*%
X172820000Y-70450000D03*
%TO.P,U801,7,VCC*%
%TO.N,Net-(D802-K)*%
X172820000Y-69180000D03*
%TO.P,U801,8,SENSE*%
%TO.N,Net-(Q803-S)*%
X172820000Y-67910000D03*
%TD*%
D36*
%TO.P,J801,1*%
%TO.N,V_ALIM*%
X180500000Y-66000000D03*
D37*
%TO.P,J801,2*%
%TO.N,GND*%
X186300000Y-66000000D03*
D38*
%TO.P,J801,3*%
X183500000Y-61200000D03*
%TD*%
D26*
%TO.P,J502,1,Pin_1*%
%TO.N,GND*%
X148170000Y-115820000D03*
D27*
%TO.P,J502,2,Pin_2*%
%TO.N,/STM32/Bumper_3*%
X150670000Y-115820000D03*
%TD*%
D39*
%TO.P,D202,1,K*%
%TO.N,Net-(D202-K)*%
X130857500Y-104470000D03*
%TO.P,D202,2,A*%
%TO.N,Net-(D202-A)*%
X129282500Y-104470000D03*
%TD*%
D40*
%TO.P,U501,1,CLKIN*%
%TO.N,GND*%
X133270000Y-70520000D03*
%TO.P,U501,2,NC*%
%TO.N,unconnected-(U501-NC-Pad2)*%
X133270000Y-70020000D03*
%TO.P,U501,3,NC*%
%TO.N,unconnected-(U501-NC-Pad3)*%
X133270000Y-69520000D03*
%TO.P,U501,4,NC*%
%TO.N,unconnected-(U501-NC-Pad4)*%
X133270000Y-69020000D03*
%TO.P,U501,5,NC*%
%TO.N,unconnected-(U501-NC-Pad5)*%
X133270000Y-68520000D03*
%TO.P,U501,6,AUX_DA*%
%TO.N,unconnected-(U501-AUX_DA-Pad6)*%
X133270000Y-68020000D03*
D41*
%TO.P,U501,7,AUX_CL*%
%TO.N,unconnected-(U501-AUX_CL-Pad7)*%
X132570000Y-67320000D03*
%TO.P,U501,8,VLOGIC*%
%TO.N,+3V3*%
X132070000Y-67320000D03*
%TO.P,U501,9,AD0*%
%TO.N,GND*%
X131570000Y-67320000D03*
%TO.P,U501,10,REGOUT*%
%TO.N,Net-(U501-REGOUT)*%
X131070000Y-67320000D03*
%TO.P,U501,11,FSYNC*%
%TO.N,GND*%
X130570000Y-67320000D03*
%TO.P,U501,12,INT*%
%TO.N,unconnected-(U501-INT-Pad12)*%
X130070000Y-67320000D03*
D40*
%TO.P,U501,13,VDD*%
%TO.N,+3V3*%
X129370000Y-68020000D03*
%TO.P,U501,14,NC*%
%TO.N,unconnected-(U501-NC-Pad14)*%
X129370000Y-68520000D03*
%TO.P,U501,15,NC*%
%TO.N,unconnected-(U501-NC-Pad15)*%
X129370000Y-69020000D03*
%TO.P,U501,16,NC*%
%TO.N,unconnected-(U501-NC-Pad16)*%
X129370000Y-69520000D03*
%TO.P,U501,17,NC*%
%TO.N,unconnected-(U501-NC-Pad17)*%
X129370000Y-70020000D03*
%TO.P,U501,18,GND*%
%TO.N,GND*%
X129370000Y-70520000D03*
D41*
%TO.P,U501,19,RESV*%
%TO.N,unconnected-(U501-RESV-Pad19)*%
X130070000Y-71220000D03*
%TO.P,U501,20,CPOUT*%
%TO.N,Net-(U501-CPOUT)*%
X130570000Y-71220000D03*
%TO.P,U501,21,RESV*%
%TO.N,unconnected-(U501-RESV-Pad21)*%
X131070000Y-71220000D03*
%TO.P,U501,22,RESV*%
%TO.N,unconnected-(U501-RESV-Pad22)*%
X131570000Y-71220000D03*
%TO.P,U501,23,SCL*%
%TO.N,/STM32/I2C_SCL*%
X132070000Y-71220000D03*
%TO.P,U501,24,SDA*%
%TO.N,/STM32/I2C_SDA*%
X132570000Y-71220000D03*
%TD*%
D18*
%TO.P,REF\u002A\u002A,1*%
%TO.N,N/C*%
X102600000Y-115000000D03*
X103302944Y-113302944D03*
X103302944Y-116697056D03*
X105000000Y-112600000D03*
D19*
X105000000Y-115000000D03*
D18*
X105000000Y-117400000D03*
X106697056Y-113302944D03*
X106697056Y-116697056D03*
X107400000Y-115000000D03*
%TD*%
D11*
%TO.P,C403,1*%
%TO.N,Net-(J401-Pin_1)*%
X172770000Y-84220000D03*
%TO.P,C403,2*%
%TO.N,GND*%
X174320000Y-84220000D03*
%TD*%
D42*
%TO.P,F801,1*%
%TO.N,BAT+*%
X169720000Y-59970000D03*
%TO.P,F801,2*%
%TO.N,Net-(JP801-C)*%
X166920000Y-59970000D03*
%TD*%
D43*
%TO.P,IC201,1,PC11*%
%TO.N,unconnected-(IC201-PC11-Pad1)*%
X125320000Y-91395000D03*
%TO.P,IC201,2,PC12*%
%TO.N,/STM32/LIDAR_PWM*%
X125820000Y-91395000D03*
%TO.P,IC201,3,PC13*%
%TO.N,/STM32/LIDAR_MESURE_ENABLE*%
X126320000Y-91395000D03*
%TO.P,IC201,4,PC14-OSC32_IN*%
%TO.N,/STM32/LIDAR_MOTOR_ENABLE*%
X126820000Y-91395000D03*
%TO.P,IC201,5,PC15-OSC32_OUT*%
%TO.N,unconnected-(IC201-PC15-OSC32_OUT-Pad5)*%
X127320000Y-91395000D03*
%TO.P,IC201,6,VBAT*%
%TO.N,unconnected-(IC201-VBAT-Pad6)*%
X127820000Y-91395000D03*
%TO.P,IC201,7,VREF+*%
%TO.N,unconnected-(IC201-VREF+-Pad7)*%
X128320000Y-91395000D03*
%TO.P,IC201,8,VDD/VDDA*%
%TO.N,+3V3*%
X128820000Y-91395000D03*
%TO.P,IC201,9,VSS/VSSA*%
%TO.N,GND*%
X129320000Y-91395000D03*
%TO.P,IC201,10,PF0-OSC_IN*%
%TO.N,/STM32/OSC_IN*%
X129820000Y-91395000D03*
%TO.P,IC201,11,PF1-OSC_OUT*%
%TO.N,/STM32/OSC_OUT*%
X130320000Y-91395000D03*
%TO.P,IC201,12,NRST*%
%TO.N,/STM32/NRST*%
X130820000Y-91395000D03*
%TO.P,IC201,13,PC0*%
%TO.N,unconnected-(IC201-PC0-Pad13)*%
X131320000Y-91395000D03*
%TO.P,IC201,14,PC1*%
%TO.N,/Drivers and motors connectors/MOTOR_1_FWD*%
X131820000Y-91395000D03*
%TO.P,IC201,15,PC2*%
%TO.N,/Drivers and motors connectors/MOTOR_1_REV*%
X132320000Y-91395000D03*
%TO.P,IC201,16,PC3*%
%TO.N,unconnected-(IC201-PC3-Pad16)*%
X132820000Y-91395000D03*
D44*
%TO.P,IC201,17,PA0*%
%TO.N,Net-(D201-A)*%
X134745000Y-89470000D03*
%TO.P,IC201,18,PA1*%
%TO.N,Net-(D202-A)*%
X134745000Y-88970000D03*
%TO.P,IC201,19,PA2*%
%TO.N,/STM32/USART2_TX*%
X134745000Y-88470000D03*
%TO.P,IC201,20,PA3*%
%TO.N,/STM32/USART2_RX*%
X134745000Y-87970000D03*
%TO.P,IC201,21,PA4*%
%TO.N,unconnected-(IC201-PA4-Pad21)*%
X134745000Y-87470000D03*
%TO.P,IC201,22,PA5*%
%TO.N,unconnected-(IC201-PA5-Pad22)*%
X134745000Y-86970000D03*
%TO.P,IC201,23,PA6*%
%TO.N,/Drivers and motors connectors/ENCODER_2_A*%
X134745000Y-86470000D03*
%TO.P,IC201,24,PA7*%
%TO.N,/Drivers and motors connectors/ENCODER_2_B*%
X134745000Y-85970000D03*
%TO.P,IC201,25,PC4*%
%TO.N,/STM32/USART3_TX*%
X134745000Y-85470000D03*
%TO.P,IC201,26,PC5*%
%TO.N,/STM32/USART3_RX*%
X134745000Y-84970000D03*
%TO.P,IC201,27,PB0*%
%TO.N,unconnected-(IC201-PB0-Pad27)*%
X134745000Y-84470000D03*
%TO.P,IC201,28,PB1*%
%TO.N,unconnected-(IC201-PB1-Pad28)*%
X134745000Y-83970000D03*
%TO.P,IC201,29,PB2*%
%TO.N,unconnected-(IC201-PB2-Pad29)*%
X134745000Y-83470000D03*
%TO.P,IC201,30,PB10*%
%TO.N,/STM32/I2C_SCL*%
X134745000Y-82970000D03*
%TO.P,IC201,31,PB11*%
%TO.N,/STM32/I2C_SDA*%
X134745000Y-82470000D03*
%TO.P,IC201,32,PB12*%
%TO.N,unconnected-(IC201-PB12-Pad32)*%
X134745000Y-81970000D03*
D43*
%TO.P,IC201,33,PB13*%
%TO.N,/STM32/Bumper_3*%
X132820000Y-80045000D03*
%TO.P,IC201,34,PB14*%
%TO.N,/STM32/Bumper_4*%
X132320000Y-80045000D03*
%TO.P,IC201,35,PB15*%
%TO.N,/STM32/Bordure_3*%
X131820000Y-80045000D03*
%TO.P,IC201,36,PA8*%
%TO.N,/Drivers and motors connectors/ENCODER_1_B*%
X131320000Y-80045000D03*
%TO.P,IC201,37,PA9*%
%TO.N,/Drivers and motors connectors/ENCODER_1_A*%
X130820000Y-80045000D03*
%TO.P,IC201,38,PC6*%
%TO.N,/STM32/Bumper_2*%
X130320000Y-80045000D03*
%TO.P,IC201,39,PC7*%
%TO.N,/STM32/Bumper_1*%
X129820000Y-80045000D03*
%TO.P,IC201,40,PD8*%
%TO.N,/STM32/Bordure_1*%
X129320000Y-80045000D03*
%TO.P,IC201,41,PD9*%
%TO.N,/STM32/Bordure_2*%
X128820000Y-80045000D03*
%TO.P,IC201,42,PA10*%
%TO.N,/STM32/BTN_1*%
X128320000Y-80045000D03*
%TO.P,IC201,43,PA11_[PA9]*%
%TO.N,/STM32/BTN_2*%
X127820000Y-80045000D03*
%TO.P,IC201,44,PA12_[PA10]*%
%TO.N,/STM32/BTN_3*%
X127320000Y-80045000D03*
%TO.P,IC201,45,PA13*%
%TO.N,/STM32/SWDIO*%
X126820000Y-80045000D03*
%TO.P,IC201,46,PA14-BOOT0*%
%TO.N,/STM32/SWCLK*%
X126320000Y-80045000D03*
%TO.P,IC201,47,PA15*%
%TO.N,unconnected-(IC201-PA15-Pad47)*%
X125820000Y-80045000D03*
%TO.P,IC201,48,PC8*%
%TO.N,unconnected-(IC201-PC8-Pad48)*%
X125320000Y-80045000D03*
D44*
%TO.P,IC201,49,PC9*%
%TO.N,unconnected-(IC201-PC9-Pad49)*%
X123395000Y-81970000D03*
%TO.P,IC201,50,PD0*%
%TO.N,/STM32/PD0*%
X123395000Y-82470000D03*
%TO.P,IC201,51,PD1*%
%TO.N,/STM32/PD1*%
X123395000Y-82970000D03*
%TO.P,IC201,52,PD2*%
%TO.N,/STM32/PD2*%
X123395000Y-83470000D03*
%TO.P,IC201,53,PD3*%
%TO.N,/STM32/PD3*%
X123395000Y-83970000D03*
%TO.P,IC201,54,PD4*%
%TO.N,/STM32/PD4*%
X123395000Y-84470000D03*
%TO.P,IC201,55,PD5*%
%TO.N,/STM32/PD5*%
X123395000Y-84970000D03*
%TO.P,IC201,56,PD6*%
%TO.N,/STM32/PD6*%
X123395000Y-85470000D03*
%TO.P,IC201,57,PB3*%
%TO.N,unconnected-(IC201-PB3-Pad57)*%
X123395000Y-85970000D03*
%TO.P,IC201,58,PB4*%
%TO.N,unconnected-(IC201-PB4-Pad58)*%
X123395000Y-86470000D03*
%TO.P,IC201,59,PB5*%
%TO.N,unconnected-(IC201-PB5-Pad59)*%
X123395000Y-86970000D03*
%TO.P,IC201,60,PB6*%
%TO.N,/STM32/USART1_TX*%
X123395000Y-87470000D03*
%TO.P,IC201,61,PB7*%
%TO.N,/STM32/USART1_RX*%
X123395000Y-87970000D03*
%TO.P,IC201,62,PB8*%
%TO.N,/Drivers and motors connectors/MOTOR_2_REV*%
X123395000Y-88470000D03*
%TO.P,IC201,63,PB9*%
%TO.N,/Drivers and motors connectors/MOTOR_2_FWD*%
X123395000Y-88970000D03*
%TO.P,IC201,64,PC10*%
%TO.N,unconnected-(IC201-PC10-Pad64)*%
X123395000Y-89470000D03*
%TD*%
D12*
%TO.P,R306,1*%
%TO.N,Net-(C305-Pad1)*%
X155432500Y-86220000D03*
%TO.P,R306,2*%
%TO.N,+5V*%
X155432500Y-87870000D03*
%TD*%
D32*
%TO.P,C307,1*%
%TO.N,+5V*%
X161432500Y-87795000D03*
%TO.P,C307,2*%
%TO.N,GND*%
X161432500Y-86245000D03*
%TD*%
D45*
%TO.P,J201,1,Pin_1*%
%TO.N,unconnected-(J201-Pin_1-Pad1)*%
X113170000Y-82450000D03*
%TO.P,J201,2,Pin_2*%
%TO.N,unconnected-(J201-Pin_2-Pad2)*%
X117070000Y-82450000D03*
%TO.P,J201,3,Pin_3*%
%TO.N,+3V3*%
X113170000Y-83720000D03*
%TO.P,J201,4,Pin_4*%
%TO.N,/STM32/SWDIO*%
X117070000Y-83720000D03*
%TO.P,J201,5,Pin_5*%
%TO.N,GND*%
X113170000Y-84990000D03*
%TO.P,J201,6,Pin_6*%
%TO.N,/STM32/SWCLK*%
X117070000Y-84990000D03*
%TO.P,J201,7,Pin_7*%
%TO.N,GND*%
X113170000Y-86260000D03*
%TO.P,J201,8,Pin_8*%
%TO.N,unconnected-(J201-Pin_8-Pad8)*%
X117070000Y-86260000D03*
%TO.P,J201,9,Pin_9*%
%TO.N,unconnected-(J201-Pin_9-Pad9)*%
X113170000Y-87530000D03*
%TO.P,J201,10,Pin_10*%
%TO.N,unconnected-(J201-Pin_10-Pad10)*%
X117070000Y-87530000D03*
%TO.P,J201,11,Pin_11*%
%TO.N,GND*%
X113170000Y-88800000D03*
%TO.P,J201,12,Pin_12*%
%TO.N,/STM32/NRST*%
X117070000Y-88800000D03*
%TO.P,J201,13,Pin_13*%
%TO.N,/STM32/USART1_RX*%
X113170000Y-90070000D03*
%TO.P,J201,14,Pin_14*%
%TO.N,/STM32/USART1_TX*%
X117070000Y-90070000D03*
%TD*%
D46*
%TO.P,JP801,1,A*%
%TO.N,Li_Ion+*%
X156320000Y-60720000D03*
D47*
%TO.P,JP801,2,C*%
%TO.N,Net-(JP801-C)*%
X158320000Y-60720000D03*
D48*
%TO.P,JP801,3,B*%
%TO.N,NiMh+*%
X160320000Y-60720000D03*
%TD*%
D49*
%TO.P,J503,1,Pin_1*%
%TO.N,unconnected-(J503-Pin_1-Pad1)*%
X104250000Y-76250000D03*
D29*
%TO.P,J503,2,Pin_2*%
%TO.N,/STM32/LIDAR_MOTOR_ENABLE*%
X104250000Y-78750000D03*
%TO.P,J503,3,Pin_3*%
%TO.N,/STM32/LIDAR_MESURE_ENABLE*%
X104250000Y-81250000D03*
%TO.P,J503,4,Pin_4*%
%TO.N,/STM32/LIDAR_PWM*%
X104250000Y-83750000D03*
%TO.P,J503,5,Pin_5*%
%TO.N,GND*%
X104250000Y-86250000D03*
%TO.P,J503,6,Pin_6*%
%TO.N,/STM32/USART2_TX*%
X104250000Y-88750000D03*
%TO.P,J503,7,Pin_7*%
%TO.N,/STM32/USART2_RX*%
X104250000Y-91250000D03*
%TO.P,J503,8,Pin_8*%
%TO.N,+5V*%
X104250000Y-93750000D03*
%TD*%
D13*
%TO.P,J603,1,Pin_1*%
%TO.N,GND*%
X172500000Y-116000000D03*
D14*
%TO.P,J603,2,Pin_2*%
%TO.N,+3V3*%
X175000000Y-116000000D03*
%TO.P,J603,3,Pin_3*%
%TO.N,/STM32/Bordure_3*%
X177500000Y-116000000D03*
%TD*%
D23*
%TO.P,C201,1*%
%TO.N,Net-(SW202-B)*%
X119570000Y-72795000D03*
%TO.P,C201,2*%
%TO.N,GND*%
X119570000Y-74345000D03*
%TD*%
D12*
%TO.P,R805,1*%
%TO.N,/Alimentation/BMS/Secu_V-*%
X159295000Y-69582500D03*
%TO.P,R805,2*%
%TO.N,GND*%
X159295000Y-71232500D03*
%TD*%
D20*
%TO.P,SW204,1,A*%
%TO.N,GND*%
X109570000Y-67870000D03*
%TO.P,SW204,2,B*%
%TO.N,Net-(SW204-B)*%
X109570000Y-71270000D03*
%TD*%
D26*
%TO.P,J504,1,Pin_1*%
%TO.N,GND*%
X138600000Y-115800000D03*
D27*
%TO.P,J504,2,Pin_2*%
%TO.N,/STM32/Bumper_2*%
X141100000Y-115800000D03*
%TD*%
D50*
%TO.P,Q802,1,D*%
%TO.N,Net-(Q801-D)*%
X152482500Y-73782500D03*
%TO.P,Q802,2,G*%
%TO.N,/Alimentation/BMS/Secu_Vout*%
X152482500Y-71882500D03*
%TO.P,Q802,3,S*%
%TO.N,GND*%
X150607500Y-72832500D03*
%TD*%
D15*
%TO.P,R3,2*%
%TO.N,Net-(J2-Pin_6)*%
X122550000Y-57570000D03*
%TO.P,R3,1*%
%TO.N,/STM32/PD4*%
X122550000Y-59220000D03*
%TD*%
D23*
%TO.P,C205,1*%
%TO.N,Net-(C205-Pad1)*%
X133670000Y-97145000D03*
%TO.P,C205,2*%
%TO.N,GND*%
X133670000Y-98695000D03*
%TD*%
D15*
%TO.P,R1,2*%
%TO.N,Net-(J2-Pin_2)*%
X127570000Y-57570000D03*
%TO.P,R1,1*%
%TO.N,/STM32/PD2*%
X127570000Y-59220000D03*
%TD*%
%TO.P,R802,1*%
%TO.N,/Alimentation/BMS/Secu_VDD*%
X149070000Y-64295000D03*
%TO.P,R802,2*%
%TO.N,Li_Ion+*%
X149070000Y-62645000D03*
%TD*%
D33*
%TO.P,U402,1,OUT1*%
%TO.N,Net-(J402-Pin_1)*%
X172825000Y-104410000D03*
%TO.P,U402,2,VM*%
%TO.N,+BATT*%
X172825000Y-105680000D03*
%TO.P,U402,3,VDD*%
%TO.N,+3V3*%
X172825000Y-106950000D03*
%TO.P,U402,4,FWD*%
%TO.N,/Drivers and motors connectors/MOTOR_2_FWD*%
X172825000Y-108220000D03*
%TO.P,U402,5,REV*%
%TO.N,/Drivers and motors connectors/MOTOR_2_REV*%
X177820000Y-108220000D03*
%TO.P,U402,6,VREF*%
%TO.N,+3V3*%
X177820000Y-106950000D03*
%TO.P,U402,7,OUT2*%
%TO.N,Net-(J402-Pin_6)*%
X177820000Y-105680000D03*
%TO.P,U402,8,GND*%
%TO.N,GND*%
X177820000Y-104410000D03*
D34*
%TO.P,U402,9,GND*%
X175322500Y-106315000D03*
%TD*%
D51*
%TO.P,R_SENSE801,1*%
%TO.N,Net-(D802-K)*%
X176245000Y-71277500D03*
%TO.P,R_SENSE801,2*%
%TO.N,Net-(Q803-S)*%
X176245000Y-68352500D03*
%TD*%
D52*
%TO.P,Q803,1,D*%
%TO.N,BAT+*%
X168195000Y-64270000D03*
%TO.P,Q803,2,G*%
%TO.N,Net-(Q803-G)*%
X168195000Y-66170000D03*
%TO.P,Q803,3,S*%
%TO.N,Net-(Q803-S)*%
X170070000Y-65220000D03*
%TD*%
D12*
%TO.P,R303,1*%
%TO.N,Net-(U301-BST)*%
X153682500Y-94470000D03*
%TO.P,R303,2*%
%TO.N,Net-(C304-Pad1)*%
X153682500Y-96120000D03*
%TD*%
D53*
%TO.P,C406,1*%
%TO.N,+BATT*%
X168570000Y-89670000D03*
%TO.P,C406,2*%
%TO.N,GND*%
X168570000Y-85270000D03*
%TD*%
D15*
%TO.P,R203,1*%
%TO.N,/STM32/BTN_3*%
X111070000Y-74395000D03*
%TO.P,R203,2*%
%TO.N,Net-(SW204-B)*%
X111070000Y-72745000D03*
%TD*%
D53*
%TO.P,C405,1*%
%TO.N,+BATT*%
X168570000Y-107670000D03*
%TO.P,C405,2*%
%TO.N,GND*%
X168570000Y-103270000D03*
%TD*%
D32*
%TO.P,C204,1*%
%TO.N,/STM32/OSC_IN*%
X127070000Y-98595000D03*
%TO.P,C204,2*%
%TO.N,GND*%
X127070000Y-97045000D03*
%TD*%
D15*
%TO.P,R5,2*%
%TO.N,Net-(J2-Pin_10)*%
X117530000Y-57570000D03*
%TO.P,R5,1*%
%TO.N,/STM32/PD0*%
X117530000Y-59220000D03*
%TD*%
D23*
%TO.P,C804,1*%
%TO.N,/Alimentation/BMS/Secu_Sense*%
X159295000Y-73557500D03*
%TO.P,C804,2*%
%TO.N,Li_Ion-*%
X159295000Y-75107500D03*
%TD*%
%TO.P,C203,1*%
%TO.N,Net-(SW204-B)*%
X109570000Y-72795000D03*
%TO.P,C203,2*%
%TO.N,GND*%
X109570000Y-74345000D03*
%TD*%
D54*
%TO.P,U802,1,VDD*%
%TO.N,/Alimentation/BMS/Secu_VDD*%
X155320000Y-72445000D03*
%TO.P,U802,2,Cout*%
%TO.N,/Alimentation/BMS/Secu_Vout*%
X155970000Y-72445000D03*
%TO.P,U802,3,V-*%
%TO.N,/Alimentation/BMS/Secu_V-*%
X156620000Y-72445000D03*
%TO.P,U802,4,VSS*%
%TO.N,Li_Ion-*%
X157270000Y-72445000D03*
%TO.P,U802,5,Sense*%
%TO.N,/Alimentation/BMS/Secu_Sense*%
X157270000Y-68220000D03*
%TO.P,U802,6,Vc*%
%TO.N,/Alimentation/BMS/Secu_Vc*%
X156620000Y-68220000D03*
%TO.P,U802,7,T*%
%TO.N,unconnected-(U802-T-Pad7)*%
X155970000Y-68220000D03*
%TO.P,U802,8,Dout*%
%TO.N,/Alimentation/BMS/Secu_Dout*%
X155320000Y-68220000D03*
%TD*%
D23*
%TO.P,C402,1*%
%TO.N,+3V3*%
X179572500Y-107040000D03*
%TO.P,C402,2*%
%TO.N,GND*%
X179572500Y-108590000D03*
%TD*%
%TO.P,C305,1*%
%TO.N,Net-(C305-Pad1)*%
X153432500Y-86270000D03*
%TO.P,C305,2*%
%TO.N,+5V*%
X153432500Y-87820000D03*
%TD*%
D55*
%TO.P,C801,1*%
%TO.N,Net-(U801-TIMER)*%
X166270000Y-73565000D03*
%TO.P,C801,2*%
%TO.N,GND*%
X164720000Y-73565000D03*
%TD*%
D12*
%TO.P,R206,1*%
%TO.N,/STM32/OSC_OUT*%
X131370000Y-93495000D03*
%TO.P,R206,2*%
%TO.N,Net-(C205-Pad1)*%
X131370000Y-95145000D03*
%TD*%
D28*
%TO.P,J402,1,Pin_1*%
%TO.N,Net-(J402-Pin_1)*%
X185000000Y-107500000D03*
D29*
%TO.P,J402,2,Pin_2*%
%TO.N,GND*%
X185000000Y-105000000D03*
%TO.P,J402,3,Pin_3*%
%TO.N,/Drivers and motors connectors/ENCODER_2_A*%
X185000000Y-102500000D03*
%TO.P,J402,4,Pin_4*%
%TO.N,/Drivers and motors connectors/ENCODER_2_B*%
X185000000Y-100000000D03*
%TO.P,J402,5,Pin_5*%
%TO.N,+3V3*%
X185000000Y-97500000D03*
%TO.P,J402,6,Pin_6*%
%TO.N,Net-(J402-Pin_6)*%
X185000000Y-95000000D03*
%TD*%
D32*
%TO.P,C408,1*%
%TO.N,Net-(J402-Pin_6)*%
X179572500Y-105590000D03*
%TO.P,C408,2*%
%TO.N,GND*%
X179572500Y-104040000D03*
%TD*%
%TO.P,C302,1*%
%TO.N,Net-(U301-VCC)*%
X147432500Y-87795000D03*
%TO.P,C302,2*%
%TO.N,GND*%
X147432500Y-86245000D03*
%TD*%
D56*
%TO.P,U301,1,PG*%
%TO.N,Net-(U301-PG)*%
X151545000Y-90570000D03*
%TO.P,U301,2,IN*%
%TO.N,+BATT*%
X151545000Y-91220000D03*
%TO.P,U301,3,SW*%
%TO.N,Net-(U301-SW)*%
X151545000Y-91870000D03*
%TO.P,U301,4,GND*%
%TO.N,GND*%
X151545000Y-92520000D03*
%TO.P,U301,5,BST*%
%TO.N,Net-(U301-BST)*%
X153820000Y-92520000D03*
%TO.P,U301,6,EN/SYNC*%
%TO.N,Net-(U301-EN{slash}SYNC)*%
X153820000Y-91870000D03*
%TO.P,U301,7,VCC*%
%TO.N,Net-(U301-VCC)*%
X153820000Y-91220000D03*
%TO.P,U301,8,FB*%
%TO.N,Net-(U301-FB)*%
X153820000Y-90570000D03*
%TD*%
D57*
%TO.P,D301,1,K*%
%TO.N,Net-(D301-K)*%
X159070000Y-96637500D03*
%TO.P,D301,2,A*%
%TO.N,+5V*%
X159070000Y-95062500D03*
%TD*%
D55*
%TO.P,C309,1*%
%TO.N,+3V3*%
X142345000Y-92470000D03*
%TO.P,C309,2*%
%TO.N,GND*%
X140795000Y-92470000D03*
%TD*%
D15*
%TO.P,R307,1*%
%TO.N,Net-(D301-K)*%
X161070000Y-96795000D03*
%TO.P,R307,2*%
%TO.N,GND*%
X161070000Y-95145000D03*
%TD*%
D23*
%TO.P,C301,1*%
%TO.N,+BATT*%
X147432500Y-90770000D03*
%TO.P,C301,2*%
%TO.N,GND*%
X147432500Y-92320000D03*
%TD*%
D20*
%TO.P,SW202,1,A*%
%TO.N,GND*%
X119570000Y-67820000D03*
%TO.P,SW202,2,B*%
%TO.N,Net-(SW202-B)*%
X119570000Y-71220000D03*
%TD*%
D50*
%TO.P,Q801,1,D*%
%TO.N,Net-(Q801-D)*%
X152545000Y-68832500D03*
%TO.P,Q801,2,G*%
%TO.N,/Alimentation/BMS/Secu_Dout*%
X152545000Y-66932500D03*
%TO.P,Q801,3,S*%
%TO.N,Li_Ion-*%
X150670000Y-67882500D03*
%TD*%
D15*
%TO.P,R201,1*%
%TO.N,/STM32/BTN_1*%
X121070000Y-74395000D03*
%TO.P,R201,2*%
%TO.N,Net-(SW202-B)*%
X121070000Y-72745000D03*
%TD*%
D32*
%TO.P,C306,1*%
%TO.N,+5V*%
X159432500Y-87795000D03*
%TO.P,C306,2*%
%TO.N,GND*%
X159432500Y-86245000D03*
%TD*%
D55*
%TO.P,C308,1*%
%TO.N,+5V*%
X142345000Y-85970000D03*
%TO.P,C308,2*%
%TO.N,GND*%
X140795000Y-85970000D03*
%TD*%
D58*
%TO.P,L301,1*%
%TO.N,Net-(U301-SW)*%
X159182500Y-92620000D03*
%TO.P,L301,2*%
%TO.N,+5V*%
X159182500Y-90470000D03*
%TD*%
D15*
%TO.P,R202,1*%
%TO.N,/STM32/BTN_2*%
X116070000Y-74395000D03*
%TO.P,R202,2*%
%TO.N,Net-(SW203-B)*%
X116070000Y-72745000D03*
%TD*%
D11*
%TO.P,C803,1*%
%TO.N,/Alimentation/BMS/Secu_Vc*%
X155495000Y-77592500D03*
%TO.P,C803,2*%
%TO.N,Li_Ion-*%
X157045000Y-77592500D03*
%TD*%
D59*
%TO.P,D802,1,K*%
%TO.N,Net-(D802-K)*%
X179570000Y-77470000D03*
%TO.P,D802,2,A*%
%TO.N,V_ALIM*%
X179570000Y-73470000D03*
%TD*%
D23*
%TO.P,C502,1*%
%TO.N,+3V3*%
X135320000Y-69745000D03*
%TO.P,C502,2*%
%TO.N,GND*%
X135320000Y-71295000D03*
%TD*%
%TO.P,C401,1*%
%TO.N,+3V3*%
X179570000Y-89040000D03*
%TO.P,C401,2*%
%TO.N,GND*%
X179570000Y-90590000D03*
%TD*%
D20*
%TO.P,SW203,1,A*%
%TO.N,GND*%
X114570000Y-67870000D03*
%TO.P,SW203,2,B*%
%TO.N,Net-(SW203-B)*%
X114570000Y-71270000D03*
%TD*%
D22*
%TO.P,R505,1*%
%TO.N,/STM32/I2C_SDA*%
X133645000Y-73520000D03*
%TO.P,R505,2*%
%TO.N,+3V3*%
X131995000Y-73520000D03*
%TD*%
D31*
%TO.P,D801,1,K*%
%TO.N,Net-(D801-K)*%
X168207500Y-73565000D03*
%TO.P,D801,2,A*%
%TO.N,Net-(D801-A)*%
X169782500Y-73565000D03*
%TD*%
D16*
%TO.P,R205,1*%
%TO.N,GND*%
X129245000Y-106220000D03*
%TO.P,R205,2*%
%TO.N,Net-(D202-K)*%
X130895000Y-106220000D03*
%TD*%
D55*
%TO.P,C806,1*%
%TO.N,Net-(D802-K)*%
X166270000Y-76720000D03*
%TO.P,C806,2*%
%TO.N,GND*%
X164720000Y-76720000D03*
%TD*%
D17*
%TO.P,J301,1,Pin_1*%
%TO.N,unconnected-(J301-Pin_1-Pad1)*%
X177470000Y-54990000D03*
D14*
%TO.P,J301,2,Pin_2*%
%TO.N,+BATT*%
X174970000Y-54990000D03*
%TO.P,J301,3,Pin_3*%
%TO.N,BAT+*%
X172470000Y-54990000D03*
%TD*%
D16*
%TO.P,R801,1*%
%TO.N,Net-(D802-K)*%
X168170000Y-76720000D03*
%TO.P,R801,2*%
%TO.N,Net-(D801-A)*%
X169820000Y-76720000D03*
%TD*%
D60*
%TO.P,U302,5,VOUT*%
%TO.N,+3V3*%
X142520000Y-90357500D03*
%TO.P,U302,4,NC*%
%TO.N,unconnected-(U302-NC-Pad4)*%
X140620000Y-90357500D03*
%TO.P,U302,3,EN*%
%TO.N,+5V*%
X140620000Y-88082500D03*
%TO.P,U302,2,GND*%
%TO.N,GND*%
X141570000Y-88082500D03*
%TO.P,U302,1,VIN*%
%TO.N,+5V*%
X142520000Y-88082500D03*
%TD*%
D15*
%TO.P,R6,2*%
%TO.N,Net-(J2-Pin_12)*%
X115020000Y-57570000D03*
%TO.P,R6,1*%
%TO.N,/STM32/PD5*%
X115020000Y-59220000D03*
%TD*%
D16*
%TO.P,R204,1*%
%TO.N,Net-(D201-K)*%
X122745000Y-106220000D03*
%TO.P,R204,2*%
%TO.N,GND*%
X124395000Y-106220000D03*
%TD*%
D32*
%TO.P,C407,1*%
%TO.N,Net-(J401-Pin_6)*%
X179570000Y-87590000D03*
%TO.P,C407,2*%
%TO.N,GND*%
X179570000Y-86040000D03*
%TD*%
%TO.P,C501,1*%
%TO.N,+3V3*%
X135320000Y-67795000D03*
%TO.P,C501,2*%
%TO.N,GND*%
X135320000Y-66245000D03*
%TD*%
D16*
%TO.P,R502,1*%
%TO.N,/STM32/Bumper_3*%
X150745000Y-111820000D03*
%TO.P,R502,2*%
%TO.N,+3V3*%
X152395000Y-111820000D03*
%TD*%
D22*
%TO.P,R806,1*%
%TO.N,Net-(U801-PROG)*%
X173320000Y-73565000D03*
%TO.P,R806,2*%
%TO.N,GND*%
X171670000Y-73565000D03*
%TD*%
D15*
%TO.P,R7,2*%
%TO.N,Net-(J2-Pin_14)*%
X112510000Y-57570000D03*
%TO.P,R7,1*%
%TO.N,/STM32/PD6*%
X112510000Y-59220000D03*
%TD*%
D12*
%TO.P,R301,1*%
%TO.N,+BATT*%
X155932500Y-90720000D03*
%TO.P,R301,2*%
%TO.N,Net-(U301-EN{slash}SYNC)*%
X155932500Y-92370000D03*
%TD*%
D61*
%TO.N,GND*%
X119320000Y-96720000D03*
X125570000Y-97220000D03*
%TO.N,/STM32/NRST*%
X123070000Y-92470000D03*
%TO.N,GND*%
X126820000Y-106220000D03*
X131320000Y-100220000D03*
%TO.N,+3V3*%
X126570000Y-94320000D03*
%TO.N,GND*%
X129320000Y-89970000D03*
X139570000Y-91620000D03*
X174570000Y-86970000D03*
X176070000Y-104970000D03*
X176070000Y-88220000D03*
X164070000Y-75220000D03*
X158432500Y-87045000D03*
X176070000Y-89720000D03*
X114570000Y-66770000D03*
X160432500Y-84720000D03*
X135320000Y-64970000D03*
X140820000Y-84720000D03*
X127320000Y-68770000D03*
X118070000Y-74370000D03*
X134320000Y-71270000D03*
X113320000Y-74370000D03*
X174570000Y-88470000D03*
X162312500Y-95145000D03*
X174570000Y-107720000D03*
X171495000Y-75565000D03*
X174570000Y-89720000D03*
X174570000Y-106220000D03*
X145570000Y-89295000D03*
X150570000Y-71220000D03*
X108320000Y-74370000D03*
X176070000Y-106470000D03*
X176070000Y-86970000D03*
X174570000Y-104970000D03*
X167495000Y-72565000D03*
X176070000Y-107720000D03*
%TO.N,Li_Ion-*%
X150570000Y-65720000D03*
X158070000Y-76720000D03*
%TO.N,Li_Ion_INTER*%
X152070000Y-61470000D03*
%TO.N,+BATT*%
X148170000Y-89332500D03*
X157182500Y-90832500D03*
X168570000Y-109970000D03*
X146970000Y-89332500D03*
X168570000Y-92470000D03*
X157182500Y-91832500D03*
%TO.N,Net-(U301-VCC)*%
X152682500Y-89795000D03*
X149432500Y-89295000D03*
%TO.N,Net-(U301-SW)*%
X152682500Y-93295000D03*
X157182500Y-93295000D03*
%TO.N,+5V*%
X157432500Y-89220000D03*
X158432500Y-89220000D03*
X156432500Y-89220000D03*
X144970000Y-84820000D03*
X144170000Y-84820000D03*
X143370000Y-84820000D03*
%TO.N,+3V3*%
X110570000Y-83720000D03*
X171070000Y-89220000D03*
X130820000Y-73520000D03*
X144070000Y-90720000D03*
X155320000Y-111720000D03*
X144070000Y-91720000D03*
X180820000Y-106970000D03*
X128320000Y-68770000D03*
X135320000Y-68770000D03*
X136570000Y-111470000D03*
X144070000Y-92720000D03*
X170820000Y-107470000D03*
X181070000Y-88970000D03*
%TO.N,Net-(J401-Pin_1)*%
X175070000Y-85470000D03*
X173820000Y-85470000D03*
X172820000Y-85220000D03*
%TO.N,Net-(J402-Pin_1)*%
X174820000Y-103720000D03*
X173820000Y-103720000D03*
X172820000Y-103220000D03*
%TO.N,/Alimentation/BMS/Secu_Vc*%
X156545000Y-69832500D03*
X156295000Y-76332500D03*
%TO.N,/Alimentation/BMS/Secu_Sense*%
X158295000Y-72082500D03*
X157545000Y-69832500D03*
%TO.N,/STM32/LIDAR_PWM*%
X124320000Y-91470000D03*
%TO.N,/STM32/LIDAR_MOTOR_ENABLE*%
X126820000Y-88720000D03*
%TO.N,/STM32/LIDAR_MESURE_ENABLE*%
X125820000Y-89419500D03*
%TO.N,/STM32/NRST*%
X119840023Y-89290023D03*
X130820000Y-89470000D03*
%TO.N,/Drivers and motors connectors/MOTOR_1_FWD*%
X133820000Y-93669503D03*
X139370000Y-99020000D03*
%TO.N,/Drivers and motors connectors/MOTOR_1_REV*%
X133820000Y-92720000D03*
X140770000Y-99620000D03*
%TO.N,/STM32/USART2_TX*%
X137220500Y-98020000D03*
%TO.N,/STM32/USART2_RX*%
X137970000Y-99020000D03*
%TO.N,/Drivers and motors connectors/ENCODER_2_A*%
X137170000Y-86820000D03*
%TO.N,/Drivers and motors connectors/ENCODER_2_B*%
X137170000Y-85620000D03*
%TO.N,/STM32/I2C_SCL*%
X136820000Y-75220000D03*
X133107183Y-75534083D03*
%TO.N,/STM32/Bordure_1*%
X128320000Y-75220000D03*
%TO.N,/STM32/Bordure_3*%
X135299977Y-80020000D03*
%TO.N,/Drivers and motors connectors/ENCODER_1_B*%
X134970000Y-76970000D03*
%TO.N,/Drivers and motors connectors/ENCODER_1_A*%
X132070000Y-76220000D03*
%TO.N,/STM32/Bumper_1*%
X129540023Y-75749977D03*
%TO.N,/STM32/Bumper_2*%
X130820000Y-76220000D03*
%TO.N,/STM32/Bumper_3*%
X133770000Y-79820000D03*
%TO.N,/STM32/Bumper_4*%
X134970000Y-81020000D03*
%TO.N,/STM32/PD0*%
X117590000Y-60770000D03*
X123070000Y-80970000D03*
%TO.N,/STM32/PD1*%
X123570000Y-79970000D03*
X120090000Y-60770000D03*
%TO.N,/STM32/PD2*%
X127590000Y-60770000D03*
X124320000Y-78970000D03*
%TO.N,/STM32/PD3*%
X125090000Y-60770000D03*
X123320000Y-78220000D03*
%TO.N,/STM32/PD4*%
X122590000Y-60770000D03*
X121820000Y-78470000D03*
%TO.N,/STM32/PD5*%
X115090000Y-60770000D03*
X120570000Y-84720000D03*
%TO.N,/STM32/PD6*%
X112590000Y-60770000D03*
X120820000Y-85970000D03*
%TO.N,/Alimentation/BMS/Secu_Vout*%
X152545000Y-70332500D03*
X155795000Y-70832500D03*
%TD*%
D62*
%TO.N,Net-(J2-Pin_2)*%
X127570000Y-55100000D02*
X127710000Y-54960000D01*
X127570000Y-57570000D02*
X127570000Y-55100000D01*
%TO.N,Net-(J2-Pin_4)*%
X125060000Y-55070000D02*
X125170000Y-54960000D01*
X125060000Y-57570000D02*
X125060000Y-55070000D01*
%TO.N,Net-(J2-Pin_6)*%
X122550000Y-55040000D02*
X122630000Y-54960000D01*
X122550000Y-57570000D02*
X122550000Y-55040000D01*
%TO.N,Net-(J2-Pin_8)*%
X120040000Y-55010000D02*
X120090000Y-54960000D01*
X120040000Y-57570000D02*
X120040000Y-55010000D01*
%TO.N,Net-(J2-Pin_10)*%
X117530000Y-57570000D02*
X117530000Y-54980000D01*
X117530000Y-54980000D02*
X117550000Y-54960000D01*
%TO.N,Net-(J2-Pin_12)*%
X115020000Y-54970000D02*
X115010000Y-54960000D01*
X115020000Y-57570000D02*
X115020000Y-54970000D01*
%TO.N,Net-(J2-Pin_14)*%
X112510000Y-55000000D02*
X112470000Y-54960000D01*
X112510000Y-57570000D02*
X112510000Y-55000000D01*
%TO.N,/STM32/Bumper_3*%
X133045000Y-79820000D02*
X132820000Y-80045000D01*
X133770000Y-79820000D02*
X133045000Y-79820000D01*
D63*
%TO.N,+5V*%
X107900000Y-93750000D02*
X104250000Y-93750000D01*
X112120000Y-97970000D02*
X107900000Y-93750000D01*
X112120000Y-98720000D02*
X112120000Y-97970000D01*
%TO.N,GND*%
X117320000Y-98720000D02*
X116520000Y-98720000D01*
X119320000Y-96720000D02*
X117320000Y-98720000D01*
D62*
%TO.N,/STM32/OSC_IN*%
X129820000Y-92470000D02*
X129820000Y-91395000D01*
X130320000Y-92970000D02*
X129820000Y-92470000D01*
X130320000Y-97720000D02*
X130320000Y-92970000D01*
X129370000Y-98670000D02*
X130320000Y-97720000D01*
X129170000Y-98670000D02*
X129370000Y-98670000D01*
%TO.N,GND*%
X125470000Y-97120000D02*
X122970000Y-97120000D01*
X125570000Y-97220000D02*
X125470000Y-97120000D01*
X125670000Y-97120000D02*
X125570000Y-97220000D01*
X126995000Y-97120000D02*
X125670000Y-97120000D01*
X127070000Y-97045000D02*
X126995000Y-97120000D01*
%TO.N,/STM32/NRST*%
X122970000Y-92570000D02*
X123070000Y-92470000D01*
X122970000Y-93720000D02*
X122970000Y-92570000D01*
%TO.N,/STM32/BTN_3*%
X111070000Y-75220000D02*
X112070000Y-76220000D01*
X111070000Y-74395000D02*
X111070000Y-75220000D01*
%TO.N,/STM32/BTN_2*%
X116070000Y-74720000D02*
X117070000Y-75720000D01*
X116070000Y-74395000D02*
X116070000Y-74720000D01*
%TO.N,/STM32/BTN_1*%
X121070000Y-74470000D02*
X121820000Y-75220000D01*
X121070000Y-74395000D02*
X121070000Y-74470000D01*
%TO.N,Net-(U501-CPOUT)*%
X130275330Y-71970000D02*
X127995000Y-71970000D01*
X127995000Y-71970000D02*
X127320000Y-71295000D01*
X130570000Y-71675330D02*
X130275330Y-71970000D01*
X130570000Y-71220000D02*
X130570000Y-71675330D01*
%TO.N,/STM32/I2C_SCL*%
X131320000Y-72470000D02*
X128820000Y-72470000D01*
X132070000Y-71720000D02*
X131320000Y-72470000D01*
X128245000Y-73045000D02*
X128245000Y-73520000D01*
X132070000Y-71220000D02*
X132070000Y-71720000D01*
X128820000Y-72470000D02*
X128245000Y-73045000D01*
%TO.N,/STM32/I2C_SDA*%
X132570000Y-71970000D02*
X133645000Y-73045000D01*
X132570000Y-71220000D02*
X132570000Y-71970000D01*
X133645000Y-73045000D02*
X133645000Y-73520000D01*
%TO.N,GND*%
X126820000Y-106220000D02*
X129245000Y-106220000D01*
X124395000Y-106220000D02*
X126820000Y-106220000D01*
%TO.N,Net-(D201-K)*%
X122745000Y-104507500D02*
X122782500Y-104470000D01*
X122745000Y-106220000D02*
X122745000Y-104507500D01*
%TO.N,/Drivers and motors connectors/MOTOR_2_FWD*%
X172825000Y-109765000D02*
X172825000Y-108220000D01*
X171770000Y-110820000D02*
X172825000Y-109765000D01*
X162970000Y-110820000D02*
X171770000Y-110820000D01*
X159870001Y-107720000D02*
X162970000Y-110820000D01*
X122320000Y-107720000D02*
X159870001Y-107720000D01*
X121570000Y-90600605D02*
X121570000Y-106970000D01*
X121990023Y-90180582D02*
X121570000Y-90600605D01*
X121570000Y-106970000D02*
X122320000Y-107720000D01*
X121990023Y-89498936D02*
X121990023Y-90180582D01*
X122518959Y-88970000D02*
X121990023Y-89498936D01*
X123395000Y-88970000D02*
X122518959Y-88970000D01*
%TO.N,/Drivers and motors connectors/MOTOR_2_REV*%
X174720000Y-111320000D02*
X177820000Y-108220000D01*
X162762893Y-111320000D02*
X174720000Y-111320000D01*
X159662893Y-108220000D02*
X162762893Y-111320000D01*
X121070000Y-107220000D02*
X122070000Y-108220000D01*
X122070000Y-108220000D02*
X159662893Y-108220000D01*
X121540023Y-89994186D02*
X121070000Y-90464209D01*
X122134212Y-88470000D02*
X121540023Y-89064189D01*
X121540023Y-89064189D02*
X121540023Y-89994186D01*
X121070000Y-90464209D02*
X121070000Y-107220000D01*
X123395000Y-88470000D02*
X122134212Y-88470000D01*
%TO.N,Net-(D202-K)*%
X130895000Y-104507500D02*
X130857500Y-104470000D01*
X130895000Y-106220000D02*
X130895000Y-104507500D01*
%TO.N,Net-(D202-A)*%
X135970000Y-89318959D02*
X135621041Y-88970000D01*
X135970000Y-99056396D02*
X135970000Y-89318959D01*
X135621041Y-88970000D02*
X134745000Y-88970000D01*
X133056396Y-101970000D02*
X135970000Y-99056396D01*
X129282500Y-103257500D02*
X130570000Y-101970000D01*
X129282500Y-104470000D02*
X129282500Y-103257500D01*
X130570000Y-101970000D02*
X133056396Y-101970000D01*
%TO.N,Net-(D201-A)*%
X124357500Y-103432500D02*
X124357500Y-104470000D01*
X132920000Y-101470000D02*
X126320000Y-101470000D01*
X135470000Y-98920000D02*
X132920000Y-101470000D01*
X126320000Y-101470000D02*
X124357500Y-103432500D01*
X135470000Y-90195000D02*
X135470000Y-98920000D01*
X134745000Y-89470000D02*
X135470000Y-90195000D01*
%TO.N,GND*%
X131370000Y-100170000D02*
X131320000Y-100220000D01*
X131370000Y-98670000D02*
X131370000Y-100170000D01*
%TO.N,/STM32/I2C_SCL*%
X128370000Y-73520000D02*
X128245000Y-73520000D01*
X130370000Y-75520000D02*
X128370000Y-73520000D01*
X133107183Y-75534083D02*
X132374033Y-75534083D01*
X132374033Y-75534083D02*
X132359950Y-75520000D01*
X132359950Y-75520000D02*
X130370000Y-75520000D01*
X136820000Y-82427107D02*
X136277107Y-82970000D01*
X136277107Y-82970000D02*
X134745000Y-82970000D01*
X136820000Y-75220000D02*
X136820000Y-82427107D01*
D63*
%TO.N,+5V*%
X158432500Y-89220000D02*
X157432500Y-89220000D01*
D62*
%TO.N,Net-(C205-Pad1)*%
X131370000Y-95145000D02*
X131370000Y-96970000D01*
%TO.N,/STM32/OSC_OUT*%
X131370000Y-93250330D02*
X131370000Y-93495000D01*
X130320000Y-91395000D02*
X130320000Y-92200330D01*
X130320000Y-92200330D02*
X131370000Y-93250330D01*
%TO.N,GND*%
X129170000Y-95395000D02*
X129345000Y-95220000D01*
X129170000Y-96970000D02*
X129170000Y-95395000D01*
%TO.N,Net-(C205-Pad1)*%
X131545000Y-97145000D02*
X131370000Y-96970000D01*
X133670000Y-97145000D02*
X131545000Y-97145000D01*
%TO.N,GND*%
X131395000Y-98695000D02*
X131370000Y-98670000D01*
X133670000Y-98695000D02*
X131395000Y-98695000D01*
%TO.N,/STM32/OSC_IN*%
X129095000Y-98595000D02*
X129170000Y-98670000D01*
X127070000Y-98595000D02*
X129095000Y-98595000D01*
%TO.N,GND*%
X129095000Y-97045000D02*
X129170000Y-96970000D01*
X127070000Y-97045000D02*
X129095000Y-97045000D01*
%TO.N,+3V3*%
X127770000Y-94320000D02*
X126570000Y-94320000D01*
X127770000Y-94320000D02*
X127770000Y-95195000D01*
X127770000Y-93470000D02*
X127770000Y-94320000D01*
%TO.N,GND*%
X129320000Y-91395000D02*
X129320000Y-89970000D01*
%TO.N,+3V3*%
X128820000Y-92420000D02*
X127770000Y-93470000D01*
X128820000Y-91395000D02*
X128820000Y-92420000D01*
%TO.N,GND*%
X129320000Y-91395000D02*
X129320000Y-93470000D01*
%TO.N,+3V3*%
X128070000Y-93470000D02*
X127770000Y-93470000D01*
X127520000Y-93720000D02*
X127770000Y-93470000D01*
%TO.N,/STM32/LIDAR_PWM*%
X125820000Y-92200330D02*
X125820000Y-91395000D01*
X124320000Y-91970000D02*
X124820000Y-92470000D01*
X124820000Y-92470000D02*
X125550330Y-92470000D01*
X124320000Y-91470000D02*
X124320000Y-91970000D01*
X125550330Y-92470000D02*
X125820000Y-92200330D01*
%TO.N,/STM32/LIDAR_MESURE_ENABLE*%
X126320000Y-89919500D02*
X126320000Y-91395000D01*
X125820000Y-89419500D02*
X126320000Y-89919500D01*
%TO.N,/STM32/LIDAR_MOTOR_ENABLE*%
X126820000Y-88720000D02*
X126820000Y-91395000D01*
%TO.N,/STM32/NRST*%
X130820000Y-91395000D02*
X130820000Y-89470000D01*
%TO.N,+3V3*%
X127770000Y-95195000D02*
X127795000Y-95220000D01*
%TO.N,GND*%
X129320000Y-95195000D02*
X129345000Y-95220000D01*
X129320000Y-93470000D02*
X129320000Y-95195000D01*
X129345000Y-93745000D02*
X129320000Y-93720000D01*
%TO.N,+3V3*%
X127800330Y-93720000D02*
X127770000Y-93720000D01*
X127795000Y-93745000D02*
X127770000Y-93720000D01*
%TO.N,/Drivers and motors connectors/MOTOR_1_FWD*%
X131820000Y-92336726D02*
X131820000Y-91395000D01*
X133570497Y-93420000D02*
X132903274Y-93420000D01*
X132903274Y-93420000D02*
X131820000Y-92336726D01*
X133820000Y-93669503D02*
X133570497Y-93420000D01*
%TO.N,/Drivers and motors connectors/MOTOR_1_REV*%
X132839670Y-92720000D02*
X132320000Y-92200330D01*
X133820000Y-92720000D02*
X132839670Y-92720000D01*
X132320000Y-92200330D02*
X132320000Y-91395000D01*
%TO.N,/STM32/USART3_RX*%
X140650000Y-71640000D02*
X142320000Y-71640000D01*
X137570000Y-74720000D02*
X140650000Y-71640000D01*
%TO.N,/STM32/USART3_TX*%
X138860000Y-74180000D02*
X142320000Y-74180000D01*
X138070000Y-74970000D02*
X138860000Y-74180000D01*
X138070000Y-74970000D02*
X138070000Y-83228147D01*
X138070000Y-83228147D02*
X135828147Y-85470000D01*
X135828147Y-85470000D02*
X134745000Y-85470000D01*
%TO.N,/Alimentation/BMS/Secu_Vc*%
X156620000Y-66770000D02*
X156620000Y-68220000D01*
X154145000Y-64295000D02*
X156620000Y-66770000D01*
X152070000Y-64295000D02*
X154145000Y-64295000D01*
%TO.N,Li_Ion_INTER*%
X152070000Y-62645000D02*
X152070000Y-61470000D01*
%TO.N,Li_Ion+*%
X149070000Y-62220000D02*
X151945000Y-59345000D01*
X149070000Y-62645000D02*
X149070000Y-62220000D01*
D63*
X151945000Y-59345000D02*
X150000000Y-57400000D01*
X153320000Y-60720000D02*
X151945000Y-59345000D01*
D62*
%TO.N,/Alimentation/BMS/Secu_VDD*%
X148570000Y-74720000D02*
X148570000Y-64795000D01*
X155357500Y-75220000D02*
X149070000Y-75220000D01*
X149070000Y-75220000D02*
X148570000Y-74720000D01*
X155495000Y-75082500D02*
X155357500Y-75220000D01*
X148570000Y-64795000D02*
X149070000Y-64295000D01*
%TO.N,GND*%
X163995000Y-73815000D02*
X164245000Y-73565000D01*
X113345000Y-74345000D02*
X113320000Y-74370000D01*
X145570000Y-89295000D02*
X145570000Y-87657500D01*
X109570000Y-67870000D02*
X119520000Y-67870000D01*
X164720000Y-76720000D02*
X164245000Y-76720000D01*
D63*
X170795000Y-101045000D02*
X168570000Y-103270000D01*
D62*
X180950000Y-90590000D02*
X182570000Y-88970000D01*
D63*
X179570000Y-86040000D02*
X178187500Y-86040000D01*
X174320000Y-101045000D02*
X170795000Y-101045000D01*
D62*
X140795000Y-84745000D02*
X140820000Y-84720000D01*
D63*
X161432500Y-86245000D02*
X160432500Y-86245000D01*
X160432500Y-86245000D02*
X160432500Y-84720000D01*
D62*
X140420000Y-92470000D02*
X140795000Y-92470000D01*
X135320000Y-66245000D02*
X135320000Y-64970000D01*
D63*
X176630000Y-104410000D02*
X176070000Y-104970000D01*
D62*
X112150000Y-88800000D02*
X111370000Y-88020000D01*
X113170000Y-84990000D02*
X113170000Y-86260000D01*
X182070000Y-107220000D02*
X180700000Y-108590000D01*
X118095000Y-74345000D02*
X118070000Y-74370000D01*
D63*
X176070000Y-104970000D02*
X176070000Y-101720000D01*
D62*
X171670000Y-75390000D02*
X171495000Y-75565000D01*
D63*
X174320000Y-84220000D02*
X174320000Y-82970000D01*
D62*
X150607500Y-71257500D02*
X150570000Y-71220000D01*
X163995000Y-76470000D02*
X164245000Y-76720000D01*
X134045000Y-71295000D02*
X133270000Y-70520000D01*
X159295000Y-71232500D02*
X159307500Y-71220000D01*
X145570000Y-87657500D02*
X146982500Y-86245000D01*
X132320000Y-65770000D02*
X131570000Y-66520000D01*
X139570000Y-91620000D02*
X140420000Y-92470000D01*
X182570000Y-88970000D02*
X182570000Y-87930000D01*
X167670000Y-71720000D02*
X167670000Y-72390000D01*
D63*
X174372500Y-101097500D02*
X174320000Y-101045000D01*
D62*
X135320000Y-71295000D02*
X134345000Y-71295000D01*
X134545000Y-66245000D02*
X134070000Y-65770000D01*
X167670000Y-72390000D02*
X167495000Y-72565000D01*
X134295000Y-71295000D02*
X134045000Y-71295000D01*
X149432500Y-92320000D02*
X147432500Y-92320000D01*
D63*
X160432500Y-86245000D02*
X159432500Y-86245000D01*
X174372500Y-102220000D02*
X174372500Y-101097500D01*
D62*
X134070000Y-65770000D02*
X132320000Y-65770000D01*
X164415000Y-73565000D02*
X164720000Y-73565000D01*
X171670000Y-73565000D02*
X171670000Y-75390000D01*
X130320000Y-66270000D02*
X129070000Y-66270000D01*
X182070000Y-105970000D02*
X182070000Y-107220000D01*
X163995000Y-75145000D02*
X164070000Y-75220000D01*
D63*
X177540000Y-61200000D02*
X176770000Y-61970000D01*
D62*
X159307500Y-71220000D02*
X162070000Y-71220000D01*
X134345000Y-71295000D02*
X134320000Y-71270000D01*
X158432500Y-86870000D02*
X158432500Y-87045000D01*
X140795000Y-85970000D02*
X140795000Y-84745000D01*
X109570000Y-74345000D02*
X108345000Y-74345000D01*
X180700000Y-108590000D02*
X179572500Y-108590000D01*
X158432500Y-87045000D02*
X158257500Y-87045000D01*
X128045000Y-67795000D02*
X127320000Y-67795000D01*
X113170000Y-88800000D02*
X112150000Y-88800000D01*
D63*
X178190000Y-104040000D02*
X177820000Y-104410000D01*
D62*
X112170000Y-86260000D02*
X113170000Y-86260000D01*
X129370000Y-70520000D02*
X128095000Y-70520000D01*
X128570000Y-67270000D02*
X128045000Y-67795000D01*
X119920000Y-68170000D02*
X119570000Y-67820000D01*
X141570000Y-86745000D02*
X141570000Y-88082500D01*
X145570000Y-89295000D02*
X145570000Y-90932500D01*
D63*
X177820000Y-104410000D02*
X176630000Y-104410000D01*
D62*
X130570000Y-67320000D02*
X130570000Y-66520000D01*
X127320000Y-68770000D02*
X127320000Y-67795000D01*
D63*
X175570000Y-82970000D02*
X174320000Y-82970000D01*
X179572500Y-104040000D02*
X178190000Y-104040000D01*
X176070000Y-86970000D02*
X176320000Y-86720000D01*
X176320000Y-83720000D02*
X175570000Y-82970000D01*
X178187500Y-86040000D02*
X177817500Y-86410000D01*
D62*
X127320000Y-69745000D02*
X127320000Y-68770000D01*
X183040000Y-105000000D02*
X182070000Y-105970000D01*
X164245000Y-73565000D02*
X164720000Y-73565000D01*
D63*
X176070000Y-101720000D02*
X175395000Y-101045000D01*
D62*
X161070000Y-95145000D02*
X162312500Y-95145000D01*
D63*
X176630000Y-86410000D02*
X176070000Y-86970000D01*
D62*
X113160000Y-86250000D02*
X113170000Y-86260000D01*
X104250000Y-86250000D02*
X110570000Y-86250000D01*
X162070000Y-71220000D02*
X164415000Y-73565000D01*
X119520000Y-67870000D02*
X119570000Y-67820000D01*
X146957500Y-92320000D02*
X147432500Y-92320000D01*
X159432500Y-86245000D02*
X159057500Y-86245000D01*
X158257500Y-87045000D02*
X157432500Y-87870000D01*
X108295000Y-74345000D02*
X108095000Y-74345000D01*
X164070000Y-75220000D02*
X163995000Y-75295000D01*
X128095000Y-70520000D02*
X127320000Y-69745000D01*
X130570000Y-66520000D02*
X130320000Y-66270000D01*
X129070000Y-66270000D02*
X128570000Y-66770000D01*
X108320000Y-74370000D02*
X108295000Y-74345000D01*
D63*
X170870000Y-82970000D02*
X168570000Y-85270000D01*
D62*
X163995000Y-73815000D02*
X163995000Y-75145000D01*
D63*
X183500000Y-61200000D02*
X177540000Y-61200000D01*
X175395000Y-101045000D02*
X174320000Y-101045000D01*
D62*
X185000000Y-105000000D02*
X183040000Y-105000000D01*
X134320000Y-71270000D02*
X134295000Y-71295000D01*
X110570000Y-86250000D02*
X113160000Y-86250000D01*
X182570000Y-87930000D02*
X185000000Y-85500000D01*
X108345000Y-74345000D02*
X108320000Y-74370000D01*
X151545000Y-92520000D02*
X149632500Y-92520000D01*
X114570000Y-74345000D02*
X113345000Y-74345000D01*
D63*
X176320000Y-86720000D02*
X176320000Y-83720000D01*
D62*
X163995000Y-75295000D02*
X163995000Y-76470000D01*
X149632500Y-92520000D02*
X149432500Y-92320000D01*
X140795000Y-85970000D02*
X141570000Y-86745000D01*
X145570000Y-90932500D02*
X146957500Y-92320000D01*
X159057500Y-86245000D02*
X158432500Y-86870000D01*
X128570000Y-66770000D02*
X128570000Y-67270000D01*
D63*
X177817500Y-86410000D02*
X176630000Y-86410000D01*
D62*
X179570000Y-90590000D02*
X180950000Y-90590000D01*
X150607500Y-72832500D02*
X150607500Y-71257500D01*
X111370000Y-88020000D02*
X111370000Y-87060000D01*
D63*
X174320000Y-82970000D02*
X170870000Y-82970000D01*
D62*
X146982500Y-86245000D02*
X147432500Y-86245000D01*
X135320000Y-66245000D02*
X134545000Y-66245000D01*
X111370000Y-87060000D02*
X112170000Y-86260000D01*
X131570000Y-66520000D02*
X131570000Y-67320000D01*
X114570000Y-66270000D02*
X114570000Y-67870000D01*
X119570000Y-74345000D02*
X118095000Y-74345000D01*
%TO.N,Net-(U801-TIMER)*%
X166270000Y-73565000D02*
X166270000Y-71040000D01*
X166270000Y-71040000D02*
X166860000Y-70450000D01*
X166860000Y-70450000D02*
X167670000Y-70450000D01*
%TO.N,Net-(SW202-B)*%
X121020000Y-72795000D02*
X121070000Y-72745000D01*
X119570000Y-72795000D02*
X121020000Y-72795000D01*
X119570000Y-71220000D02*
X119570000Y-72795000D01*
%TO.N,Net-(SW203-B)*%
X116070000Y-72745000D02*
X114620000Y-72745000D01*
X114620000Y-72745000D02*
X114570000Y-72795000D01*
X114570000Y-72795000D02*
X114570000Y-71270000D01*
D64*
%TO.N,Li_Ion-*%
X157045000Y-77592500D02*
X157285000Y-77592500D01*
D62*
X158070000Y-76720000D02*
X157917500Y-76720000D01*
X157917500Y-76720000D02*
X157045000Y-77592500D01*
X158070000Y-75107500D02*
X158045000Y-75082500D01*
X158045000Y-76592500D02*
X158070000Y-76567500D01*
X158045000Y-75082500D02*
X158045000Y-76592500D01*
X158045000Y-73220000D02*
X158045000Y-75082500D01*
D63*
X150570000Y-65720000D02*
X150570000Y-67782500D01*
D62*
X158070000Y-76567500D02*
X158070000Y-76720000D01*
X157270000Y-72445000D02*
X158045000Y-73220000D01*
D63*
X150570000Y-67782500D02*
X150670000Y-67882500D01*
D62*
X159295000Y-75107500D02*
X158070000Y-75107500D01*
%TO.N,Net-(SW204-B)*%
X109570000Y-71270000D02*
X109570000Y-72795000D01*
X109620000Y-72745000D02*
X109570000Y-72795000D01*
X111070000Y-72745000D02*
X109620000Y-72745000D01*
%TO.N,BAT+*%
X167020000Y-64270000D02*
X168195000Y-64270000D01*
D63*
X169720000Y-59970000D02*
X169720000Y-58030000D01*
D62*
X166320000Y-64970000D02*
X167020000Y-64270000D01*
X166320000Y-66560000D02*
X166320000Y-64970000D01*
D63*
X169720000Y-58030000D02*
X172500000Y-55250000D01*
X172370000Y-61970000D02*
X171720000Y-61970000D01*
X171720000Y-61970000D02*
X169720000Y-59970000D01*
D62*
X167670000Y-67910000D02*
X166320000Y-66560000D01*
D63*
X170495000Y-61970000D02*
X172370000Y-61970000D01*
X168195000Y-64270000D02*
X170495000Y-61970000D01*
D62*
%TO.N,Net-(D802-K)*%
X172820000Y-69180000D02*
X174147500Y-69180000D01*
D63*
X177820000Y-77470000D02*
X176245000Y-75895000D01*
D62*
X168170000Y-76720000D02*
X166270000Y-76720000D01*
D63*
X179570000Y-77470000D02*
X177820000Y-77470000D01*
D62*
X172895000Y-75895000D02*
X176245000Y-75895000D01*
X170820000Y-77970000D02*
X172895000Y-75895000D01*
X174147500Y-69180000D02*
X176245000Y-71277500D01*
X168570000Y-77970000D02*
X170820000Y-77970000D01*
X168170000Y-76720000D02*
X168170000Y-77570000D01*
X168170000Y-77570000D02*
X168570000Y-77970000D01*
D63*
X176245000Y-75895000D02*
X176245000Y-71277500D01*
D62*
%TO.N,Net-(D801-K)*%
X169245000Y-69565000D02*
X168860000Y-69180000D01*
X169245000Y-72065000D02*
X169245000Y-69565000D01*
X168860000Y-69180000D02*
X167670000Y-69180000D01*
X168207500Y-73565000D02*
X168207500Y-73102500D01*
X168207500Y-73102500D02*
X169245000Y-72065000D01*
%TO.N,Net-(D801-A)*%
X169820000Y-73602500D02*
X169782500Y-73565000D01*
X169782500Y-76682500D02*
X169820000Y-76720000D01*
X169820000Y-76720000D02*
X169820000Y-73602500D01*
D63*
%TO.N,V_ALIM*%
X180500000Y-66000000D02*
X180500000Y-72540000D01*
X180500000Y-72540000D02*
X179570000Y-73470000D01*
%TO.N,Net-(JP801-C)*%
X158320000Y-62220000D02*
X158320000Y-60720000D01*
X158320000Y-62220000D02*
X158570000Y-62470000D01*
X158570000Y-62470000D02*
X164420000Y-62470000D01*
X166920000Y-59970000D02*
X164420000Y-62470000D01*
%TO.N,NiMh+*%
X161070000Y-60720000D02*
X162570000Y-59220000D01*
X160320000Y-60720000D02*
X161070000Y-60720000D01*
X162570000Y-59220000D02*
X162570000Y-55070000D01*
X162570000Y-55070000D02*
X162500000Y-55000000D01*
D62*
%TO.N,Li_Ion+*%
X156320000Y-63470000D02*
X156320000Y-60720000D01*
X157757500Y-64220000D02*
X157070000Y-64220000D01*
D63*
X150000000Y-57400000D02*
X150000000Y-55000000D01*
D62*
X159295000Y-65757500D02*
X157757500Y-64220000D01*
X157070000Y-64220000D02*
X156320000Y-63470000D01*
D63*
X153320000Y-60720000D02*
X156320000Y-60720000D01*
%TO.N,Net-(Q801-D)*%
X154070000Y-69720000D02*
X154070000Y-72970000D01*
X153182500Y-68832500D02*
X154070000Y-69720000D01*
X152545000Y-68832500D02*
X153182500Y-68832500D01*
D65*
X153045000Y-68832500D02*
X152545000Y-68832500D01*
D63*
X153257500Y-73782500D02*
X152482500Y-73782500D01*
X154070000Y-72970000D02*
X153257500Y-73782500D01*
D62*
%TO.N,Net-(Q803-G)*%
X171300000Y-70450000D02*
X170570000Y-69720000D01*
X172820000Y-70450000D02*
X171300000Y-70450000D01*
X170570000Y-68545000D02*
X168195000Y-66170000D01*
X170570000Y-69720000D02*
X170570000Y-68545000D01*
%TO.N,Net-(Q803-S)*%
X172820000Y-67910000D02*
X172820000Y-65720000D01*
X172932500Y-67797500D02*
X172820000Y-67910000D01*
D63*
X173612500Y-65720000D02*
X176245000Y-68352500D01*
X172820000Y-65720000D02*
X173612500Y-65720000D01*
X170070000Y-65220000D02*
X170570000Y-65720000D01*
X170570000Y-65720000D02*
X172820000Y-65720000D01*
%TO.N,+BATT*%
X146970000Y-89332500D02*
X148170000Y-89332500D01*
X147432500Y-89795000D02*
X146970000Y-89332500D01*
X170560000Y-105680000D02*
X168570000Y-107670000D01*
D62*
X149882500Y-91220000D02*
X149432500Y-90770000D01*
D63*
X170560000Y-87680000D02*
X168570000Y-89670000D01*
X168570000Y-107670000D02*
X168570000Y-109970000D01*
D62*
X157182500Y-91832500D02*
X157182500Y-92082500D01*
D63*
X157182500Y-90832500D02*
X156045000Y-90832500D01*
X172822500Y-87680000D02*
X170560000Y-87680000D01*
X147432500Y-90770000D02*
X147432500Y-89795000D01*
X156045000Y-90832500D02*
X155932500Y-90720000D01*
D62*
X149432500Y-90770000D02*
X147432500Y-90770000D01*
D63*
X172825000Y-105680000D02*
X170560000Y-105680000D01*
D62*
X151545000Y-91220000D02*
X149882500Y-91220000D01*
D63*
X168570000Y-89670000D02*
X168570000Y-92470000D01*
D62*
X157070000Y-90720000D02*
X157182500Y-90832500D01*
%TO.N,Net-(U801-PROG)*%
X173320000Y-73565000D02*
X173320000Y-72220000D01*
X173320000Y-72220000D02*
X172820000Y-71720000D01*
%TO.N,Net-(U301-VCC)*%
X149357500Y-87795000D02*
X149432500Y-87870000D01*
X152682500Y-90766751D02*
X152682500Y-89795000D01*
X149432500Y-89295000D02*
X149432500Y-87870000D01*
X147432500Y-87795000D02*
X149357500Y-87795000D01*
X153820000Y-91220000D02*
X153135749Y-91220000D01*
X153135749Y-91220000D02*
X152682500Y-90766751D01*
%TO.N,Net-(C304-Pad1)*%
X153632500Y-96070000D02*
X153682500Y-96120000D01*
X151682500Y-96070000D02*
X153632500Y-96070000D01*
%TO.N,Net-(U301-SW)*%
X152229251Y-91870000D02*
X151545000Y-91870000D01*
X151682500Y-94520000D02*
X151682500Y-94295000D01*
D63*
X158507500Y-93295000D02*
X159182500Y-92620000D01*
X157182500Y-93295000D02*
X158507500Y-93295000D01*
D62*
X152682500Y-93295000D02*
X152682500Y-92323249D01*
X152682500Y-92323249D02*
X152229251Y-91870000D01*
X151682500Y-94295000D02*
X152682500Y-93295000D01*
%TO.N,Net-(C305-Pad1)*%
X151432500Y-86220000D02*
X153382500Y-86220000D01*
X153432500Y-86270000D02*
X155382500Y-86270000D01*
X155382500Y-86270000D02*
X155432500Y-86220000D01*
X153382500Y-86220000D02*
X153432500Y-86270000D01*
X157432500Y-86220000D02*
X155432500Y-86220000D01*
D63*
%TO.N,+5V*%
X156432500Y-89220000D02*
X157432500Y-89220000D01*
D62*
X153482500Y-87870000D02*
X153432500Y-87820000D01*
X142345000Y-85970000D02*
X143370000Y-84945000D01*
X161570000Y-91220000D02*
X161570000Y-93637500D01*
D63*
X155382500Y-87820000D02*
X155432500Y-87870000D01*
X159432500Y-87795000D02*
X160432500Y-87795000D01*
D62*
X143495000Y-84820000D02*
X143495000Y-84820000D01*
X143495000Y-84820000D02*
X144170000Y-84820000D01*
X140620000Y-88520000D02*
X141195000Y-89095000D01*
D63*
X160432500Y-87795000D02*
X161432500Y-87795000D01*
D62*
X140620000Y-88082500D02*
X140620000Y-88520000D01*
X141945000Y-89095000D02*
X142520000Y-88520000D01*
D63*
X159007500Y-90295000D02*
X159007500Y-89220000D01*
X159007500Y-89220000D02*
X160432500Y-87795000D01*
X159182500Y-90470000D02*
X159007500Y-90295000D01*
X155432500Y-88220000D02*
X156432500Y-89220000D01*
D62*
X143370000Y-84820000D02*
X143495000Y-84820000D01*
X144170000Y-84820000D02*
X144970000Y-84820000D01*
X161570000Y-93637500D02*
X160495000Y-93637500D01*
X142520000Y-86145000D02*
X142345000Y-85970000D01*
D63*
X153432500Y-87820000D02*
X155382500Y-87820000D01*
D62*
X143370000Y-84945000D02*
X143370000Y-84820000D01*
X159182500Y-90470000D02*
X160820000Y-90470000D01*
X160495000Y-93637500D02*
X159070000Y-95062500D01*
D63*
X155432500Y-87870000D02*
X155432500Y-88220000D01*
D62*
X160820000Y-90470000D02*
X161570000Y-91220000D01*
X141195000Y-89095000D02*
X141945000Y-89095000D01*
X142520000Y-88082500D02*
X142520000Y-86145000D01*
X142520000Y-88520000D02*
X142520000Y-88082500D01*
D63*
X158432500Y-89220000D02*
X159007500Y-89220000D01*
D62*
%TO.N,+3V3*%
X130820000Y-73520000D02*
X131995000Y-73520000D01*
X179572500Y-107040000D02*
X177910000Y-107040000D01*
X132570000Y-66270000D02*
X133570000Y-66270000D01*
X132070000Y-66770000D02*
X132570000Y-66270000D01*
X139345000Y-111620000D02*
X136720000Y-111620000D01*
X177817500Y-88950000D02*
X179480000Y-88950000D01*
X155320000Y-111720000D02*
X158245000Y-111720000D01*
D63*
X144070000Y-92720000D02*
X144070000Y-91720000D01*
D62*
X177910000Y-107040000D02*
X177820000Y-106950000D01*
X179480000Y-88950000D02*
X179570000Y-89040000D01*
X136720000Y-111620000D02*
X136570000Y-111470000D01*
X152495000Y-111720000D02*
X152395000Y-111820000D01*
X172825000Y-106950000D02*
X171340000Y-106950000D01*
X135320000Y-68770000D02*
X135320000Y-67795000D01*
X155320000Y-111720000D02*
X152495000Y-111720000D01*
X133570000Y-66270000D02*
X135095000Y-67795000D01*
X179572500Y-107040000D02*
X180750000Y-107040000D01*
D63*
X142345000Y-92470000D02*
X142595000Y-92720000D01*
X142520000Y-92295000D02*
X142345000Y-92470000D01*
D62*
X135095000Y-67795000D02*
X135320000Y-67795000D01*
X179640000Y-88970000D02*
X181070000Y-88970000D01*
X171340000Y-106950000D02*
X170820000Y-107470000D01*
X172822500Y-88950000D02*
X171340000Y-88950000D01*
D63*
X142520000Y-90357500D02*
X142520000Y-92295000D01*
D62*
X180750000Y-107040000D02*
X180820000Y-106970000D01*
D63*
X142595000Y-92720000D02*
X144070000Y-92720000D01*
D62*
X136570000Y-111470000D02*
X133395000Y-111470000D01*
X129895000Y-73520000D02*
X130820000Y-73520000D01*
D63*
X144070000Y-91720000D02*
X144070000Y-90720000D01*
D62*
X128843959Y-68020000D02*
X128320000Y-68543959D01*
X179570000Y-89040000D02*
X179640000Y-88970000D01*
X142345000Y-90532500D02*
X142520000Y-90357500D01*
X129370000Y-68020000D02*
X128843959Y-68020000D01*
X128320000Y-68543959D02*
X128320000Y-68770000D01*
X170820000Y-107470000D02*
X170945000Y-107345000D01*
X135320000Y-69745000D02*
X135320000Y-68770000D01*
X113170000Y-83720000D02*
X110570000Y-83720000D01*
X171340000Y-88950000D02*
X171070000Y-89220000D01*
X132070000Y-67320000D02*
X132070000Y-66770000D01*
D63*
%TO.N,Net-(J401-Pin_1)*%
X172820000Y-85220000D02*
X172822500Y-85217500D01*
X172820000Y-85220000D02*
X173070000Y-85470000D01*
X172822500Y-86410000D02*
X172822500Y-85222500D01*
X173820000Y-85470000D02*
X175070000Y-85470000D01*
X173070000Y-85470000D02*
X173820000Y-85470000D01*
X172822500Y-84272500D02*
X172770000Y-84220000D01*
X172822500Y-85217500D02*
X172822500Y-84272500D01*
X172822500Y-85222500D02*
X172820000Y-85220000D01*
%TO.N,Net-(J402-Pin_1)*%
X172820000Y-103220000D02*
X172820000Y-102245000D01*
X172825000Y-104410000D02*
X172825000Y-103225000D01*
X172820000Y-102245000D02*
X172822500Y-102245000D01*
X172820000Y-103220000D02*
X173320000Y-103720000D01*
X172825000Y-103225000D02*
X172820000Y-103220000D01*
X173320000Y-103720000D02*
X173820000Y-103720000D01*
X173820000Y-103720000D02*
X174820000Y-103720000D01*
%TO.N,Net-(J401-Pin_6)*%
X182570000Y-85720000D02*
X180700000Y-87590000D01*
X183290000Y-75500000D02*
X182570000Y-76220000D01*
X180700000Y-87590000D02*
X179570000Y-87590000D01*
X185000000Y-75500000D02*
X183290000Y-75500000D01*
X182570000Y-76220000D02*
X182570000Y-85720000D01*
X179480000Y-87680000D02*
X179570000Y-87590000D01*
X177817500Y-87680000D02*
X179480000Y-87680000D01*
%TO.N,Net-(J402-Pin_6)*%
X183790000Y-95000000D02*
X182070000Y-96720000D01*
X180200000Y-105590000D02*
X179572500Y-105590000D01*
X185000000Y-95000000D02*
X183790000Y-95000000D01*
X182070000Y-96720000D02*
X182070000Y-103720000D01*
X182070000Y-103720000D02*
X180200000Y-105590000D01*
X177820000Y-105680000D02*
X179482500Y-105680000D01*
X179482500Y-105680000D02*
X179572500Y-105590000D01*
D62*
%TO.N,Net-(U501-REGOUT)*%
X131070000Y-66068959D02*
X131070000Y-67320000D01*
X130521041Y-65520000D02*
X131070000Y-66068959D01*
X128045000Y-65520000D02*
X130521041Y-65520000D01*
X127320000Y-66245000D02*
X128045000Y-65520000D01*
D65*
%TO.N,/Alimentation/BMS/Secu_VDD*%
X155320000Y-74907500D02*
X155320000Y-72445000D01*
X155495000Y-75082500D02*
X155320000Y-74907500D01*
%TO.N,/Alimentation/BMS/Secu_Vc*%
X156795000Y-76332500D02*
X156295000Y-76332500D01*
X157045000Y-75082500D02*
X157045000Y-76082500D01*
X156620000Y-68220000D02*
X156620000Y-69757500D01*
X157045000Y-76082500D02*
X156795000Y-76332500D01*
X156295000Y-76332500D02*
X156045000Y-76332500D01*
X155495000Y-76882500D02*
X155495000Y-77592500D01*
X156045000Y-76332500D02*
X155495000Y-76882500D01*
X156620000Y-69757500D02*
X156545000Y-69832500D01*
%TO.N,/Alimentation/BMS/Secu_Sense*%
X158295000Y-72557500D02*
X159295000Y-73557500D01*
X157545000Y-69832500D02*
X157270000Y-69557500D01*
D62*
X159295000Y-67407500D02*
X158082500Y-67407500D01*
X158082500Y-67407500D02*
X157270000Y-68220000D01*
D65*
X157270000Y-69557500D02*
X157270000Y-68220000D01*
X158295000Y-72082500D02*
X158295000Y-72557500D01*
D62*
%TO.N,Net-(D301-K)*%
X161070000Y-96795000D02*
X159227500Y-96795000D01*
%TO.N,/STM32/NRST*%
X119840023Y-89290023D02*
X119350000Y-88800000D01*
X119350000Y-88800000D02*
X117070000Y-88800000D01*
%TO.N,/Drivers and motors connectors/MOTOR_1_FWD*%
X172822500Y-95767500D02*
X172822500Y-90220000D01*
X139520000Y-98870000D02*
X141080661Y-98870000D01*
X141080661Y-98870000D02*
X141230661Y-99020000D01*
X169570000Y-99020000D02*
X172822500Y-95767500D01*
X139370000Y-99020000D02*
X139520000Y-98870000D01*
X141230661Y-99020000D02*
X169570000Y-99020000D01*
%TO.N,/Drivers and motors connectors/MOTOR_1_REV*%
X140870000Y-99520000D02*
X169793750Y-99520000D01*
X140770000Y-99620000D02*
X140870000Y-99520000D01*
X177817500Y-91496250D02*
X177817500Y-90220000D01*
X169793750Y-99520000D02*
X177817500Y-91496250D01*
%TO.N,/STM32/USART2_TX*%
X135828147Y-88470000D02*
X134745000Y-88470000D01*
X137220500Y-98020000D02*
X137170000Y-97969500D01*
X137170000Y-97969500D02*
X137170000Y-89811853D01*
X137170000Y-89811853D02*
X135828147Y-88470000D01*
%TO.N,/STM32/USART2_RX*%
X137970000Y-89904747D02*
X136035253Y-87970000D01*
X137970000Y-99020000D02*
X137970000Y-89904747D01*
X136035253Y-87970000D02*
X134745000Y-87970000D01*
%TO.N,/Drivers and motors connectors/ENCODER_2_A*%
X134745000Y-86470000D02*
X136820000Y-86470000D01*
X136820000Y-86470000D02*
X137170000Y-86820000D01*
%TO.N,/Drivers and motors connectors/ENCODER_2_B*%
X134745000Y-85970000D02*
X136820000Y-85970000D01*
X136820000Y-85970000D02*
X137170000Y-85620000D01*
%TO.N,/STM32/USART3_RX*%
X134745000Y-84970000D02*
X135621041Y-84970000D01*
X135621041Y-84970000D02*
X137570000Y-83021041D01*
X137570000Y-83021041D02*
X137570000Y-74720000D01*
%TO.N,/STM32/I2C_SDA*%
X133645000Y-74295000D02*
X136320000Y-76970000D01*
X136320000Y-76970000D02*
X136320000Y-82220000D01*
X133645000Y-73520000D02*
X133645000Y-74295000D01*
X136070000Y-82470000D02*
X134745000Y-82470000D01*
X136320000Y-82220000D02*
X136070000Y-82470000D01*
%TO.N,/STM32/Bordure_1*%
X129320000Y-76590615D02*
X129320000Y-80045000D01*
X128320000Y-75590615D02*
X128320000Y-75220000D01*
X129320000Y-76590615D02*
X128320000Y-75590615D01*
%TO.N,/STM32/Bordure_2*%
X126780000Y-63220000D02*
X135000000Y-55000000D01*
X128820000Y-77220000D02*
X126320000Y-74720000D01*
X123320000Y-74720000D02*
X123320000Y-66670000D01*
X128820000Y-80045000D02*
X128820000Y-77220000D01*
X126320000Y-74720000D02*
X123320000Y-74720000D01*
X123320000Y-66670000D02*
X126770000Y-63220000D01*
%TO.N,/STM32/Bordure_3*%
X135299977Y-80020000D02*
X135299977Y-79285765D01*
X133734212Y-77720000D02*
X132362894Y-77720000D01*
X135299977Y-79285765D02*
X133734212Y-77720000D01*
X131820000Y-78262894D02*
X131820000Y-80045000D01*
X132362894Y-77720000D02*
X131820000Y-78262894D01*
%TO.N,/Drivers and motors connectors/ENCODER_1_B*%
X131320000Y-77970000D02*
X131320000Y-80045000D01*
X134970000Y-76970000D02*
X132320000Y-76970000D01*
X132320000Y-76970000D02*
X131320000Y-77970000D01*
%TO.N,/Drivers and motors connectors/ENCODER_1_A*%
X130820000Y-77470000D02*
X130820000Y-80045000D01*
X132070000Y-76220000D02*
X130820000Y-77470000D01*
%TO.N,/STM32/Bumper_1*%
X131650000Y-115800000D02*
X131650000Y-111565000D01*
X129820000Y-76029954D02*
X129820000Y-80045000D01*
X131650000Y-111565000D02*
X131745000Y-111470000D01*
X129540023Y-75749977D02*
X129820000Y-76029954D01*
%TO.N,/STM32/Bumper_2*%
X141100000Y-111725000D02*
X140995000Y-111620000D01*
X141100000Y-115800000D02*
X141100000Y-111725000D01*
X130320000Y-80045000D02*
X130320000Y-76720000D01*
X130320000Y-76720000D02*
X130820000Y-76220000D01*
%TO.N,/STM32/Bumper_3*%
X150670000Y-115820000D02*
X150670000Y-111895000D01*
X150670000Y-111895000D02*
X150745000Y-111820000D01*
%TO.N,/STM32/Bumper_4*%
X134520000Y-80570000D02*
X134520000Y-79212894D01*
X134970000Y-81020000D02*
X134520000Y-80570000D01*
X132320000Y-78470000D02*
X132320000Y-80045000D01*
X134520000Y-79212894D02*
X133527106Y-78220000D01*
X133527106Y-78220000D02*
X132570000Y-78220000D01*
X132570000Y-78220000D02*
X132320000Y-78470000D01*
X160000000Y-111825000D02*
X159895000Y-111720000D01*
X160000000Y-115800000D02*
X160000000Y-111825000D01*
%TO.N,/STM32/BTN_1*%
X125984212Y-75220000D02*
X128320000Y-77555788D01*
X121820000Y-75220000D02*
X125984212Y-75220000D01*
X128320000Y-77555788D02*
X128320000Y-80045000D01*
%TO.N,/STM32/BTN_2*%
X117070000Y-75720000D02*
X125777106Y-75720000D01*
X127820000Y-77762894D02*
X127820000Y-80045000D01*
X125777106Y-75720000D02*
X127820000Y-77762894D01*
%TO.N,/STM32/BTN_3*%
X125570000Y-76220000D02*
X127320000Y-77970000D01*
X127320000Y-77970000D02*
X127320000Y-80045000D01*
X112070000Y-76220000D02*
X125570000Y-76220000D01*
%TO.N,/STM32/SWDIO*%
X125570000Y-76970000D02*
X120820000Y-76970000D01*
X126820000Y-78220000D02*
X125570000Y-76970000D01*
X118320000Y-83720000D02*
X117070000Y-83720000D01*
X118820000Y-78970000D02*
X118820000Y-83220000D01*
X118820000Y-83220000D02*
X118320000Y-83720000D01*
X126820000Y-80045000D02*
X126820000Y-78220000D01*
X120820000Y-76970000D02*
X118820000Y-78970000D01*
%TO.N,/STM32/SWCLK*%
X125320000Y-77470000D02*
X126320000Y-78470000D01*
X119320000Y-79220000D02*
X121070000Y-77470000D01*
X119320000Y-83970000D02*
X119320000Y-79220000D01*
X118300000Y-84990000D02*
X119320000Y-83970000D01*
X117070000Y-84990000D02*
X118300000Y-84990000D01*
X121070000Y-77470000D02*
X125320000Y-77470000D01*
X126320000Y-78470000D02*
X126320000Y-80045000D01*
%TO.N,/STM32/PD0*%
X123395000Y-82470000D02*
X122420000Y-82470000D01*
X122820000Y-80970000D02*
X123070000Y-80970000D01*
X122270000Y-82320000D02*
X122270000Y-81520000D01*
X122420000Y-82470000D02*
X122270000Y-82320000D01*
X117530000Y-59220000D02*
X117530000Y-60710000D01*
X117530000Y-60710000D02*
X117590000Y-60770000D01*
X122270000Y-81520000D02*
X122820000Y-80970000D01*
%TO.N,/STM32/PD1*%
X120040000Y-59220000D02*
X120040000Y-60720000D01*
X121770000Y-82527106D02*
X121770000Y-81209339D01*
X122212894Y-82970000D02*
X121770000Y-82527106D01*
X123009339Y-79970000D02*
X123570000Y-79970000D01*
X120040000Y-60720000D02*
X120090000Y-60770000D01*
X121770000Y-81209339D02*
X123009339Y-79970000D01*
X123395000Y-82970000D02*
X122212894Y-82970000D01*
%TO.N,/STM32/PD2*%
X121270000Y-82320000D02*
X121270000Y-81002233D01*
X127570000Y-59220000D02*
X127570000Y-60750000D01*
X122005788Y-83470000D02*
X121270000Y-82734212D01*
X123320000Y-78970000D02*
X124320000Y-78970000D01*
X121270000Y-81002233D02*
X122802233Y-79470000D01*
X122820000Y-79470000D02*
X123320000Y-78970000D01*
X122802233Y-79470000D02*
X122820000Y-79470000D01*
X121270000Y-82734212D02*
X121270000Y-82320000D01*
X127570000Y-60750000D02*
X127590000Y-60770000D01*
X123395000Y-83470000D02*
X122005788Y-83470000D01*
%TO.N,/STM32/PD3*%
X125060000Y-60740000D02*
X125090000Y-60770000D01*
X120770000Y-80770000D02*
X123320000Y-78220000D01*
X123395000Y-83970000D02*
X121798682Y-83970000D01*
X121798682Y-83970000D02*
X120770000Y-82941318D01*
X125060000Y-59220000D02*
X125060000Y-60740000D01*
X120770000Y-82941318D02*
X120770000Y-80770000D01*
%TO.N,/STM32/PD4*%
X122550000Y-59220000D02*
X122550000Y-60730000D01*
X120320000Y-83220000D02*
X120270000Y-83170000D01*
X120270000Y-80020000D02*
X121820000Y-78470000D01*
X120270000Y-80720000D02*
X120270000Y-80020000D01*
X123395000Y-84470000D02*
X121570000Y-84470000D01*
X120270000Y-83170000D02*
X120270000Y-80720000D01*
X122550000Y-60730000D02*
X122590000Y-60770000D01*
X121570000Y-84470000D02*
X120320000Y-83220000D01*
%TO.N,/STM32/PD5*%
X115020000Y-59220000D02*
X115020000Y-60700000D01*
X120820000Y-84970000D02*
X120570000Y-84720000D01*
X123395000Y-84970000D02*
X120820000Y-84970000D01*
X115020000Y-60700000D02*
X115090000Y-60770000D01*
%TO.N,/STM32/PD6*%
X112590000Y-60770000D02*
X112590000Y-59300000D01*
X121320000Y-85470000D02*
X120820000Y-85970000D01*
X123395000Y-85470000D02*
X121320000Y-85470000D01*
X112590000Y-59300000D02*
X112510000Y-59220000D01*
%TO.N,/STM32/USART1_TX*%
X120120707Y-90070000D02*
X120590023Y-89600684D01*
X121720000Y-87470000D02*
X123395000Y-87470000D01*
X120590023Y-88599977D02*
X121720000Y-87470000D01*
X120590023Y-89600684D02*
X120590023Y-88599977D01*
X117070000Y-90070000D02*
X120120707Y-90070000D01*
%TO.N,/STM32/USART1_RX*%
X113170000Y-90070000D02*
X114320000Y-91220000D01*
X121090023Y-89807790D02*
X121090023Y-88807083D01*
X121090023Y-88807083D02*
X121927106Y-87970000D01*
X119677813Y-91220000D02*
X121090023Y-89807790D01*
X121927106Y-87970000D02*
X123395000Y-87970000D01*
X114320000Y-91220000D02*
X119677813Y-91220000D01*
D65*
%TO.N,/Alimentation/BMS/Secu_Dout*%
X155182500Y-68082500D02*
X155320000Y-68220000D01*
X152545000Y-66932500D02*
X152895000Y-66932500D01*
X152895000Y-66932500D02*
X154045000Y-68082500D01*
X154045000Y-68082500D02*
X155182500Y-68082500D01*
%TO.N,/Alimentation/BMS/Secu_Vout*%
X152482500Y-71882500D02*
X152482500Y-70395000D01*
X155970000Y-71007500D02*
X155795000Y-70832500D01*
X155970000Y-72445000D02*
X155970000Y-71007500D01*
X152482500Y-70395000D02*
X152545000Y-70332500D01*
D62*
%TO.N,Net-(U301-EN{slash}SYNC)*%
X155432500Y-91870000D02*
X153820000Y-91870000D01*
X155932500Y-92370000D02*
X155432500Y-91870000D01*
%TO.N,Net-(U301-PG)*%
X150432500Y-86545000D02*
X150432500Y-89457500D01*
X150432500Y-89457500D02*
X151545000Y-90570000D01*
X149432500Y-86220000D02*
X150107500Y-86220000D01*
X150107500Y-86220000D02*
X150432500Y-86545000D01*
%TO.N,Net-(U301-BST)*%
X153682500Y-92657500D02*
X153820000Y-92520000D01*
X153820000Y-92520000D02*
X153982500Y-92520000D01*
X153682500Y-94470000D02*
X153682500Y-92657500D01*
%TO.N,Net-(U301-FB)*%
X151682500Y-89045000D02*
X153432500Y-89045000D01*
X151432500Y-87870000D02*
X151432500Y-88795000D01*
X151432500Y-88795000D02*
X151682500Y-89045000D01*
X153820000Y-89432500D02*
X153820000Y-90570000D01*
X153432500Y-89045000D02*
X153820000Y-89432500D01*
%TO.N,/Alimentation/BMS/Secu_V-*%
X159295000Y-69582500D02*
X158045000Y-70832500D01*
X158045000Y-70832500D02*
X157295000Y-70832500D01*
X157295000Y-70832500D02*
X156620000Y-71507500D01*
X156620000Y-71507500D02*
X156620000Y-72445000D01*
D65*
X156620000Y-71681459D02*
X156620000Y-72445000D01*
D62*
%TO.N,Net-(J2-Pin_2)*%
X127670000Y-57470000D02*
X127570000Y-57570000D01*
X127550000Y-55120000D02*
X127710000Y-54960000D01*
%TO.N,Net-(J2-Pin_4)*%
X125040000Y-55090000D02*
X125170000Y-54960000D01*
X125130000Y-57500000D02*
X125060000Y-57570000D01*
%TO.N,Net-(J2-Pin_6)*%
X122530000Y-55060000D02*
X122630000Y-54960000D01*
X122590000Y-57530000D02*
X122550000Y-57570000D01*
%TO.N,Net-(J2-Pin_8)*%
X120020000Y-55030000D02*
X120090000Y-54960000D01*
X120050000Y-57560000D02*
X120040000Y-57570000D01*
%TO.N,Net-(J2-Pin_10)*%
X117510000Y-57550000D02*
X117530000Y-57570000D01*
X117510000Y-55000000D02*
X117550000Y-54960000D01*
%TO.N,Net-(J2-Pin_12)*%
X114970000Y-57520000D02*
X115020000Y-57570000D01*
X115000000Y-54970000D02*
X115010000Y-54960000D01*
%TO.N,Net-(J2-Pin_14)*%
X112430000Y-57490000D02*
X112510000Y-57570000D01*
%TD*%
M02*
